<svg width="65" height="66" viewBox="0 0 65 66" fill="none" xmlns="http://www.w3.org/2000/svg">
<path d="M60 15.3038C57.9756 16.2319 55.7935 16.8419 53.5325 17.1336C55.8461 15.7281 57.6338 13.5005 58.4751 10.8221C56.293 12.148 53.8743 13.0762 51.3241 13.6066C49.2471 11.3259 46.3289 10 43.0163 10C36.838 10 31.7902 15.0916 31.7902 21.3766C31.7902 22.2782 31.8953 23.1533 32.0794 23.9754C22.7199 23.4981 14.3858 18.9634 8.83843 12.095C7.86568 13.7657 7.31358 15.7281 7.31358 17.7965C7.31358 21.7478 9.28537 25.2483 12.3351 27.2372C10.4685 27.2372 8.73327 26.7068 7.20841 25.9113V25.9908C7.20841 31.5067 11.0994 36.121 16.2524 37.1553C14.598 37.6119 12.8611 37.6755 11.1783 37.3409C11.8924 39.6016 13.2908 41.5797 15.1771 42.9972C17.0634 44.4147 19.3427 45.2002 21.6946 45.2435C17.7079 48.4269 12.7662 50.1477 7.68164 50.1229C6.78776 50.1229 5.89388 50.0699 5 49.9638C9.99522 53.1991 15.9369 55.082 22.2992 55.082C43.0163 55.082 54.4001 37.7387 54.4001 22.7025C54.4001 22.1986 54.4001 21.7213 54.3738 21.2175C56.5822 19.6263 58.4751 17.6109 60 15.3038Z" fill="#343230"/>
</svg>
