<svg width="65" height="66" viewBox="0 0 65 66" fill="none" xmlns="http://www.w3.org/2000/svg">
<path fill-rule="evenodd" clip-rule="evenodd" d="M50.058 54.4225L50.058 54.417L50.1068 54.2988L58.229 12.7188L58.229 12.5868C58.229 11.55 57.8499 10.6453 57.032 10.1035C56.3143 9.62776 55.4882 9.59476 54.9086 9.63876C54.3691 9.6883 53.8368 9.79899 53.3215 9.96876C53.1018 10.0407 52.885 10.1214 52.6715 10.2108L52.6363 10.2245L7.353 28.2618L7.33946 28.2673C7.20179 28.315 7.06704 28.371 6.93592 28.435C6.61387 28.5819 6.30488 28.7567 6.01238 28.9575C5.43009 29.3645 4.32238 30.3215 4.50925 31.8395C4.66363 33.099 5.51676 33.8965 6.09363 34.3118C6.43413 34.554 6.80022 34.757 7.18509 34.9168L7.27175 34.9553L7.29884 34.9635L7.3178 34.9718L15.2424 37.6805C15.2153 38.1838 15.264 38.698 15.3968 39.2068L19.3645 54.494C19.5812 55.3273 20.0496 56.0707 20.7038 56.6199C21.358 57.1691 22.1652 57.4963 23.012 57.5558C23.8588 57.6153 24.7026 57.4039 25.4251 56.9514C26.1475 56.499 26.7122 55.8281 27.0399 55.033L33.2365 48.3065L43.8776 56.5895L44.0293 56.6555C44.9961 57.0845 45.898 57.2193 46.724 57.1065C47.5501 56.991 48.2055 56.639 48.6984 56.2403C49.2685 55.7709 49.7229 55.173 50.0255 54.494L50.0472 54.4473L50.0553 54.4307L50.058 54.4225ZM19.3238 38.1563C19.2799 37.9866 19.2903 37.8072 19.3537 37.644C19.417 37.4808 19.5299 37.3424 19.6759 37.2488L46.5453 19.9238C46.5453 19.9238 48.127 18.9475 48.0701 19.9238C48.0701 19.9238 48.3518 20.0943 47.504 20.8945C46.7024 21.6563 28.3534 39.644 26.4955 41.4645C26.3922 41.5664 26.3198 41.6962 26.287 41.8385L23.2915 53.4435L19.3238 38.1563Z" fill="#343230"/>
</svg>
