<svg width="631" height="631" viewBox="0 0 631 631" fill="none" xmlns="http://www.w3.org/2000/svg">
<g clip-path="url(#clip0_159_3477)">
<g clip-path="url(#clip1_159_3477)">
<path d="M444.461 416.829C439.679 418.883 435.615 419.875 433.72 420.282C412.373 424.886 393.639 413.992 372.158 401.51C369.017 399.684 366.378 398.018 364.114 396.486C351.001 387.621 350.245 383.189 336 377.771C331.059 375.895 321.743 372.855 314.742 364.245C313.057 362.172 307.518 355.362 309.775 349.886C310.214 348.812 311.206 347.196 314.742 345.193C321.934 341.13 329.139 341.435 332.687 341.333C340.89 341.092 346.709 338.039 358.359 331.947C363.312 329.353 379.363 320.329 389.55 301.029C395.706 289.367 397.429 273.323 397.836 265.717V265.692C400.882 265.794 404.221 265.546 407.737 264.725C410.904 263.988 416.417 262.697 421.301 259.174C430.999 260.725 439.164 262.862 445.593 264.865C457.707 268.636 475.792 274.461 493.623 289.157C507.556 300.635 520.077 316.501 518.195 318.695C517.813 319.14 516.738 318.905 514.608 318.422C509.998 317.372 507.696 316.851 503.289 314.002C495.734 309.131 475.328 310.835 470.438 311.242C467.309 311.503 458.902 312.31 446.884 315.318C437.93 317.563 426.961 321.035 414.675 326.421C413.104 327.108 411.667 327.763 410.351 328.38C395.445 335.362 395.68 337.944 381.824 342.433C364.107 348.182 347.631 349.174 347.593 352.926C347.574 354.325 349.85 355.342 351.733 356.239C361.786 361.015 360.413 362 366.403 365.962C368.711 367.488 372.113 369.453 377.684 372.251C395.604 381.243 404.564 385.739 415.228 386.877C417.676 387.144 427.495 388.06 439.793 385.224C442.369 384.626 445.586 383.888 449.141 382.687C452.48 381.555 456.111 380.022 459.786 377.828C461.313 376.913 462.845 375.889 464.365 374.731C476.295 365.651 480.956 353.454 482.03 354.032C482.813 354.452 480.091 360.811 477.891 366.178C467.258 392.104 469.071 394.381 464.365 401.236C458.877 409.229 450.998 414.018 444.461 416.829Z" fill="#FF9D46"/>
<path d="M401.028 488.477C400.106 489.513 399.057 490.613 397.804 491.802C394.637 494.817 392.144 497.182 389.836 498.67C387.82 499.967 385.944 500.597 383.871 500.406C377.468 499.815 373.093 491.771 371.573 487.09C370.167 482.734 370.434 478.722 370.962 470.697C371.357 464.687 371.986 460.681 371.986 460.681C372.647 456.497 373.239 454.614 373.213 451.021C373.188 447.524 372.597 444.891 372.431 444.198C371.134 438.736 369.163 438.265 366.562 432.307C365.64 430.195 364.978 428.167 364.482 426.297C363.643 423.099 363.319 420.358 363.096 418.457C363.013 417.744 362.695 414.794 362.797 410.031C362.874 406.533 363.179 401.936 364.114 396.486C366.377 398.018 369.016 399.684 372.158 401.51C393.639 413.992 412.373 424.886 433.72 420.282C435.615 419.875 439.679 418.883 444.461 416.829C444.225 425.127 444.2 431.321 446.159 438.526C450.941 456.09 461.122 456.16 469.109 474.995C471.767 481.272 477.286 494.81 472.593 509.423C471.404 513.131 468.314 522.746 459.277 527.661C445.027 535.407 428.029 524.933 425.466 523.356C424.945 523.032 424.436 522.701 423.94 522.364C417.505 517.976 413.498 512.508 412.761 511.471C411.775 510.085 410.7 508.412 408.252 503.688C406.3 499.917 403.775 494.797 401.028 488.477Z" fill="#3A80FE"/>
<path d="M446.986 368.353C450.242 371.323 457.53 376.633 459.787 377.828C456.112 380.022 452.481 381.555 449.142 382.687C446.376 381.587 437.861 376.62 433.976 374.191C430.739 372.169 427.388 370.07 423.973 366.433C419.782 361.975 420.323 360.328 416.215 356.703C415.223 355.832 413.855 354.637 411.999 353.543C411.49 349.314 410.491 342.147 410.352 337.156C410.262 334.097 410.269 331.165 410.352 328.38C411.668 327.763 413.105 327.108 414.676 326.421C426.961 321.035 437.931 317.563 446.885 315.318C444.226 318.504 441.517 322.517 439.349 327.445C436.799 333.238 433.263 341.289 435.597 350.878C437.81 360.004 444.195 365.816 446.986 368.353Z" fill="#FF9D46"/>
<path d="M388.43 355.482C389.905 354.153 391.934 352.723 394.579 351.737C400.951 349.365 406.553 351.215 408.251 351.807C409.676 352.303 410.922 352.907 411.997 353.543C413.854 354.637 415.221 355.832 416.213 356.703C420.321 360.328 419.78 361.975 423.971 366.433C427.386 370.07 430.737 372.169 433.974 374.191C437.859 376.62 446.374 381.587 449.14 382.687C445.586 383.888 442.368 384.626 439.792 385.224C427.494 388.06 417.676 387.144 415.227 386.877C404.563 385.739 395.603 381.243 377.683 372.251C372.113 369.453 368.71 367.488 366.402 365.962C365.951 363.361 369.989 358.662 371.896 357.479C373.448 356.525 377.62 353.937 382.516 353.988C384.71 354.007 386.58 354.548 388.43 355.482Z" fill="#3A80FE"/>
<path d="M440.339 215.277C443.328 220.638 443.792 227.665 441.128 233.426C438.864 238.323 434.845 241.21 430.622 243.143C427.818 244.427 424.925 245.292 422.387 246.049C422.375 246.049 422.362 246.049 422.349 246.062C418.725 244.09 414.133 240.58 411.539 234.609C407.393 225.089 410.655 214.724 416.27 208.371C417.904 206.527 419.666 205.096 421.389 203.99C421.459 204.002 421.529 204.015 421.599 204.034C426.883 205.281 434.311 207.042 438.927 213.121C439.436 213.783 439.907 214.501 440.339 215.277Z" fill="#262626"/>
<path d="M342.334 161.467C344.47 159.571 351.911 152.348 356.546 142.936L356.826 143.076C360.33 142.453 369.729 141.251 380.463 146.841C383.655 148.5 392.024 153.015 396.57 163.196C399.203 169.091 399.559 174.668 399.318 178.655C400.322 178.515 401.365 178.42 402.446 178.382C412.614 178.026 420.144 182.617 422.802 184.283C425.854 186.203 436.951 193.179 438.878 205.859C439.297 208.613 439.196 211.093 438.928 213.121C434.312 207.042 426.884 205.281 421.6 204.034C421.53 204.015 421.46 204.003 421.39 203.99C407.12 200.683 395.063 205.522 389.639 207.78C382.739 210.66 377.226 214.457 372.953 218.171C370.6 220.212 368.622 222.234 366.994 224.059C365.742 223.194 364.692 222.641 364.196 222.38C361.926 221.178 358.778 220.047 353.742 219.818C352.788 219.773 351.364 219.741 349.405 219.938C344.807 220.384 337.285 222.069 326.124 227.703C314.405 233.623 315.727 235.289 302.449 241.909C295.658 245.298 292.453 246.291 292.586 247.829C292.809 250.278 301.209 250.513 324.744 253.941C338.207 255.905 341.87 256.758 349.004 256.109C350.372 255.982 351.783 255.855 353.22 255.67C359.134 254.926 365.379 253.355 369.913 248.224C370.466 247.594 371.916 245.953 373.08 243.607C381.709 245.343 389.079 246.29 394.771 246.837C412.824 248.592 419.489 246.914 422.35 246.062C422.363 246.055 422.376 246.055 422.388 246.049C424.926 245.292 427.819 244.427 430.623 243.143C430.305 245.814 429.511 249.012 427.666 252.198C425.93 255.193 423.692 257.457 421.301 259.174C416.417 262.697 410.904 263.988 407.737 264.726C404.22 265.546 400.882 265.794 397.836 265.692V265.718C397.429 273.323 395.706 289.367 389.55 301.03C379.363 320.329 363.312 329.353 358.359 331.948C346.709 338.04 340.89 341.092 332.687 341.334C329.139 341.435 321.934 341.13 314.742 345.194C311.206 347.197 310.214 348.812 309.775 349.887C307.518 355.362 313.056 362.172 314.742 364.245C321.743 372.856 331.059 375.895 336 377.771C350.244 383.189 351.001 387.621 364.114 396.486C363.179 401.936 362.874 406.533 362.797 410.031C362.696 414.794 363.014 417.745 363.096 418.457C363.319 420.358 363.643 423.099 364.482 426.298C355.421 433.216 332.623 448.586 303.333 450.189C278.145 451.569 259.545 443.136 244.626 436.377C239.431 434.017 233.097 431.111 226.248 427.162C214.872 420.6 202.046 411.176 190.523 396.664C184.552 389.148 162.982 361.975 164.05 325.296C164.165 321.264 165.742 314.409 168.838 302.778C170.199 297.647 171.865 291.593 173.83 284.439C185.391 242.278 191.909 231.576 199.152 223.43C204.481 217.433 214.738 206.196 228.506 205.586C233.332 205.37 234.293 206.654 237.714 205.586C247.748 202.445 246.369 189.275 257.859 172.779C261.599 167.412 267.57 158.84 278.577 153.785C288.326 149.314 297.763 149.556 305.629 149.759C311.155 149.899 318.303 150.141 326.926 153.212C333.183 155.438 338.302 158.478 342.327 161.473L342.334 161.467Z" fill="#A6C2FA"/>
<path d="M430.979 574.267C431.151 595.004 432.086 592.257 431.812 603.513C431.577 613.248 430.598 627.022 427.196 643.664L121.959 635.009C119.899 623.766 118.143 608.555 119.078 590.585C119.504 582.318 120.35 576.766 121.8 566.916C125.393 542.554 126.792 529.588 135.351 522.53C137.265 520.959 144.731 515.287 143.866 513.76C143.205 512.597 138.206 514.727 137.71 513.76C137.163 512.698 142.27 508.508 150.677 503.414C161.964 496.565 169.995 493.672 182.237 488.222C185.353 486.836 189.543 484.922 194.542 482.499C196.481 483.777 202.37 483.135 210.662 483.071C225.18 482.963 235.424 482.887 244.461 486.677C255.646 491.37 264.415 501.742 268.091 512.272C273.007 526.358 268.224 539.343 271.042 539.839C273.134 540.208 275.086 534.389 283.187 523.763C288.415 516.895 293.763 509.881 296.637 510.962C299.009 511.853 297.953 517.55 298.608 528.354C299.371 540.907 302.125 555.184 304.846 555.266C307.136 555.33 307.174 545.244 315.676 534.262C318.608 530.466 322.016 526.059 325.189 526.714C330.041 527.712 327.523 539.146 336.349 548.373C341.659 553.931 348.266 555.737 350.46 556.245C352.304 556.678 357.652 557.861 363.585 556.245C374.593 553.257 380.043 542.701 384.914 533.276C388.011 527.286 391.038 521.264 391.476 512.603C391.756 507.141 390.911 502.39 389.836 498.67C392.144 497.182 394.637 494.817 397.804 491.802C399.057 490.613 400.106 489.513 401.028 488.477C403.775 494.797 406.3 499.917 408.252 503.688C410.7 508.412 411.775 510.085 412.76 511.471C413.498 512.508 417.504 517.976 423.94 522.364C425.739 526.892 427.412 531.992 428.734 537.632C431.513 549.46 430.839 557.314 430.979 574.267Z" fill="#A6C2FA"/>
<path d="M411.54 234.609C414.134 240.58 418.725 244.09 422.35 246.062C419.489 246.914 412.824 248.592 394.771 246.837C389.079 246.29 381.709 245.343 373.08 243.607C374.174 241.407 375.026 238.583 374.65 235.397C373.996 229.795 369.932 226.081 366.994 224.059C368.622 222.234 370.6 220.212 372.953 218.17C377.226 214.457 382.739 210.66 389.639 207.78C395.063 205.522 407.12 200.683 421.39 203.99C419.667 205.096 417.905 206.527 416.271 208.371C410.656 214.724 407.393 225.089 411.54 234.609Z" fill="white"/>
<path d="M410.35 337.155C410.49 342.147 411.488 349.314 411.997 353.543C410.922 352.907 409.676 352.303 408.251 351.807C406.553 351.215 400.951 349.365 394.579 351.737C391.934 352.723 389.905 354.153 388.43 355.482C386.58 354.548 384.71 354.007 382.516 353.988C377.62 353.937 373.448 356.525 371.896 357.479C369.989 358.662 365.951 363.361 366.402 365.962C360.412 362 361.785 361.015 351.732 356.239C349.849 355.342 347.573 354.325 347.592 352.926C347.63 349.174 364.107 348.182 381.823 342.433C395.679 337.944 395.444 335.362 410.35 328.38C410.267 331.165 410.261 334.097 410.35 337.155Z" fill="#D55360"/>
<path d="M389.837 498.67C390.912 502.39 391.757 507.141 391.478 512.603C391.039 521.264 388.012 527.286 384.915 533.276C380.044 542.701 374.594 553.257 363.587 556.246C357.654 557.861 352.306 556.678 350.461 556.246C348.268 555.737 341.66 553.931 336.351 548.373C327.524 539.146 330.042 527.712 325.19 526.714C322.017 526.059 318.609 530.466 315.677 534.262C307.175 545.244 307.137 555.33 304.848 555.266C302.126 555.184 299.372 540.907 298.609 528.355C297.954 517.55 299.01 511.853 296.638 510.962C293.764 509.881 288.416 516.895 283.189 523.763C275.087 534.389 273.135 540.208 271.043 539.839C268.226 539.343 273.008 526.358 268.092 512.272C264.416 501.742 255.647 491.37 244.462 486.677C235.425 482.887 225.181 482.963 210.663 483.071C202.371 483.135 196.482 483.777 194.543 482.499C194.237 482.302 194.028 482.06 193.926 481.755C193.086 479.345 199.891 476.668 207.051 468.961C213.887 461.603 216.749 454.296 221.162 443.035C222.822 438.806 224.659 433.477 226.249 427.162C233.098 431.111 239.432 434.017 244.627 436.377C259.545 443.136 278.146 451.568 303.334 450.188C332.624 448.586 355.422 433.216 364.483 426.297C364.979 428.167 365.641 430.195 366.563 432.307C369.164 438.265 371.135 438.736 372.432 444.198C372.597 444.891 373.189 447.524 373.214 451.022C373.24 454.614 372.648 456.497 371.987 460.681C371.987 460.681 371.357 464.687 370.963 470.697C370.435 478.722 370.168 482.734 371.574 487.09C373.093 491.771 377.469 499.815 383.872 500.406C385.945 500.597 387.821 499.968 389.837 498.67Z" fill="#3A80FE"/>
<path d="M373.08 243.607C371.916 245.953 370.466 247.594 369.913 248.224C365.379 253.355 359.134 254.926 353.22 255.67L353.182 255.377C350.575 253.196 347.758 250.042 345.85 245.654C345.017 243.747 342.645 238.074 344.076 230.863C345.011 226.145 347.224 222.52 349.405 219.938C351.364 219.741 352.788 219.773 353.742 219.817C358.778 220.046 361.926 221.178 364.196 222.38C364.692 222.641 365.742 223.194 366.994 224.059C369.932 226.081 373.996 229.795 374.651 235.397C375.026 238.583 374.174 241.407 373.08 243.607Z" fill="#262626"/>
<path d="M170.715 198.572C167.885 191.901 163.071 177.752 163.237 163.253C163.326 155.661 163.593 132.056 181.468 113.741C196.508 98.3334 215.241 95.6689 222.65 94.6197C230.465 93.5068 241.721 91.6563 254.827 96.6419C269.796 102.333 274.604 109.322 277.72 114.009C278.413 110.594 280.874 100.756 289.827 92.6611C299.442 83.9618 310.297 82.9316 313.547 82.6709C330.125 81.3419 341.826 90.6516 344.636 93.0299C346.042 94.2254 363.281 109.36 360.114 131.859C359.568 135.744 358.245 139.483 356.547 142.936C351.911 152.348 344.471 159.571 342.334 161.467C338.309 158.471 333.19 155.432 326.933 153.206C318.31 150.135 311.162 149.893 305.636 149.753C297.77 149.55 288.333 149.308 278.584 153.778C267.577 158.834 261.606 167.406 257.867 172.773C246.376 189.268 247.756 202.438 237.721 205.58C234.3 206.648 233.339 205.363 228.513 205.58C214.745 206.19 204.488 217.427 199.159 223.423C191.916 231.569 185.398 242.272 173.837 284.432C171.872 291.586 170.206 297.64 168.845 302.772C166.97 305.233 150.194 326.358 129.241 326.491C125.775 326.517 115.137 326.409 105.528 318.95C93.3948 309.532 90.1453 294.016 92.0594 282.569C92.9497 277.234 94.9909 272.63 102.298 262.36C110.533 250.774 121.648 235.391 142.716 218.164C149.597 212.543 158.919 205.592 170.721 198.565L170.715 198.572Z" fill="#3A80FE"/>
<path d="M353.182 255.377L353.22 255.67C351.783 255.854 350.371 255.982 349.004 256.109C341.869 256.757 338.206 255.905 324.744 253.94C301.209 250.513 292.809 250.277 292.586 247.829C292.452 246.29 295.657 245.298 302.449 241.909C315.727 235.289 314.404 233.623 326.124 227.703C337.284 222.069 344.807 220.383 349.405 219.938C347.223 222.52 345.01 226.145 344.076 230.863C342.645 238.074 345.017 243.747 345.85 245.654C347.758 250.042 350.575 253.196 353.182 255.377Z" fill="white"/>
<path d="M364.267 274.15C363.612 274.15 362.963 273.902 362.461 273.399C361.469 272.401 361.475 270.792 362.473 269.8C366.448 265.845 369.627 260.897 371.662 255.486C372.158 254.169 373.627 253.508 374.937 253.998C376.254 254.494 376.915 255.956 376.425 257.272C374.136 263.364 370.55 268.941 366.066 273.406C365.57 273.902 364.922 274.143 364.273 274.143L364.267 274.15Z" fill="black"/>
<path d="M334.753 285.863C332.565 285.863 330.766 285.73 329.5 285.64C312.674 284.426 300.973 275.415 295.498 270.156C294.487 269.183 294.455 267.574 295.428 266.557C296.401 265.546 298.01 265.514 299.028 266.487C304.013 271.275 314.645 279.472 329.876 280.572C334.429 280.903 346.524 281.781 357.786 273.774C359.452 272.592 361.022 271.263 362.466 269.825C363.464 268.833 365.073 268.84 366.065 269.832C367.057 270.824 367.051 272.439 366.059 273.431C364.418 275.059 362.631 276.572 360.743 277.914C351.198 284.706 341.271 285.863 334.766 285.863H334.753Z" fill="black"/>
<path d="M344.616 258.869C340.489 258.869 336.623 258.29 329.799 257.266C328.178 257.024 326.385 256.757 324.375 256.459C318.143 255.549 312.922 254.862 308.725 254.309C302.671 253.508 298.672 252.98 295.943 252.389C293.985 251.963 290.335 251.174 290.049 248.065C289.794 245.133 292.344 243.925 296.974 241.731C298.233 241.133 299.657 240.459 301.311 239.632C308.032 236.281 310.926 234.227 313.724 232.237C316.401 230.329 319.173 228.364 324.979 225.432C334.219 220.765 342.359 218.069 349.156 217.407C351.28 217.191 352.857 217.229 353.862 217.274C358.441 217.484 362.104 218.387 365.391 220.129C365.887 220.39 367.057 221.007 368.444 221.96C372.017 224.421 376.431 228.695 377.181 235.098C377.556 238.303 376.946 241.546 375.362 244.739C374.059 247.365 372.45 249.196 371.839 249.89C366.549 255.88 359.28 257.476 353.538 258.195C352.164 258.373 350.823 258.493 349.525 258.614L349.239 258.64C347.573 258.792 346.079 258.862 344.622 258.862L344.616 258.869ZM296.923 247.403C299.549 247.963 304.083 248.561 309.399 249.266C313.609 249.826 318.843 250.513 325.113 251.428C327.135 251.721 328.935 251.994 330.562 252.236C339.624 253.597 343.014 254.106 348.781 253.578L349.061 253.552C350.314 253.438 351.611 253.317 352.902 253.152C358.066 252.503 363.89 251.212 368.011 246.545C368.552 245.928 369.798 244.51 370.803 242.481C371.941 240.192 372.386 237.909 372.126 235.696C371.598 231.187 368.259 228.021 365.55 226.157C364.412 225.369 363.464 224.873 363.013 224.638C361.372 223.766 358.619 222.59 353.627 222.361C352.711 222.317 351.433 222.291 349.659 222.469H349.646C343.56 223.061 335.821 225.655 327.268 229.973C321.806 232.733 319.313 234.507 316.668 236.383C313.711 238.481 310.658 240.656 303.581 244.185C301.877 245.031 300.427 245.724 299.148 246.328C298.379 246.691 297.597 247.06 296.916 247.403H296.923Z" fill="black"/>
<path d="M408.799 250.157C404.996 250.157 400.322 249.934 394.523 249.375C387.293 248.681 379.929 247.581 372.622 246.119C371.433 245.903 370.53 244.866 370.53 243.613C370.53 242.208 371.668 241.07 373.074 241.07H373.328L373.582 241.12C380.73 242.558 387.941 243.632 395.013 244.313C412.665 246.03 419.095 244.376 421.377 243.702L421.422 243.677L421.67 243.613C424.125 242.882 426.91 242.049 429.568 240.834C434.191 238.717 437.129 236.027 438.82 232.364C441.059 227.518 440.785 221.306 438.121 216.523C437.752 215.856 437.345 215.239 436.913 214.679C432.83 209.306 426.001 207.691 421.015 206.521L420.818 206.476C407.069 203.29 395.54 208.091 390.618 210.139C384.832 212.555 379.452 215.907 374.625 220.104C372.635 221.833 370.708 223.735 368.896 225.763C367.961 226.813 366.352 226.902 365.303 225.967C364.254 225.032 364.165 223.423 365.099 222.374C367.052 220.186 369.137 218.126 371.287 216.256C376.52 211.703 382.371 208.066 388.66 205.44C393.569 203.398 406.593 197.98 421.905 201.503C422.007 201.522 422.115 201.548 422.217 201.573C427.628 202.851 435.787 204.785 440.957 211.589C441.529 212.333 442.07 213.16 442.566 214.043C446.051 220.294 446.388 228.129 443.444 234.501C441.243 239.264 437.396 242.85 431.686 245.464C428.792 246.786 425.784 247.696 423.336 248.427L423.272 248.453L423.082 248.503C420.449 249.286 416.347 250.157 408.806 250.157H408.799Z" fill="black"/>
<path d="M353.182 257.921C352.603 257.921 352.024 257.724 351.554 257.33C348.012 254.366 345.309 250.78 343.522 246.672C341.163 241.267 340.514 235.785 341.589 230.374C342.467 225.941 344.444 221.884 347.471 218.304L347.617 218.145C348.609 217.153 350.225 217.147 351.217 218.145C352.177 219.105 352.209 220.631 351.325 221.63C348.883 224.536 347.287 227.811 346.581 231.366C345.71 235.741 346.257 240.211 348.19 244.643C349.659 248.026 351.891 250.983 354.822 253.432C355.897 254.335 356.043 255.937 355.14 257.012C354.638 257.616 353.913 257.921 353.188 257.921H353.182Z" fill="black"/>
<path d="M422.376 248.618C421.962 248.618 421.549 248.516 421.174 248.319C421.161 248.313 421.148 248.306 421.136 248.3C417.301 246.214 412.119 242.322 409.206 235.626C404.233 224.205 408.875 212.899 414.363 206.692C415.998 204.848 417.874 203.239 419.947 201.897C420.042 201.828 420.144 201.764 420.252 201.7C421.473 201.001 423.024 201.421 423.724 202.642C424.398 203.818 424.029 205.306 422.91 206.037L422.764 206.139C421.059 207.233 419.514 208.555 418.172 210.069C413.32 215.557 410.109 224.962 413.867 233.604C416.15 238.863 420.258 242.004 423.368 243.734L423.692 243.842L424.125 244.249C425.142 245.216 425.18 246.831 424.214 247.848C423.711 248.376 423.043 248.637 422.369 248.637L422.376 248.618ZM422.961 205.993L422.942 206.005C422.942 206.005 422.954 205.999 422.961 205.993Z" fill="black"/>
<path d="M399.115 268.261C398.663 268.261 398.205 268.255 397.754 268.236C392.221 268.064 386.651 266.786 381.195 264.446C379.35 263.651 376.756 261.641 374.664 260.02C373.856 259.396 373.023 258.748 372.692 258.544C371.497 257.8 371.134 256.236 371.879 255.04C372.623 253.845 374.187 253.482 375.382 254.226C375.929 254.57 376.705 255.168 377.78 256.001C379.439 257.285 381.951 259.231 383.204 259.772C385.016 260.554 390.536 262.926 397.913 263.155C401.041 263.256 404.151 262.958 407.159 262.252C410.218 261.539 415.33 260.35 419.813 257.113C422.16 255.428 424.061 253.343 425.467 250.926C426.859 248.516 427.75 245.801 428.099 242.844C428.265 241.451 429.53 240.453 430.929 240.618C432.322 240.783 433.32 242.049 433.155 243.441C432.722 247.085 431.616 250.456 429.873 253.47C428.106 256.516 425.721 259.129 422.789 261.241C417.486 265.069 411.521 266.455 408.316 267.205C405.315 267.905 402.224 268.261 399.115 268.261Z" fill="black"/>
<path d="M438.929 215.665C438.821 215.665 438.707 215.659 438.592 215.646C437.2 215.461 436.22 214.183 436.405 212.791C436.697 210.565 436.684 208.358 436.36 206.247C435.196 198.603 430.179 191.939 421.448 186.445C419.14 184.995 412.107 180.588 402.53 180.932C401.576 180.963 400.616 181.052 399.662 181.18C393.9 181.987 389.201 184.569 382.702 188.143C377.628 190.934 372.839 194.26 368.483 198.012C367.421 198.928 365.812 198.813 364.897 197.745C363.981 196.683 364.095 195.074 365.164 194.158C369.787 190.171 374.861 186.648 380.248 183.679C386.963 179.984 392.26 177.072 398.95 176.13C400.075 175.971 401.213 175.876 402.339 175.832C409.735 175.571 417.067 177.688 424.138 182.121C434.185 188.448 439.985 196.295 441.378 205.471C441.772 208.059 441.791 210.743 441.435 213.446C441.263 214.724 440.176 215.659 438.917 215.659L438.929 215.665Z" fill="black"/>
<path d="M294.787 224.275C294.196 224.275 293.604 224.072 293.121 223.658C292.059 222.736 291.944 221.134 292.86 220.072C294.31 218.4 295.741 216.835 297.235 215.29C306.965 205.192 319.085 192.626 336.045 190.915C340.134 190.509 346.467 190.553 353.456 193.09C367.834 198.343 371.719 206.553 372.997 209.255C374.269 211.945 375.102 214.845 375.471 217.865C375.643 219.258 374.651 220.53 373.258 220.702C371.866 220.88 370.594 219.881 370.422 218.489C370.117 216.002 369.436 213.63 368.393 211.43C364.127 202.406 355.122 199.119 351.733 197.879C345.628 195.666 340.108 195.621 336.553 195.977C321.451 197.497 310.532 208.829 300.892 218.826C299.461 220.307 298.087 221.802 296.707 223.404C296.205 223.983 295.493 224.282 294.781 224.282L294.787 224.275Z" fill="black"/>
<path d="M399.319 181.199C399.268 181.199 399.217 181.199 399.16 181.199C397.754 181.116 396.692 179.908 396.775 178.502C397.08 173.479 396.228 168.678 394.244 164.233C389.964 154.649 381.926 150.472 379.287 149.098C372.324 145.473 364.712 144.252 357.272 145.581C355.892 145.829 354.57 144.907 354.322 143.521C354.074 142.135 354.996 140.818 356.382 140.57C364.941 139.051 373.672 140.437 381.64 144.583C384.667 146.16 393.894 150.955 398.892 162.16C401.182 167.285 402.206 173.04 401.856 178.808C401.773 180.156 400.654 181.199 399.319 181.199Z" fill="black"/>
<path d="M342.335 164.01C341.635 164.01 340.936 163.724 340.433 163.152C339.498 162.102 339.6 160.493 340.649 159.559C341.533 158.77 349.444 151.597 354.271 141.804C356.019 138.249 357.139 134.784 357.603 131.496C360.547 110.568 344.802 96.4955 342.996 94.9566C339.072 91.6371 328.351 84.0189 313.757 85.1954C302.972 86.0602 295.722 90.7532 291.538 94.5369C283.793 101.538 281.122 110.053 280.219 114.504C279.939 115.884 278.597 116.768 277.217 116.488C275.837 116.209 274.954 114.867 275.233 113.487C276.263 108.425 279.303 98.7402 288.13 90.7596C292.893 86.4481 301.14 81.1001 313.35 80.1208C329.833 78.8045 341.877 87.3384 346.284 91.0712C348.312 92.7945 365.965 108.571 362.639 132.195C362.099 136.017 360.82 139.998 358.836 144.042C353.584 154.7 344.993 162.497 344.026 163.355C343.543 163.787 342.939 163.997 342.341 163.997L342.335 164.01Z" fill="black"/>
<path d="M170.714 201.115C169.722 201.115 168.78 200.53 168.373 199.564C166.523 195.208 160.507 179.704 160.692 163.222C160.787 155.241 161.067 130.994 179.648 111.961C195.304 95.9233 214.909 93.1443 222.292 92.0951L223.081 91.9806C230.794 90.8741 242.451 89.2017 255.735 94.2572C271.683 100.317 276.79 108.006 279.842 112.59C280.618 113.761 280.3 115.338 279.13 116.12C277.96 116.896 276.383 116.578 275.601 115.408C272.714 111.064 268.345 104.495 253.922 99.0074C241.866 94.4225 231.424 95.9169 223.799 97.0107L223.004 97.1251C197.727 100.705 187.235 111.459 183.286 115.503C166.129 133.079 165.868 155.794 165.779 163.253C165.601 178.757 171.305 193.434 173.054 197.561C173.601 198.852 172.997 200.346 171.706 200.899C171.381 201.039 171.044 201.103 170.714 201.103V201.115Z" fill="black"/>
<path d="M128.872 329.041C119.244 329.041 110.869 326.326 103.963 320.965C90.3038 310.365 87.6584 293.437 89.5407 282.156C90.5709 275.962 93.1654 270.798 100.218 260.891C107.829 250.182 119.333 233.998 141.1 216.199C149.952 208.963 159.478 202.298 169.417 196.384C172.482 194.566 175.605 192.804 178.702 191.138C179.942 190.47 181.481 190.941 182.148 192.174C182.81 193.415 182.345 194.953 181.112 195.621C178.078 197.249 175.026 198.972 172.025 200.753C162.308 206.54 152.992 213.058 144.331 220.135C123.091 237.502 111.829 253.349 104.376 263.835C97.0826 274.092 95.3529 278.334 94.5708 282.989C92.9174 292.884 95.2003 307.713 107.092 316.94C113.165 321.652 120.624 324.005 129.228 323.948C149.043 323.821 165.068 303.541 166.829 301.233C167.681 300.114 169.277 299.898 170.397 300.75C171.516 301.602 171.732 303.198 170.88 304.317C168.966 306.835 151.51 328.895 129.266 329.041C129.139 329.041 129.012 329.041 128.891 329.041H128.872Z" fill="black"/>
<path d="M297.852 452.885C274.89 452.885 257.65 445.069 243.59 438.698C237.568 435.963 231.629 433.197 224.977 429.362C210.402 420.956 198.485 410.775 188.533 398.241C169.876 374.75 160.782 350.185 161.507 325.219C161.634 320.73 163.389 313.347 166.378 302.123L166.887 300.235C168.063 295.847 169.443 290.817 171.007 285.113L171.376 283.758C183.446 239.734 190.237 229.623 197.251 221.732C202.453 215.881 213.27 203.71 228.392 203.036C230.694 202.934 232.207 203.138 233.428 203.303C234.834 203.494 235.54 203.589 236.951 203.15C241.326 201.777 242.942 198.139 245.892 190.693C248.022 185.319 250.668 178.636 255.768 171.317C259.545 165.892 265.872 156.812 277.51 151.464C287.799 146.745 297.719 147.006 305.687 147.209C310.819 147.336 318.583 147.534 327.772 150.809C333.476 152.837 338.881 155.737 343.841 159.425C346.417 161.339 348.884 163.482 351.18 165.803C352.165 166.802 352.159 168.41 351.161 169.403C350.162 170.388 348.553 170.382 347.561 169.383C345.45 167.247 343.174 165.275 340.808 163.514C336.255 160.125 331.301 157.466 326.074 155.61C317.648 152.608 310.666 152.43 305.566 152.303C297.732 152.099 288.854 151.87 279.64 156.099C269.262 160.869 263.66 168.913 259.946 174.235C255.189 181.065 252.658 187.45 250.623 192.575C247.685 199.996 245.358 205.859 238.471 208.015C235.978 208.791 234.408 208.581 232.742 208.358C231.622 208.206 230.459 208.047 228.615 208.129C215.636 208.702 205.785 219.792 201.048 225.121C194.466 232.523 188.056 242.144 176.279 285.113L175.91 286.467C174.155 292.852 172.635 298.384 171.383 303.109V305.322H170.791C168.26 314.905 166.696 321.633 166.588 325.372C165.895 349.111 174.619 372.563 192.508 395.087C202.059 407.112 213.505 416.886 227.514 424.962C233.963 428.682 239.781 431.391 245.676 434.062C260.365 440.72 278.629 448.993 303.194 447.651C330.5 446.157 352.343 432.364 362.938 424.275C364.057 423.423 365.653 423.639 366.505 424.752C367.357 425.871 367.141 427.467 366.028 428.32C354.97 436.764 332.141 451.161 303.474 452.726C301.566 452.827 299.69 452.878 297.852 452.878V452.885Z" fill="black"/>
<path d="M289.643 307.064C288.536 307.064 287.512 306.333 287.194 305.214C286.813 303.866 287.595 302.454 288.943 302.072C289.84 301.818 311.581 295.605 316.23 294.276C327.568 291.039 332.738 289.558 339.587 286.442C345.412 283.79 355.904 277.246 361.704 270.677V270.563L362.461 269.8C363.453 268.808 365.061 268.808 366.06 269.8C366.619 270.36 366.867 271.116 366.791 271.848V272.534L366.206 273.24C359.701 281.062 347.72 288.324 341.698 291.065C334.506 294.34 329.215 295.847 317.629 299.16C312.98 300.489 291.226 306.702 290.329 306.956C290.094 307.02 289.865 307.052 289.636 307.052L289.643 307.064Z" fill="black"/>
<path d="M447.703 533.041C437.745 533.041 428.524 528.227 424.136 525.525C423.57 525.175 423.036 524.825 422.508 524.469C415.978 520.018 411.806 514.524 410.687 512.947C409.51 511.287 408.366 509.436 405.994 504.858C403.431 499.91 400.977 494.74 398.694 489.488C398.134 488.197 398.725 486.703 400.01 486.143C401.301 485.577 402.795 486.175 403.355 487.459C405.593 492.604 407.997 497.672 410.502 502.518C412.97 507.281 413.955 508.775 414.827 509.996C415.825 511.401 419.539 516.285 425.364 520.26C425.828 520.578 426.305 520.889 426.801 521.194C443.322 531.363 454.158 527.541 458.056 525.423C466.202 520.991 469.082 512.018 470.164 508.641C474.659 494.639 469.121 481.564 466.761 475.981C463.137 467.441 459.092 462.99 455.175 458.684C450.647 453.705 446.374 449.006 443.697 439.187C441.662 431.696 441.675 425.166 441.91 416.759C441.942 415.385 443.067 414.279 444.454 414.279C445.84 414.279 446.997 415.417 446.997 416.822V416.899C446.762 425.121 446.749 431.029 448.606 437.858C450.959 446.494 454.654 450.557 458.933 455.263C462.94 459.67 467.48 464.662 471.442 473.997C474.03 480.102 480.084 494.397 475.009 510.193C473.756 514.098 470.424 524.482 460.485 529.887C456.301 532.164 451.932 533.035 447.697 533.035L447.703 533.041Z" fill="black"/>
<path d="M423.553 423.919C405.652 423.919 389.328 414.431 370.906 403.723C367.879 401.961 365.196 400.289 362.69 398.591C357.787 395.278 354.601 392.588 351.791 390.222C347.11 386.28 343.734 383.431 335.098 380.15L334.049 379.755C328.694 377.758 319.734 374.414 312.771 365.848C310.749 363.355 304.593 355.788 307.429 348.914C307.995 347.521 309.248 345.384 313.496 342.974C320.561 338.981 327.696 338.866 331.53 338.809C331.925 338.803 332.287 338.796 332.624 338.79C340.223 338.567 345.864 335.617 357.107 329.735L357.189 329.69C364.604 325.805 378.378 316.762 387.312 299.84C393.678 287.784 395.039 270.57 395.306 265.578C395.382 264.172 396.578 263.11 397.983 263.174C399.388 263.25 400.463 264.446 400.387 265.851C400.024 272.579 398.473 289.596 391.808 302.212C382.232 320.355 367.485 330.04 359.549 334.199L359.466 334.243C347.53 340.481 341.54 343.616 332.77 343.877C332.414 343.89 332.033 343.896 331.613 343.903C327.995 343.96 321.941 344.062 316.002 347.413C312.803 349.225 312.301 350.453 312.142 350.853C311.372 352.716 311.544 356.271 316.726 362.643C322.818 370.134 330.964 373.174 335.836 374.992C336.217 375.132 336.573 375.266 336.917 375.399C346.36 378.992 350.207 382.235 355.078 386.337C357.794 388.626 360.871 391.221 365.552 394.381C367.962 396.009 370.543 397.624 373.45 399.309C394.587 411.595 412.825 422.19 433.2 417.795C435.553 417.293 439.247 416.307 443.47 414.489C451.679 410.959 458.013 406.012 462.28 399.793C464.429 396.658 465.04 394.712 466.515 390.012C467.825 385.828 469.739 379.736 473.892 369.301C471.672 371.806 469.033 374.375 465.917 376.747C464.41 377.898 462.789 378.992 461.11 380.003C457.689 382.045 454.051 383.704 449.975 385.091C446.382 386.305 443.158 387.055 440.57 387.653L440.385 387.698C428.494 390.439 418.65 389.803 414.968 389.402C403.852 388.213 394.727 383.641 376.559 374.522C371.516 371.991 367.745 369.886 365.017 368.08C362.741 366.573 361.444 365.454 360.299 364.468C358.347 362.783 356.808 361.454 350.659 358.535L350.411 358.42C348.013 357.282 345.024 355.864 345.069 352.894C345.113 348.678 350.442 347.502 361.056 345.168C366.76 343.915 373.863 342.351 381.055 340.017C388.864 337.486 391.942 335.642 396.196 333.092C399.363 331.191 402.956 329.041 409.289 326.078C410.771 325.385 412.208 324.73 413.677 324.094C424.507 319.344 435.483 315.56 446.287 312.858C452.156 311.389 461.072 309.481 470.248 308.711C487.615 307.262 499.194 308.33 504.689 311.866C508.612 314.403 510.514 314.873 514.838 315.859C512.002 311.064 503.506 300.578 492.021 291.116C474.197 276.426 455.825 270.709 444.85 267.288C437.072 264.865 429.034 262.983 420.952 261.686C419.718 261.508 418.765 260.452 418.765 259.168C418.765 257.762 419.903 256.624 421.308 256.624L421.715 256.656C430.052 257.991 438.344 259.931 446.363 262.43C457.695 265.959 476.658 271.86 495.252 287.186C506.717 296.635 520.427 312.012 520.917 317.671C521.032 318.988 520.555 319.853 520.135 320.342C518.749 321.957 516.784 321.512 514.056 320.895C509.305 319.814 506.698 319.223 501.916 316.132C499.372 314.492 491.926 311.999 470.667 313.773C461.822 314.511 453.193 316.361 447.508 317.786C436.977 320.425 426.281 324.113 415.699 328.749C414.269 329.372 412.876 330.002 411.432 330.682C405.334 333.537 401.862 335.617 398.797 337.455C394.422 340.074 390.969 342.148 382.613 344.85C375.179 347.26 367.949 348.85 362.137 350.128C357.876 351.063 353.158 352.106 350.983 353.022C351.523 353.314 352.153 353.613 352.585 353.823L352.833 353.944C359.599 357.155 361.552 358.84 363.612 360.621C364.693 361.549 365.806 362.516 367.815 363.845C370.372 365.536 373.977 367.539 378.836 369.981C396.457 378.82 405.302 383.259 415.509 384.353C418.936 384.728 428.1 385.319 439.234 382.75L439.413 382.706C441.893 382.127 444.983 381.415 448.341 380.277C452.073 379.011 455.393 377.498 458.496 375.641C460.016 374.732 461.479 373.74 462.839 372.703C470.528 366.846 475.119 359.533 477.586 355.603C479.386 352.735 480.804 350.472 483.252 351.788C485.98 353.251 484.804 356.106 480.906 365.562L480.257 367.132C475.011 379.921 472.823 386.909 471.367 391.532C469.873 396.289 469.052 398.902 466.47 402.667C461.65 409.694 454.585 415.239 445.473 419.156C440.869 421.134 436.837 422.209 434.262 422.762C430.618 423.55 427.057 423.913 423.559 423.913L423.553 423.919Z" fill="black"/>
<path d="M384.609 502.988C384.291 502.988 383.967 502.975 383.643 502.944C375.834 502.225 370.867 493.138 369.157 487.879C367.605 483.065 367.898 478.627 368.425 470.576C368.826 464.478 369.449 460.459 369.475 460.287C369.659 459.123 369.837 458.137 369.996 457.247C370.409 454.945 370.689 453.419 370.67 451.041C370.651 448.007 370.161 445.661 369.958 444.79C369.316 442.087 368.521 440.853 367.414 439.143C366.53 437.769 365.424 436.065 364.228 433.324C363.345 431.302 362.62 429.216 362.022 426.946C361.132 423.544 360.788 420.657 360.566 418.749C360.438 417.649 360.152 414.59 360.248 409.974C360.349 405.389 360.801 400.702 361.602 396.054C361.837 394.667 363.154 393.739 364.54 393.974C365.926 394.209 366.855 395.526 366.619 396.912C365.863 401.313 365.437 405.745 365.341 410.082C365.252 414.381 365.507 417.166 365.621 418.158C365.825 419.926 366.143 422.596 366.944 425.649C367.478 427.652 368.114 429.502 368.896 431.289C369.926 433.649 370.823 435.041 371.694 436.383C372.915 438.272 374.072 440.059 374.912 443.613C375.16 444.65 375.738 447.448 375.764 451.003C375.783 453.858 375.44 455.753 375.007 458.15C374.854 459.015 374.683 459.963 374.505 461.075C374.505 461.114 373.888 465.056 373.506 470.862C372.985 478.811 372.743 482.423 374.002 486.308C375.433 490.709 379.306 497.43 384.113 497.876C385.506 498.003 386.81 497.602 388.469 496.534C390.6 495.16 393.131 492.75 396.062 489.965C397.162 488.922 398.167 487.885 399.14 486.792C400.265 485.532 401.194 484.375 402.097 483.256C404.329 480.49 406.434 477.87 410.472 474.983C413.162 473.056 416.093 471.441 419.19 470.188C420.494 469.66 421.975 470.29 422.503 471.587C423.031 472.891 422.408 474.372 421.104 474.9C418.376 476.007 415.794 477.425 413.429 479.123C409.957 481.609 408.233 483.746 406.052 486.448C405.111 487.618 404.138 488.827 402.93 490.175C401.868 491.37 400.761 492.508 399.56 493.653C396.316 496.737 393.754 499.179 391.216 500.813C388.927 502.289 386.803 502.988 384.609 502.988Z" fill="black"/>
<path d="M459.786 380.372C459.385 380.372 458.978 380.276 458.596 380.073C456.161 378.782 448.721 373.377 445.274 370.229C442.362 367.577 435.526 361.371 433.128 351.476C430.591 341.041 434.464 332.24 437.026 326.421C439.036 321.855 441.694 317.576 444.937 313.69C445.84 312.609 447.443 312.469 448.517 313.366C449.598 314.269 449.738 315.872 448.842 316.946C445.904 320.463 443.5 324.342 441.681 328.469C439.258 333.976 435.939 341.511 438.076 350.274C440.11 358.656 446.133 364.131 448.702 366.471C451.799 369.294 458.876 374.464 460.981 375.583C462.221 376.238 462.698 377.784 462.037 379.024C461.579 379.889 460.701 380.378 459.786 380.378V380.372Z" fill="black"/>
<path d="M411.992 356.087C410.72 356.087 409.626 355.139 409.467 353.848C409.378 353.123 409.276 352.316 409.168 351.444C408.641 347.241 407.922 341.486 407.801 337.232C407.712 334.249 407.712 331.242 407.801 328.31C407.839 326.905 409.035 325.811 410.421 325.843C411.826 325.887 412.927 327.057 412.888 328.463C412.806 331.299 412.806 334.205 412.888 337.092C413.003 341.105 413.702 346.72 414.217 350.821C414.326 351.699 414.427 352.519 414.516 353.25C414.682 354.643 413.69 355.915 412.297 356.08C412.195 356.093 412.094 356.099 411.992 356.099V356.087Z" fill="black"/>
<path d="M404.914 372.582C404.126 372.582 403.35 372.22 402.854 371.533C400.215 367.889 397.124 364.716 393.665 362.102C391.287 360.296 389.233 358.738 387.281 357.753C385.64 356.926 384.165 356.544 382.492 356.532C382.454 356.532 382.416 356.532 382.378 356.532C378.295 356.532 374.645 358.776 373.265 359.622C371.542 360.691 368.833 364.385 368.909 365.549C369.151 366.935 368.222 368.239 366.836 368.48C365.45 368.722 364.133 367.781 363.892 366.401C363.129 362.013 368.687 356.481 370.55 355.323C372.33 354.23 376.953 351.368 382.537 351.451C384.991 351.47 387.23 352.036 389.57 353.219C391.935 354.414 394.155 356.099 396.73 358.051C400.584 360.97 404.024 364.5 406.962 368.55C407.789 369.689 407.534 371.278 406.396 372.105C405.944 372.429 405.423 372.588 404.908 372.588L404.914 372.582Z" fill="black"/>
<path d="M449.141 385.23C448.83 385.23 448.512 385.173 448.2 385.052C445.218 383.863 436.474 378.757 432.627 376.347C429.415 374.337 425.771 372.061 422.115 368.175C419.997 365.924 418.993 364.328 418.096 362.916C417.174 361.46 416.449 360.309 414.529 358.611C413.619 357.816 412.366 356.716 410.707 355.737C409.67 355.126 408.564 354.611 407.419 354.211C402.217 352.398 398.052 353.161 395.47 354.122C393.537 354.84 391.757 355.921 390.18 357.333C389.181 358.293 387.598 358.281 386.618 357.295C385.646 356.316 385.626 354.745 386.568 353.753L386.727 353.594C388.793 351.731 391.133 350.306 393.69 349.352C397.054 348.1 402.453 347.095 409.085 349.403C410.554 349.912 411.966 350.567 413.289 351.349C415.362 352.57 416.881 353.905 417.886 354.789C420.36 356.977 421.396 358.611 422.395 360.195C423.202 361.473 424.035 362.796 425.816 364.691C429.015 368.099 432.22 370.096 435.31 372.035C439.596 374.712 447.679 379.374 450.07 380.328C451.373 380.849 452.015 382.324 451.494 383.628C451.1 384.626 450.139 385.23 449.128 385.23H449.141Z" fill="black"/>
<path d="M357.264 559.616C354.88 559.616 352.406 559.317 349.875 558.726C346.441 557.931 339.878 555.756 334.505 550.134C329.259 544.646 327.688 538.529 326.543 534.065C326.035 532.075 325.335 529.346 324.674 529.213C323.04 528.876 319.428 533.569 317.685 535.826C312.922 541.976 310.964 547.832 309.666 551.699C308.509 555.158 307.6 557.88 304.77 557.816C301.934 557.733 300.179 554.707 298.5 547.037C297.342 541.74 296.452 534.993 296.064 528.52C295.848 524.978 295.816 521.964 295.791 519.541C295.765 517.29 295.734 514.797 295.505 513.608C293.152 514.88 288.052 521.582 285.209 525.315C281.788 529.804 279.473 533.429 277.788 536.074C274.997 540.449 273.458 542.853 270.596 542.351C267.207 541.753 267.423 537.919 267.677 533.48C267.963 528.469 268.402 520.895 265.687 513.112C262.018 502.6 253.299 493.144 243.475 489.023C234.922 485.437 224.753 485.513 210.681 485.615C208.525 485.634 206.496 485.691 204.709 485.736C198.802 485.901 195.241 486.003 193.142 484.623C192.36 484.121 191.794 483.402 191.514 482.556C190.465 479.555 193.168 477.469 196.589 474.824C199.024 472.941 202.051 470.601 205.186 467.231C211.692 460.229 214.363 453.413 218.788 442.125C220.773 437.063 222.451 431.83 223.78 426.545C224.124 425.184 225.504 424.351 226.871 424.701C228.232 425.045 229.058 426.424 228.715 427.792C227.335 433.28 225.586 438.723 223.526 443.969C219.036 455.428 216.073 462.989 208.913 470.697C205.492 474.378 202.147 476.967 199.698 478.855C198.942 479.44 198.083 480.102 197.416 480.668C199.158 480.814 201.988 480.731 204.563 480.661C206.376 480.61 208.43 480.553 210.636 480.534C225.319 480.426 235.92 480.343 245.439 484.337C256.701 489.062 266.304 499.446 270.488 511.439C273.54 520.177 273.07 528.361 272.758 533.772C272.745 534.027 272.726 534.294 272.714 534.561C272.974 534.16 273.235 533.747 273.496 533.34C275.232 530.618 277.61 526.885 281.159 522.231C288.421 512.692 293.101 506.931 297.527 508.59C300.764 509.805 300.808 513.449 300.872 519.484C300.897 521.849 300.935 524.8 301.139 528.215C301.743 538.109 303.339 546.478 304.681 550.56C304.732 550.401 304.789 550.242 304.84 550.09C306.162 546.147 308.369 539.553 313.66 532.717C317.081 528.284 320.966 523.254 325.698 524.234C329.475 525.01 330.442 528.8 331.472 532.806C332.534 536.946 333.856 542.103 338.181 546.624C342.638 551.292 348.145 553.11 351.026 553.778C355.293 554.776 359.286 554.783 362.911 553.804C372.831 551.107 377.817 541.467 382.637 532.144C385.53 526.548 388.506 520.787 388.933 512.488C389.155 508.12 388.64 503.713 387.387 499.389C386.999 498.041 387.775 496.629 389.123 496.241C390.471 495.853 391.883 496.629 392.271 497.977C393.676 502.842 394.261 507.815 394.007 512.749C393.53 522.142 390.147 528.685 387.165 534.459C382.077 544.303 376.322 555.438 364.24 558.713C362.008 559.323 359.668 559.628 357.251 559.628L357.264 559.616Z" fill="black"/>
<path d="M429.263 646.271L427.127 646.208L119.83 637.496L119.461 635.467C116.739 620.631 115.76 605.484 116.542 590.451C116.962 582.35 117.782 576.773 119.143 567.539L119.931 562.153C123.168 540.004 124.949 527.808 133.737 520.558C133.972 520.361 134.284 520.113 134.653 519.821C136.338 518.473 137.616 517.398 138.595 516.539C137.317 516.552 136.128 516.234 135.454 514.911C134.195 512.463 136.637 510.206 139.25 508.107C141.718 506.123 145.215 503.745 149.368 501.227C158.264 495.828 165.342 492.775 173.532 489.24C175.961 488.191 178.467 487.109 181.208 485.889C185.201 484.114 189.315 482.2 193.436 480.197C194.702 479.587 196.221 480.114 196.832 481.374C197.442 482.639 196.915 484.159 195.655 484.769C191.484 486.792 187.319 488.731 183.274 490.524C180.508 491.758 177.984 492.845 175.548 493.901C167.199 497.507 160.604 500.349 152 505.57C148.369 507.77 145.743 509.557 143.892 510.937C144.776 511.109 145.559 511.554 146.086 512.482C147.663 515.268 144.948 518.097 137.839 523.782C137.489 524.062 137.196 524.297 136.974 524.476C129.705 530.466 128.02 541.982 124.968 562.872L124.179 568.264C122.844 577.351 122.03 582.833 121.629 590.693C120.904 604.651 121.737 618.705 124.109 632.504L425.13 641.038C427.585 628.453 428.977 615.811 429.276 603.43C429.403 598.158 429.27 596.111 429.06 593.008C428.837 589.688 428.532 585.148 428.443 574.267C428.418 570.999 428.418 568.061 428.424 565.377C428.437 554.204 428.443 547.457 426.268 538.192C425.079 533.124 423.502 528.113 421.588 523.28C421.066 521.976 421.709 520.495 423.012 519.98C424.322 519.458 425.798 520.1 426.313 521.404C428.322 526.466 429.976 531.725 431.222 537.028C433.53 546.866 433.524 554.23 433.511 565.377C433.511 568.054 433.511 570.967 433.53 574.223C433.619 584.957 433.918 589.415 434.134 592.664C434.344 595.786 434.497 598.044 434.363 603.551C434.039 616.924 432.468 630.583 429.696 644.147L429.27 646.24L429.263 646.271Z" fill="black"/>
<path d="M520.911 317.684C520.421 312.024 506.711 296.648 495.245 287.199C476.664 271.886 457.688 265.972 446.35 262.443C440.004 260.465 433.473 258.843 426.879 257.584C427.972 256.376 428.983 255.015 429.874 253.476C431.4 250.844 432.43 247.937 432.958 244.834C437.129 242.704 441.104 239.556 443.444 234.501C446.388 228.135 446.051 220.294 442.566 214.043C442.248 213.471 441.911 212.931 441.555 212.416C441.784 210.082 441.74 207.754 441.396 205.484C440.004 196.308 434.204 188.454 424.157 182.14C417.098 177.708 409.76 175.584 402.364 175.851C402.212 175.851 402.065 175.87 401.913 175.876C401.83 171.088 400.825 166.49 398.899 162.166C393.894 150.968 384.673 146.166 381.646 144.596C374.976 141.124 367.764 139.598 360.572 140.081C361.526 137.569 362.257 134.936 362.639 132.227C365.965 108.565 348.312 92.8264 346.283 91.1094C341.876 87.3766 329.851 78.8364 313.35 80.1527C301.14 81.132 292.892 86.48 288.123 90.7915C281.802 96.5083 278.451 103.096 276.683 108.241C273.173 103.936 267.31 98.6895 255.736 94.2826C242.452 89.2271 230.802 90.8996 223.089 92.006L222.294 92.1205C214.911 93.1698 195.299 95.955 179.65 111.993C161.068 131.032 160.788 155.279 160.699 163.247C160.534 177.758 165.17 191.494 167.548 197.554C158.264 203.195 149.406 209.446 141.107 216.231C119.353 234.024 107.843 250.208 100.224 260.916C93.1785 270.824 90.584 275.994 89.5475 282.181C87.6588 293.456 90.3042 310.384 103.97 320.991C110.876 326.352 119.27 329.073 128.929 329.073C129.037 329.073 129.152 329.073 129.26 329.073C143.867 328.978 156.388 319.458 163.815 312.203C162.359 318.231 161.596 322.377 161.513 325.251C160.788 350.211 169.882 374.776 188.54 398.273C199.725 412.358 212.284 421.821 223.298 428.39C222.046 433.057 220.545 437.674 218.802 442.132C214.37 453.432 211.699 460.255 205.194 467.25C202.059 470.62 199.032 472.967 196.597 474.843C193.709 477.075 191.344 478.913 191.306 481.253C187.935 482.862 184.61 484.401 181.201 485.92C178.448 487.148 175.929 488.235 173.488 489.291C165.31 492.82 158.245 495.872 149.355 501.259C145.209 503.777 141.711 506.155 139.244 508.139C136.63 510.238 134.188 512.495 135.447 514.943C136.128 516.266 137.323 516.578 138.595 516.571C137.565 517.481 136.261 518.562 134.697 519.814C134.309 520.126 133.978 520.393 133.737 520.59C124.955 527.827 123.168 540.017 119.938 562.141L119.175 567.336C117.795 576.671 116.968 582.305 116.542 590.47C115.76 605.51 116.745 620.657 119.467 635.493L119.836 637.515L427.127 646.227L429.263 646.29L429.689 644.198C432.462 630.628 434.033 616.962 434.357 603.595C434.49 598.089 434.338 595.837 434.134 592.715C433.918 589.459 433.619 585.008 433.53 574.267C433.505 571.024 433.505 568.118 433.511 565.447C433.524 554.293 433.53 546.917 431.222 537.073C430.51 534.046 429.664 531.038 428.697 528.068C433.587 530.504 440.442 533.067 447.705 533.067C451.94 533.067 456.308 532.196 460.499 529.919C470.432 524.52 473.771 514.136 475.023 510.225C477.179 503.516 477.548 496.254 476.117 488.636C474.896 482.137 472.664 476.859 471.462 474.029C467.5 464.687 462.96 459.695 458.954 455.289C454.674 450.583 450.973 446.513 448.627 437.877C446.891 431.493 446.789 425.929 446.973 418.539C453.625 415.474 461.09 410.54 466.477 402.699C469.058 398.934 469.885 396.314 471.379 391.558C472.829 386.935 475.023 379.952 480.263 367.171L480.918 365.574C484.81 356.138 485.98 353.289 483.258 351.82C480.81 350.503 479.392 352.767 477.592 355.635C475.125 359.565 470.534 366.884 462.839 372.741C461.822 373.517 460.798 374.223 459.781 374.878C456.913 373.04 451.367 368.919 448.716 366.509C446.14 364.169 440.118 358.681 438.083 350.313C435.953 341.556 439.272 334.014 441.695 328.507C443.406 324.622 445.644 320.959 448.353 317.608C458.083 315.223 465.739 314.225 470.674 313.811C491.932 312.037 499.379 314.53 501.929 316.177C506.717 319.267 509.324 319.859 514.062 320.934C516.79 321.55 518.761 322.002 520.147 320.387C520.567 319.897 521.044 319.039 520.93 317.716L520.911 317.684ZM438.821 232.358C435.711 239.092 428.653 241.508 422.662 243.314C419.661 241.521 415.992 238.475 413.868 233.598C410.11 224.956 413.321 215.551 418.173 210.063C419.273 208.816 420.526 207.703 421.899 206.724C427.4 208.041 434.484 210.012 438.115 216.517C440.78 221.299 441.053 227.518 438.815 232.358H438.821ZM343.517 246.672C344.617 249.209 346.073 251.543 347.86 253.654C342.652 254.042 339.168 253.521 330.646 252.249C328.999 252.001 327.168 251.727 325.108 251.429C318.85 250.519 313.617 249.826 309.407 249.267C304.084 248.561 299.538 247.963 296.911 247.403C297.598 247.066 298.374 246.697 299.143 246.335C300.422 245.731 301.878 245.044 303.582 244.192C310.653 240.669 313.706 238.494 316.663 236.396C319.308 234.52 321.801 232.739 327.263 229.986C333.463 226.857 339.053 224.682 344 223.474C342.875 225.655 342.055 227.957 341.571 230.374C340.503 235.773 341.152 241.26 343.511 246.678L343.517 246.672ZM354.289 252.961C351.619 250.602 349.558 247.81 348.178 244.643C346.245 240.192 345.698 235.722 346.563 231.359C347.205 228.11 348.604 225.102 350.703 222.393C351.714 222.329 352.687 222.317 353.622 222.361C358.607 222.59 361.367 223.767 363.008 224.631C368.388 227.474 371.624 231.404 372.12 235.696C372.413 238.189 371.93 242.093 368.006 246.538C364.337 250.697 359.224 252.217 354.289 252.961ZM377.176 235.105C376.68 230.863 374.441 226.972 370.747 223.76C371.987 222.482 373.271 221.261 374.594 220.11C374.613 220.091 374.632 220.078 374.651 220.059C379.459 215.888 384.8 212.555 390.625 210.133C394.892 208.352 404.094 204.518 415.413 205.592C415.057 205.955 414.701 206.311 414.37 206.692C408.882 212.899 404.24 224.205 409.207 235.626C410.917 239.563 413.41 242.52 415.954 244.72C411.89 245.159 405.391 245.311 395.019 244.306C388.902 243.715 382.715 242.818 376.578 241.68C377.335 239.13 377.386 236.879 377.182 235.105H377.176ZM154.626 313.512C145.984 320.393 137.438 323.91 129.222 323.961C129.12 323.961 129.025 323.961 128.923 323.961C120.427 323.961 113.076 321.601 107.086 316.946C95.1944 307.713 92.9051 292.89 94.5584 282.995C95.3406 278.34 97.0703 274.099 104.364 263.842C111.823 253.355 123.092 237.502 144.325 220.142C155.638 210.889 168.012 202.642 181.106 195.621C182.346 194.96 182.81 193.415 182.149 192.175C181.487 190.935 179.942 190.47 178.702 191.132C176.438 192.346 174.206 193.605 171.987 194.89C169.672 188.823 165.64 176.34 165.787 163.272C165.869 155.807 166.13 133.092 183.293 115.516C197.735 100.718 215.445 98.2062 223.012 97.1315L223.813 97.017C231.438 95.9233 241.88 94.4289 253.93 99.0138C268.353 104.502 272.721 111.064 275.608 115.408C275.621 115.427 275.64 115.446 275.653 115.465C275.736 115.579 275.825 115.694 275.926 115.795C275.977 115.846 276.034 115.884 276.092 115.935C276.162 115.999 276.232 116.063 276.308 116.113C276.378 116.158 276.454 116.196 276.53 116.234C276.6 116.272 276.67 116.317 276.747 116.349C276.874 116.4 277.007 116.438 277.147 116.469C277.173 116.476 277.198 116.489 277.224 116.495C277.389 116.527 277.554 116.546 277.72 116.546C277.789 116.546 277.859 116.533 277.929 116.527C278.025 116.52 278.12 116.514 278.216 116.495C278.298 116.476 278.375 116.45 278.451 116.425C278.534 116.4 278.616 116.387 278.692 116.349C278.845 116.285 278.991 116.209 279.131 116.113C279.163 116.094 279.188 116.069 279.214 116.043C279.316 115.967 279.424 115.891 279.513 115.795C279.57 115.738 279.615 115.668 279.672 115.611C279.723 115.547 279.786 115.484 279.831 115.414C279.882 115.338 279.92 115.255 279.964 115.172C279.996 115.109 280.041 115.045 280.066 114.975C280.123 114.842 280.161 114.708 280.193 114.568C280.193 114.543 280.212 114.524 280.212 114.498C281.115 110.047 283.792 101.532 291.538 94.5306C295.722 90.7469 302.972 86.0539 313.757 85.1891C328.37 84.019 339.072 91.6309 342.996 94.9567C343.714 95.5671 360.604 110.168 357.603 131.49C355.905 143.578 345.94 154.402 342.118 158.16C337.673 155.076 332.885 152.608 327.791 150.796C318.609 147.527 310.844 147.33 305.706 147.197C297.732 146.993 287.811 146.739 277.529 151.457C265.892 156.799 259.564 165.88 255.781 171.31C250.687 178.623 248.035 185.313 245.905 190.687C242.954 198.133 241.339 201.777 236.964 203.144C235.552 203.589 234.847 203.494 233.435 203.297C232.22 203.131 230.7 202.928 228.405 203.03C213.283 203.697 202.466 215.875 197.264 221.725C190.25 229.617 183.465 239.728 171.389 283.752C169.494 290.664 167.872 296.565 166.531 301.608C165.214 303.293 160.941 308.482 154.633 313.5L154.626 313.512ZM192.514 395.087C174.626 372.557 165.901 349.098 166.588 325.372C166.696 321.569 168.254 314.848 171.3 303.421C171.3 303.414 171.3 303.402 171.306 303.395C172.667 298.289 174.321 292.248 176.286 285.106C188.069 242.144 194.479 232.517 201.061 225.115C205.798 219.786 215.655 208.695 228.627 208.123C230.471 208.04 231.629 208.199 232.754 208.352C234.42 208.581 235.991 208.791 238.484 208.009C245.371 205.853 247.698 199.99 250.636 192.569C252.671 187.443 255.196 181.059 259.959 174.229C263.666 168.907 269.275 160.856 279.653 156.093C288.861 151.864 297.744 152.093 305.579 152.297C310.679 152.43 317.674 152.608 326.087 155.603C331.371 157.486 336.3 160.137 340.821 163.508C340.84 163.52 340.853 163.533 340.872 163.546C343.218 165.301 345.457 167.247 347.574 169.384C348.56 170.382 350.175 170.388 351.173 169.403C352.172 168.417 352.178 166.802 351.193 165.803C349.596 164.195 347.943 162.687 346.226 161.276C349.183 158.319 354.321 152.615 358.124 145.442C363.319 144.653 370.963 144.755 379.293 149.092C381.932 150.465 389.97 154.65 394.25 164.226C395.973 168.08 396.838 172.207 396.838 176.512C391.077 177.733 386.142 180.442 380.26 183.679C374.893 186.636 369.812 190.159 365.17 194.159C364.108 195.074 363.987 196.683 364.903 197.745C365.818 198.807 367.427 198.928 368.489 198.012C372.864 194.248 377.646 190.922 382.708 188.137C390.333 183.946 395.363 181.173 402.536 180.919C412.125 180.582 419.14 184.982 421.442 186.432C430.179 191.92 435.196 198.585 436.36 206.235C436.411 206.559 436.436 206.89 436.474 207.22C432.017 203.99 426.79 202.654 422.751 201.688C422.325 201.446 421.836 201.338 421.346 201.37C406.262 198.101 393.512 203.405 388.66 205.427C383.637 207.525 378.937 210.234 374.6 213.528C374.181 212.053 373.647 210.616 372.998 209.236C367.828 198.305 357.011 194.368 353.456 193.078C346.468 190.534 340.134 190.489 336.052 190.903C319.092 192.607 306.971 205.179 297.236 215.277C295.735 216.835 294.266 218.444 292.867 220.059C291.951 221.121 292.066 222.73 293.128 223.646C293.611 224.059 294.202 224.263 294.787 224.263C295.5 224.263 296.212 223.964 296.714 223.379C298.05 221.833 299.455 220.294 300.892 218.8C310.532 208.804 321.451 197.478 336.56 195.958C340.115 195.602 345.628 195.64 351.714 197.853C355.103 199.087 364.121 202.362 368.394 211.404C369.252 213.21 369.85 215.15 370.213 217.172C368.954 218.317 367.733 219.512 366.543 220.765C366.162 220.542 365.774 220.326 365.373 220.116C362.079 218.38 358.416 217.471 353.851 217.261C352.401 217.198 350.881 217.236 349.298 217.388C349.196 217.388 349.1 217.407 348.999 217.42C342.182 218.12 334.125 220.797 324.974 225.42C319.168 228.351 316.396 230.323 313.718 232.224C310.92 234.208 308.027 236.269 301.312 239.613C299.652 240.44 298.228 241.114 296.969 241.712C292.339 243.906 289.789 245.108 290.05 248.039C290.33 251.155 293.98 251.944 295.945 252.37C298.679 252.961 302.679 253.489 308.739 254.29C312.93 254.843 318.144 255.537 324.37 256.44C326.418 256.738 328.243 257.012 329.883 257.26C336.668 258.277 340.516 258.85 344.624 258.85C346.08 258.85 347.568 258.78 349.228 258.627C356.051 258.01 365.392 257.158 371.815 249.883C372.845 248.713 373.691 247.562 374.391 246.437C381.08 247.721 387.84 248.707 394.523 249.349C400.317 249.909 404.984 250.131 408.781 250.131C416.062 250.131 420.138 249.324 422.79 248.561C422.993 248.529 423.197 248.465 423.387 248.383C424.545 248.033 425.804 247.658 427.12 247.213C426.688 248.503 426.135 249.737 425.467 250.901C420.748 259.053 411.572 261.196 407.159 262.226C401.786 263.479 393.271 264.071 383.204 259.74C381.958 259.206 379.452 257.266 377.793 255.982C376.731 255.161 375.961 254.564 375.414 254.22C375.408 254.22 375.395 254.208 375.389 254.201C375.338 254.169 375.281 254.15 375.23 254.125C375.135 254.074 375.046 254.023 374.944 253.985C374.944 253.985 374.944 253.985 374.937 253.985C374.619 253.864 374.282 253.813 373.952 253.826C373.907 253.826 373.863 253.839 373.818 253.845C373.697 253.858 373.583 253.864 373.462 253.896C373.405 253.909 373.354 253.934 373.297 253.953C373.195 253.985 373.1 254.01 373.004 254.055C372.953 254.074 372.915 254.112 372.864 254.131C372.769 254.182 372.667 254.233 372.578 254.297C372.445 254.392 372.317 254.5 372.203 254.621C372.203 254.621 372.197 254.634 372.19 254.64C372.082 254.754 371.98 254.882 371.898 255.022C371.853 255.098 371.821 255.174 371.783 255.257C371.752 255.327 371.707 255.397 371.675 255.467V255.479C369.704 260.713 365.698 268.121 357.806 273.736C346.557 281.742 334.449 280.865 329.896 280.534C314.653 279.434 304.027 271.237 299.054 266.455C298.043 265.482 296.434 265.514 295.455 266.525C294.482 267.536 294.514 269.145 295.525 270.124C300.994 275.383 312.688 284.394 329.527 285.615C330.799 285.704 332.592 285.838 334.773 285.838C336.821 285.838 339.212 285.723 341.819 285.354C341.037 285.755 340.293 286.124 339.625 286.429C332.796 289.532 327.619 291.014 316.262 294.257C311.614 295.586 289.865 301.799 288.969 302.053C287.621 302.441 286.838 303.847 287.22 305.201C287.538 306.32 288.555 307.045 289.662 307.045C289.891 307.045 290.126 307.014 290.361 306.944C291.258 306.689 313.006 300.476 317.667 299.141C329.26 295.828 334.544 294.321 341.724 291.059C347.727 288.33 359.644 281.107 366.168 273.298C370.461 269.012 373.297 264.363 375.141 260.35C377.138 261.896 379.497 263.683 381.208 264.414C386.238 266.576 390.937 267.644 395.147 268.039C394.612 274.875 392.864 289.31 387.319 299.809C378.378 316.743 364.61 325.779 357.196 329.658C345.558 335.75 340.242 338.529 332.624 338.758C332.287 338.771 331.918 338.777 331.524 338.784C327.696 338.847 320.561 338.968 313.509 342.955C309.273 345.346 308.021 347.489 307.442 348.895C304.612 355.769 310.768 363.336 312.79 365.822C319.747 374.382 328.707 377.727 334.061 379.723C334.43 379.863 334.786 379.991 335.117 380.118C343.752 383.399 347.129 386.248 351.809 390.191C354.315 392.302 357.202 394.737 361.386 397.65C360.75 401.77 360.369 405.897 360.28 409.942C360.184 414.336 360.439 417.325 360.598 418.717C360.776 420.295 361.049 422.616 361.672 425.375C361.475 425.458 361.278 425.56 361.1 425.693C349.024 434.914 329.184 446.201 303.22 447.62C278.654 448.961 260.385 440.682 245.701 434.03C240.78 431.798 234.605 429 227.826 425.115C227.667 424.994 227.489 424.892 227.298 424.809C216.322 418.457 203.82 409.261 192.539 395.049L192.514 395.087ZM199.7 478.849C202.148 476.96 205.493 474.372 208.914 470.69C216.074 462.983 219.038 455.416 223.527 443.963C225.181 439.741 226.624 435.385 227.851 430.978C233.931 434.323 239.368 436.79 243.578 438.698C257.638 445.07 274.883 452.885 297.852 452.885C299.69 452.885 301.56 452.834 303.468 452.732C329.998 451.282 350.398 440.039 363.129 430.539C363.453 431.448 363.809 432.377 364.229 433.324C365.424 436.065 366.531 437.769 367.415 439.143C368.559 440.917 369.316 442.087 369.958 444.783C370.168 445.661 370.651 448.027 370.67 451.041C370.69 453.406 370.416 454.926 369.996 457.222C369.831 458.125 369.653 459.117 369.469 460.287C369.443 460.452 368.814 464.471 368.419 470.531C367.885 478.607 367.593 483.052 369.151 487.873C370.849 493.132 375.815 502.225 383.63 502.944C383.961 502.975 384.292 502.988 384.61 502.988C385.831 502.988 386.988 502.766 388.12 502.365C388.826 505.716 389.099 509.106 388.927 512.482C388.508 520.775 385.525 526.542 382.645 532.119C377.824 541.454 372.833 551.108 362.906 553.804C359.3 554.783 355.301 554.777 351.021 553.778C348.134 553.111 342.633 551.286 338.169 546.624C333.839 542.097 332.522 536.946 331.46 532.806C330.436 528.8 329.464 525.016 325.686 524.234C320.961 523.261 317.076 528.285 313.642 532.717C308.364 539.54 306.151 546.135 304.835 550.077C304.784 550.236 304.727 550.402 304.669 550.567C303.328 546.484 301.731 538.116 301.127 528.215C300.918 524.8 300.886 521.856 300.86 519.484C300.79 513.449 300.746 509.805 297.515 508.591C292.867 506.842 287.951 513.296 281.141 522.231C277.592 526.892 275.214 530.618 273.478 533.347C273.217 533.754 272.957 534.167 272.696 534.567C272.709 534.3 272.728 534.033 272.74 533.779C273.052 528.367 273.523 520.19 270.47 511.452C266.28 499.459 256.684 489.074 245.428 484.35C235.908 480.356 225.301 480.432 210.625 480.541C208.399 480.56 206.326 480.617 204.501 480.668C201.938 480.738 199.127 480.82 197.398 480.681C198.065 480.115 198.924 479.447 199.681 478.862L199.7 478.849ZM429.27 603.449C428.971 615.83 427.578 628.472 425.123 641.063L124.103 632.529C121.725 618.73 120.891 604.677 121.616 590.718C122.03 582.795 122.85 577.25 124.205 568.061L124.968 562.859C128.02 541.989 129.699 530.491 136.967 524.501C137.196 524.31 137.508 524.062 137.87 523.77C144.948 518.097 147.651 515.28 146.067 512.508C145.539 511.579 144.764 511.141 143.88 510.963C145.73 509.583 148.356 507.796 151.987 505.595C160.579 500.387 167.16 497.545 175.497 493.946C177.952 492.884 180.483 491.79 183.268 490.556C187.096 488.852 190.822 487.122 194.619 485.297C196.889 485.965 200.253 485.876 204.66 485.749C206.459 485.698 208.501 485.641 210.676 485.621C224.748 485.52 234.916 485.443 243.476 489.036C253.294 493.157 262.013 502.613 265.688 513.125C268.403 520.908 267.971 528.475 267.685 533.486C267.431 537.925 267.208 541.76 270.604 542.357C273.465 542.86 275.004 540.456 277.79 536.081C279.475 533.429 281.789 529.805 285.211 525.315C288.053 521.582 293.159 514.886 295.506 513.608C295.735 514.797 295.767 517.296 295.792 519.541C295.818 521.964 295.856 524.978 296.072 528.52C296.466 534.994 297.35 541.747 298.507 547.038C300.18 554.707 301.935 557.734 304.771 557.816C307.614 557.899 308.517 555.158 309.68 551.693C310.978 547.82 312.936 541.976 317.693 535.827C319.435 533.575 323.06 528.889 324.681 529.213C325.343 529.347 326.042 532.075 326.551 534.065C327.696 538.529 329.266 544.653 334.513 550.141C339.886 555.756 346.449 557.937 349.883 558.738C352.42 559.33 354.894 559.622 357.278 559.622C359.663 559.622 362.028 559.317 364.254 558.713C376.336 555.425 382.098 544.284 387.179 534.453C390.161 528.679 393.544 522.129 394.021 512.737C394.244 508.381 393.811 504.012 392.749 499.726C394.829 498.143 397.016 496.063 399.56 493.653C399.802 493.424 400.018 493.208 400.247 492.985C402.084 497.042 404.011 501.03 406.002 504.864C408.399 509.487 409.537 511.331 410.695 512.959C411.839 514.562 415.756 519.687 421.848 524.011C423.642 528.634 425.13 533.41 426.262 538.224C428.437 547.496 428.43 554.249 428.417 565.435C428.417 568.118 428.417 571.037 428.437 574.299C428.526 585.186 428.831 589.726 429.053 593.046C429.257 596.143 429.397 598.19 429.27 603.462V603.449ZM443.705 439.194C446.376 449.012 450.655 453.712 455.177 458.691C459.094 462.996 463.138 467.447 466.763 475.994C469.128 481.571 474.667 494.639 470.165 508.648C469.078 512.024 466.197 520.997 458.051 525.429C454.153 527.547 443.31 531.375 426.79 521.194C420.195 517.131 415.96 511.598 414.822 509.996C414.001 508.845 412.99 507.319 410.498 502.518C408.234 498.149 406.053 493.583 403.999 488.928C404.743 488.057 405.404 487.23 406.033 486.448C408.215 483.739 409.938 481.603 413.41 479.116C415.769 477.425 418.351 476.007 421.085 474.894C422.389 474.366 423.012 472.878 422.484 471.581C421.957 470.277 420.475 469.654 419.171 470.182C416.074 471.441 413.137 473.056 410.453 474.976C406.415 477.863 404.31 480.483 402.078 483.25C400.444 485.284 398.746 487.383 396.043 489.952C390.206 495.504 387.255 498.155 384.095 497.869C379.281 497.424 375.414 490.709 373.99 486.302C372.731 482.41 372.972 478.792 373.494 470.856C373.875 465.05 374.486 461.107 374.492 461.069C374.67 459.943 374.842 458.983 375.001 458.118C375.433 455.727 375.77 453.839 375.751 451.003C375.726 447.588 375.205 444.904 374.899 443.607C374.06 440.059 372.903 438.272 371.682 436.377C370.817 435.035 369.914 433.642 368.884 431.283C366.493 425.814 365.927 420.835 365.615 418.164C365.469 416.899 365.24 414.171 365.329 410.082C365.392 407.023 365.64 403.907 366.041 400.785C367.516 401.713 369.113 402.686 370.874 403.71C389.309 414.425 405.639 423.919 423.546 423.919C427.044 423.919 430.599 423.557 434.249 422.768C436.106 422.368 438.764 421.687 441.822 420.6C441.721 427.239 441.981 432.873 443.698 439.187L443.705 439.194ZM437.021 326.421C434.459 332.246 430.586 341.047 433.123 351.476C435.527 361.358 442.357 367.578 445.275 370.236C447.577 372.334 451.635 375.418 454.808 377.631C452.906 378.56 451.049 379.31 449.256 379.952C446.191 378.502 439.196 374.458 435.317 372.029C432.22 370.089 429.015 368.086 425.829 364.691C424.049 362.796 423.216 361.473 422.408 360.195C421.41 358.611 420.373 356.971 417.9 354.789C417.098 354.084 415.941 353.066 414.377 352.03C414.332 351.673 414.288 351.311 414.237 350.929C413.715 346.796 413.003 341.13 412.889 337.079C412.819 334.733 412.825 332.367 412.869 330.014C413.76 329.607 414.694 329.188 415.693 328.749C424.78 324.762 433.155 321.824 440.608 319.643C439.247 321.817 438.045 324.081 437.015 326.415L437.021 326.421ZM363.599 360.621C361.539 358.84 359.587 357.155 352.82 353.944L352.604 353.842C352.166 353.632 351.523 353.333 350.976 353.028C353.151 352.112 357.876 351.069 362.143 350.135C367.949 348.856 375.179 347.267 382.607 344.856C390.962 342.148 394.415 340.081 398.79 337.461C401.207 336.011 403.846 334.434 407.744 332.475C407.744 334.065 407.757 335.655 407.801 337.232C407.903 340.818 408.431 345.448 408.908 349.352C402.352 347.127 397.016 348.119 393.684 349.352C391.649 350.109 389.748 351.177 388.012 352.519C386.327 351.851 384.546 351.457 382.53 351.438C376.902 351.387 372.292 354.243 370.55 355.317C369.316 356.08 366.48 358.745 364.916 361.734C364.432 361.339 364.006 360.977 363.593 360.614L363.599 360.621ZM373.24 359.648C374.619 358.789 378.276 356.532 382.39 356.532C382.422 356.532 382.46 356.532 382.498 356.532C384.177 356.545 385.646 356.952 387.141 357.676C387.242 357.734 387.344 357.791 387.452 357.835C389.309 358.796 391.229 360.246 393.678 362.096C397.143 364.722 400.234 367.896 402.86 371.527C403.356 372.213 404.132 372.576 404.921 372.576C405.436 372.576 405.957 372.417 406.409 372.093C407.547 371.266 407.801 369.676 406.975 368.538C404.049 364.493 400.603 360.964 396.743 358.033C395.439 357.047 394.212 356.118 393.01 355.285C393.799 354.828 394.619 354.427 395.471 354.109C398.046 353.149 402.218 352.386 407.426 354.198C410.924 355.413 413.187 357.409 414.536 358.598C416.462 360.296 417.187 361.447 418.109 362.904C419 364.315 420.011 365.911 422.122 368.163C425.759 372.042 429.25 374.223 432.627 376.334C434.878 377.739 438.808 380.073 442.28 382.006C441.199 382.273 440.169 382.515 439.222 382.731C428.138 385.288 418.936 384.709 415.496 384.334C405.289 383.24 396.444 378.801 378.823 369.956C374.327 367.705 371.3 366.013 369.132 364.665C369.799 363.101 371.853 360.474 373.24 359.622V359.648ZM504.663 311.865C499.175 308.323 487.589 307.262 470.222 308.705C460.315 309.532 439.788 312.629 413.652 324.094C404.507 328.1 399.891 330.873 396.177 333.092C391.916 335.642 388.845 337.486 381.036 340.017C373.844 342.351 366.747 343.909 361.043 345.162C350.423 347.496 345.088 348.672 345.043 352.894C345.012 355.864 348.013 357.289 350.423 358.433L350.639 358.535C356.782 361.454 358.321 362.783 360.273 364.468C361.456 365.485 362.715 366.573 364.928 368.042C364.935 368.042 364.941 368.054 364.954 368.054C367.345 369.638 370.836 371.66 376.54 374.522C394.714 383.641 403.833 388.219 414.955 389.408C419.547 389.904 428.958 390.337 440.366 387.704C442.903 387.119 446.172 386.362 449.809 385.135C449.873 385.116 449.943 385.097 450.007 385.071C453.421 383.914 457.161 382.331 460.944 380.086C461.052 380.029 461.16 379.965 461.262 379.895C462.807 378.967 464.359 377.93 465.904 376.76C469.027 374.388 471.659 371.819 473.879 369.314C469.726 379.742 467.818 385.828 466.508 390.012C465.033 394.718 464.423 396.664 462.267 399.799C453.491 412.581 437.791 416.81 433.187 417.802C412.806 422.196 394.562 411.595 373.443 399.316C363.854 393.745 358.982 389.637 355.072 386.337C350.201 382.229 346.353 378.986 336.91 375.399C336.567 375.272 336.204 375.132 335.829 374.992C330.958 373.174 322.812 370.134 316.726 362.643C311.544 356.271 311.372 352.723 312.135 350.859C312.3 350.453 312.815 349.219 316.001 347.413C321.934 344.062 327.982 343.96 331.6 343.903C332.02 343.896 332.414 343.89 332.77 343.877C341.559 343.616 347.568 340.469 359.548 334.205C367.485 330.053 382.231 320.374 391.814 302.219C397.786 290.906 399.649 276.038 400.234 268.242C403.35 268.159 406.084 267.733 408.329 267.212C411.299 266.519 416.78 265.234 421.88 261.858C429.664 263.148 437.384 264.974 444.843 267.301C455.825 270.722 474.203 276.445 492.015 291.128C503.493 300.591 511.982 311.071 514.825 315.865C510.501 314.88 508.606 314.409 504.676 311.872L504.663 311.865Z" fill="#262626"/>
</g>
</g>
<defs>
<clipPath id="clip0_159_3477">
<rect width="631" height="631" fill="white"/>
</clipPath>
<clipPath id="clip1_159_3477">
<rect width="431.923" height="566.271" fill="white" transform="translate(89 80)"/>
</clipPath>
</defs>
</svg>
