<svg width="419" height="508" viewBox="0 0 419 508" fill="none" xmlns="http://www.w3.org/2000/svg">
<g clip-path="url(#clip0_165_5165)">
<path d="M473.515 366.411C471.808 378.04 461.411 422.209 445.795 443.838C433.274 461.18 418.58 471.898 406.854 478.61C400.995 481.965 395.874 484.322 392.15 486.02C359.58 500.791 330.765 499.298 303.685 497.901C280.96 496.727 264.695 492.693 245.209 486.718C240.748 485.36 236.121 483.896 231.204 482.334C226.112 480.724 220.961 478.959 215.229 474.963C195.443 461.18 191.244 436.535 189.837 428.281C183.882 393.326 200.264 364.927 207.451 352.105C213.668 341.009 220.7 332.086 227.285 325.083C233.716 323.046 238.847 321.136 244.821 318.42C254.966 313.803 272.046 302.833 280.824 292.281C280.824 292.271 280.834 292.261 280.843 292.252C289.728 283.416 293.957 273.804 295.751 269.032C297.759 270.283 304.655 276.239 308.195 277.761C312.957 279.808 328.388 286.141 347.146 281.757C350.269 281.03 354.906 279.944 359.804 277.81C367.689 278.043 378.465 278.692 391.102 280.487C407.048 282.756 429.491 285.947 454.011 297.295C464.03 301.931 487.909 313.279 508.791 337.43C534.057 366.663 546.511 404.906 540.245 409.019C535.347 412.229 524.503 390.212 495.232 375.392C487.802 371.629 480.586 368.7 473.515 366.411Z" fill="#FF9D46"/>
<path d="M336.916 623.029C335.509 624.61 333.909 626.288 331.998 628.102C322.949 636.705 317.537 641.846 310.748 641.225C298.818 640.129 292.426 622.156 291.99 620.915C290.321 616.036 289.846 611.294 291.058 595.911C292.571 576.687 294.23 572.623 294.492 565.902C295.025 552.449 289.138 541.654 279.652 528.27C276.102 523.245 272.039 517.862 267.616 511.839C260.206 501.743 252.466 493.45 245.211 486.728C264.696 492.693 280.962 496.728 303.687 497.902C330.766 499.298 359.582 500.792 392.152 486.02C395.876 484.323 400.997 481.966 406.856 478.61C405.071 487.66 403.616 498.445 403.257 510.588C402.821 524.875 402.52 534.962 405.75 546.843C413.044 573.632 428.572 573.739 440.754 602.467C444.808 612.04 453.227 632.69 446.069 654.978C444.255 660.633 439.541 675.298 425.759 682.795C404.023 694.608 378.098 678.634 374.189 676.229C363.016 669.342 356.023 659.808 354.81 658.101C353.307 655.987 351.668 653.436 347.934 646.23C344.956 640.478 341.106 632.67 336.916 623.029Z" fill="#3A80FE"/>
<path d="M396.874 206.338C401.433 214.514 402.141 225.232 398.077 234.019C394.624 241.487 388.494 245.891 382.054 248.839C377.777 250.798 373.364 252.117 369.494 253.272C369.474 253.272 369.455 253.272 369.436 253.291C363.907 250.284 356.904 244.93 352.947 235.823C346.623 221.304 351.599 205.494 360.163 195.805C362.656 192.992 365.343 190.81 367.971 189.122C368.078 189.141 368.185 189.161 368.291 189.19C376.351 191.091 387.68 193.778 394.721 203.05C395.497 204.059 396.215 205.155 396.874 206.338Z" fill="#262626"/>
<path d="M369.435 253.291C369.435 253.291 369.474 253.281 369.493 253.272C373.363 252.118 377.776 250.798 382.053 248.839C381.568 252.913 380.356 257.791 377.543 262.651C373.004 270.497 366.176 275.046 359.804 277.81C354.906 279.944 350.27 281.03 347.146 281.758C328.388 286.142 312.957 279.808 308.195 277.762C304.655 276.239 297.759 270.284 295.751 269.033C293.957 273.805 289.728 283.416 280.844 292.252C280.834 292.262 280.824 292.272 280.824 292.281C272.047 302.834 254.967 313.804 244.821 318.42C238.847 321.136 233.716 323.047 227.285 325.084C220.7 332.086 213.668 341.009 207.451 352.105C200.264 364.927 183.882 393.326 189.837 428.282C191.244 436.536 195.443 461.181 215.229 474.963C220.962 478.959 226.112 480.724 231.204 482.334C236.121 483.896 240.748 485.361 245.209 486.718C252.464 493.45 260.204 501.742 267.614 511.839C272.037 517.862 276.101 523.245 279.651 528.269L278.322 530.393C264.501 540.956 232.581 562.187 187.907 564.631C149.489 566.736 121.119 553.875 98.3655 543.565C77.27 534.001 44.0119 518.463 15.8458 482.994C6.7384 471.53 -26.1608 430.086 -24.5314 374.141C-24.3568 367.856 -21.8447 357.081 -16.9176 338.643C-16.9176 338.633 -16.9079 338.633 -16.9079 338.633C-14.8905 331.058 -12.456 322.193 -9.60452 311.815C8.02838 247.51 17.9699 231.187 29.0171 218.762C37.145 209.616 52.7896 192.478 73.788 191.547C81.1496 191.217 82.6142 193.176 87.8323 191.547C103.137 186.756 101.033 166.669 118.559 141.509C124.262 133.323 133.369 120.249 150.158 112.538C165.027 105.72 179.421 106.088 191.418 106.399C199.847 106.612 210.749 106.981 223.9 111.665C233.289 115.012 241 119.551 247.091 124.041C250.35 121.141 261.853 110.259 269.011 95.9723L269.496 96.2148C274.84 95.2643 289.175 93.4312 305.547 101.957C310.416 104.488 323.18 111.374 330.115 126.903C334.13 135.894 334.673 144.4 334.305 150.481C335.837 150.268 337.428 150.122 339.077 150.064C354.586 149.521 366.069 156.524 370.124 159.065C374.779 161.994 391.704 172.634 394.643 191.974C395.283 196.173 395.128 199.956 394.72 203.05C387.679 193.778 376.35 191.091 368.29 189.19C368.184 189.161 368.077 189.142 367.97 189.122C346.206 184.079 327.816 191.46 319.543 194.903C309.019 199.296 300.61 205.087 294.093 210.751C290.504 213.864 287.488 216.949 285.005 219.732C283.094 218.413 281.493 217.569 280.737 217.172C277.274 215.339 272.473 213.612 264.792 213.263C263.337 213.195 261.164 213.147 258.177 213.447C251.165 214.126 239.691 216.697 222.669 225.29C204.793 234.32 206.811 236.861 186.559 246.958C176.2 252.127 171.312 253.64 171.516 255.987C171.855 259.722 184.668 260.08 220.564 265.308C241.097 268.305 246.684 269.605 257.566 268.616C259.651 268.422 261.804 268.228 263.996 267.946C273.017 266.812 282.541 264.416 289.456 256.589C290.3 255.629 292.512 253.126 294.287 249.547C307.448 252.195 318.689 253.64 327.37 254.474C354.906 257.151 365.07 254.591 369.435 253.291Z" fill="#A6C2FA"/>
<path d="M352.946 235.823C356.903 244.931 363.906 250.285 369.434 253.291C365.07 254.591 354.905 257.151 327.369 254.475C318.689 253.64 307.448 252.195 294.286 249.547C295.954 246.192 297.254 241.885 296.682 237.026C295.683 228.481 289.485 222.817 285.004 219.732C287.487 216.949 290.503 213.865 294.092 210.751C300.61 205.087 309.019 199.297 319.542 194.903C327.816 191.46 346.205 184.079 367.97 189.122C365.341 190.81 362.655 192.992 360.162 195.805C351.598 205.494 346.622 221.304 352.946 235.823Z" fill="white"/>
<path d="M294.286 249.547C292.511 253.126 290.299 255.628 289.456 256.589C282.54 264.416 273.016 266.812 263.996 267.946L263.937 267.5C259.961 264.173 255.664 259.363 252.754 252.67C251.484 249.761 247.866 241.109 250.048 230.11C251.474 222.914 254.849 217.385 258.176 213.447C261.163 213.147 263.336 213.195 264.791 213.263C272.473 213.612 277.274 215.339 280.736 217.172C281.493 217.569 283.093 218.413 285.004 219.732C289.485 222.817 295.682 228.481 296.681 237.026C297.254 241.885 295.954 246.191 294.286 249.547Z" fill="#262626"/>
<path d="M-13.6104 180.412C-17.9265 170.238 -26.0252 149.104 -25.773 126.99C-25.6372 115.409 -25.2298 79.4062 2.03422 51.4729C24.9725 27.972 53.546 23.9081 64.8454 22.3078C76.7655 20.6105 93.9328 17.788 113.923 25.3921C136.754 34.0728 144.087 44.732 148.839 51.8802C149.896 46.6718 153.65 31.6674 167.306 19.3205C181.971 6.05216 198.528 4.48091 203.484 4.08325C228.769 2.05615 246.616 16.2556 250.903 19.883C253.046 21.7064 279.34 44.7902 274.51 79.1055C273.676 85.0316 271.639 90.725 269.011 95.9722C261.853 110.259 250.35 121.141 247.091 124.041C241 119.551 233.289 115.011 223.9 111.665C210.748 106.981 199.847 106.612 191.418 106.399C179.42 106.088 165.027 105.72 150.158 112.538C133.369 120.249 124.262 133.323 118.559 141.509C101.033 166.669 103.137 186.755 87.8321 191.547C82.614 193.176 81.1495 191.217 73.7879 191.547C52.7894 192.478 37.1448 209.616 29.017 218.762C17.9698 231.187 8.02825 247.51 -9.60465 311.815C-12.4562 322.193 -14.8906 331.058 -16.9081 338.633C-16.9081 338.633 -16.9177 338.633 -16.9177 338.643C-19.779 342.396 -45.6755 375.771 -77.6339 375.974C-82.9199 376.013 -99.1464 375.848 -113.802 364.471C-132.308 350.107 -137.264 326.441 -134.344 308.983C-132.986 300.845 -129.873 293.823 -118.729 278.159C-106.169 260.488 -89.2146 237.026 -57.0816 210.751C-46.4417 202.061 -31.9707 191.275 -13.6104 180.412Z" fill="#3A80FE"/>
<path d="M263.936 267.5L263.994 267.946C261.803 268.228 259.649 268.422 257.564 268.616C246.682 269.605 241.095 268.305 220.562 265.308C184.666 260.08 171.853 259.721 171.514 255.987C171.31 253.64 176.199 252.127 186.557 246.958C206.809 236.861 204.791 234.32 222.667 225.29C239.689 216.696 251.163 214.126 258.175 213.447C254.848 217.385 251.473 222.914 250.047 230.11C247.865 241.109 251.483 249.761 252.753 252.67C255.663 259.363 259.96 264.173 263.936 267.5Z" fill="white"/>
<path d="M280.844 296.132C279.845 296.132 278.856 295.754 278.09 294.987C276.577 293.465 276.586 291.011 278.109 289.498C284.171 283.465 289.021 275.919 292.124 267.665C292.881 265.657 295.121 264.649 297.119 265.396C299.127 266.152 300.136 268.383 299.389 270.391C295.897 279.682 290.427 288.188 283.589 294.997C282.833 295.754 281.843 296.122 280.854 296.122L280.844 296.132Z" fill="black"/>
<path d="M235.84 313.997C232.504 313.997 229.759 313.794 227.819 313.658C202.156 311.805 184.309 298.062 175.958 290.031C174.416 288.547 174.368 286.093 175.852 284.541C177.336 282.999 179.79 282.951 181.341 284.435C188.936 291.738 205.153 304.231 228.392 305.908C235.336 306.413 253.784 307.761 270.961 295.54C273.492 293.736 275.898 291.709 278.099 289.517C279.622 288.004 282.076 288.014 283.589 289.527C285.102 291.04 285.092 293.503 283.579 295.016C281.077 297.499 278.351 299.808 275.471 301.854C260.912 312.213 245.782 313.978 235.86 313.978L235.84 313.997Z" fill="black"/>
<path d="M539.218 413.268C535.561 413.268 531.808 409.466 527.026 404.616C520.13 397.633 509.723 387.07 493.477 378.846C486.474 375.296 479.549 372.435 472.323 370.097C449.754 362.794 428.58 362.105 406.166 361.368C379.377 360.485 342.695 359.283 302.105 377.303C285.927 384.49 270.728 393.976 256.926 405.489C255.278 406.856 252.833 406.643 251.466 404.994C250.089 403.345 250.312 400.901 251.961 399.534C266.315 387.565 282.125 377.701 298.962 370.223C341.173 351.485 378.882 352.726 406.428 353.628C429.405 354.375 451.102 355.093 474.719 362.726C482.342 365.189 489.626 368.206 496.998 371.94C514.369 380.737 525.319 391.833 532.564 399.185C534.485 401.134 536.58 403.258 538.064 404.5C538.413 396.188 528.5 366.159 505.872 339.981C485.107 315.967 461.344 304.968 452.401 300.826C428.416 289.721 406.564 286.617 390.599 284.338C380.376 282.883 369.988 282 359.707 281.69L358.485 281.661C356.342 281.603 354.654 279.828 354.703 277.684C354.761 275.541 356.536 273.873 358.679 273.902L359.911 273.931C370.512 274.241 381.181 275.153 391.666 276.647C408.125 278.994 430.637 282.194 455.66 293.775C465.02 298.111 489.888 309.614 511.75 334.889C521.934 346.664 531.129 361.184 537.666 375.761C543.505 388.787 546.463 400.271 545.6 406.488C545.221 409.175 544.145 411.114 542.399 412.259C541.342 412.957 540.294 413.268 539.237 413.268H539.218Z" fill="black"/>
<path d="M250.873 272.815C244.579 272.815 238.682 271.933 228.274 270.371C225.801 270.003 223.066 269.586 219.991 269.139C210.477 267.752 202.514 266.705 196.112 265.851C186.889 264.629 180.788 263.824 176.617 262.922C173.63 262.272 168.063 261.07 167.636 256.327C167.248 251.856 171.137 250.013 178.198 246.667C180.119 245.755 182.291 244.727 184.813 243.466C195.065 238.355 199.478 235.222 203.745 232.186C207.829 229.276 212.058 226.279 220.913 221.808C235.015 214.689 247.42 210.577 257.789 209.568C261.038 209.238 263.443 209.296 264.966 209.364C271.949 209.684 277.536 211.061 282.541 213.719C283.297 214.117 285.082 215.057 287.196 216.512C292.647 220.266 299.378 226.784 300.523 236.551C301.095 241.439 300.164 246.385 297.749 251.254C295.76 255.25 293.307 258.053 292.385 259.101C284.316 268.237 273.23 270.672 264.471 271.768C262.376 272.039 260.33 272.224 258.361 272.408L257.924 272.447C255.383 272.68 253.104 272.786 250.873 272.786V272.815ZM178.13 255.328C182.126 256.182 189.042 257.093 197.15 258.17C203.571 259.023 211.563 260.071 221.126 261.467C224.211 261.914 226.955 262.331 229.438 262.699C243.259 264.775 248.439 265.551 257.216 264.746L257.653 264.707C259.564 264.532 261.533 264.348 263.511 264.096C271.387 263.107 280.271 261.138 286.556 254.019C287.381 253.078 289.282 250.915 290.814 247.821C292.55 244.329 293.229 240.847 292.831 237.472C292.026 230.595 286.934 225.765 282.812 222.923C281.076 221.73 279.631 220.964 278.942 220.605C276.44 219.277 272.24 217.482 264.627 217.143C263.23 217.075 261.29 217.036 258.574 217.308H258.555C249.273 218.21 237.469 222.167 224.424 228.753C216.092 232.962 212.29 235.668 208.256 238.529C203.745 241.73 199.09 245.047 188.295 250.43C185.696 251.72 183.484 252.777 181.535 253.699C180.361 254.251 179.168 254.814 178.13 255.338V255.328Z" fill="black"/>
<path d="M348.767 259.527C342.967 259.527 335.838 259.188 326.992 258.334C315.974 257.277 304.733 255.599 293.589 253.368C291.775 253.039 290.398 251.458 290.398 249.547C290.398 247.403 292.134 245.667 294.277 245.667H294.665L295.053 245.745C305.965 247.937 316.963 249.576 327.739 250.614C354.848 253.242 364.605 250.672 368.019 249.663L368.107 249.625L368.417 249.547C372.161 248.432 376.399 247.161 380.434 245.318C387.485 242.088 391.966 237.986 394.556 232.399C397.97 225.008 397.553 215.523 393.489 208.239C392.926 207.23 392.306 206.279 391.646 205.426C385.419 197.23 375.003 194.767 367.399 192.982L367.098 192.914C346.119 188.055 328.544 195.368 321.037 198.501C312.211 202.186 304.005 207.298 296.644 213.699C293.608 216.337 290.669 219.237 287.905 222.331C286.479 223.932 284.025 224.067 282.425 222.642C280.825 221.216 280.689 218.762 282.115 217.162C285.092 213.816 288.274 210.683 291.552 207.831C299.534 200.887 308.457 195.339 318.05 191.333C325.537 188.22 345.391 179.946 368.756 185.329C368.912 185.359 369.067 185.388 369.222 185.426C377.476 187.376 389.929 190.324 397.815 200.702C398.688 201.837 399.522 203.108 400.269 204.446C405.584 213.98 406.098 225.93 401.607 235.648C398.251 242.913 392.383 248.383 383.674 252.369C379.251 254.396 374.838 255.735 370.91 256.899L370.822 256.938L370.512 257.015C366.497 258.208 360.25 259.527 348.776 259.527H348.767Z" fill="black"/>
<path d="M263.937 271.38C263.054 271.38 262.172 271.079 261.454 270.478C256.052 265.958 251.929 260.488 249.204 254.222C245.606 245.988 244.616 237.617 246.256 229.363C247.594 222.603 250.61 216.415 255.227 210.955L255.382 210.78C256.857 209.228 259.32 209.17 260.872 210.644C262.385 212.089 262.482 214.456 261.105 216.008C257.371 220.44 254.936 225.435 253.86 230.867C252.531 237.54 253.365 244.358 256.313 251.118C258.554 256.278 261.958 260.788 266.43 264.523C268.069 265.9 268.292 268.344 266.915 269.983C266.148 270.904 265.043 271.37 263.937 271.37V271.38Z" fill="black"/>
<path d="M369.475 257.19C368.825 257.19 368.165 257.025 367.583 256.695C361.735 253.514 353.83 247.578 349.388 237.365C341.803 219.945 348.884 202.701 357.254 193.234C359.747 190.422 362.608 187.968 365.76 185.931C365.915 185.814 366.07 185.717 366.235 185.62C368.097 184.554 370.464 185.194 371.531 187.056C372.559 188.85 371.996 191.11 370.299 192.226L370.066 192.39C367.467 194.059 365.11 196.076 363.064 198.384C355.663 206.755 350.765 221.1 356.497 234.281C359.989 242.321 366.264 247.113 371.017 249.741L371.55 249.925L372.21 250.575C373.723 252.088 373.723 254.542 372.21 256.065C371.453 256.821 370.464 257.2 369.465 257.2L369.475 257.19Z" fill="black"/>
<path d="M333.955 287.131C326.128 287.131 316.836 285.696 306.662 281.322C303.849 280.109 299.882 277.044 296.701 274.571C295.469 273.621 294.198 272.631 293.694 272.321C291.871 271.186 291.318 268.791 292.452 266.977C293.587 265.163 295.973 264.601 297.797 265.735C298.631 266.259 299.814 267.171 301.453 268.441C303.985 270.41 307.816 273.369 309.727 274.193C325.07 280.788 338.067 279.896 346.263 277.976C349.202 277.287 353.644 276.259 358.251 274.251C365.428 271.138 370.782 266.579 374.177 260.702C376.311 257.026 377.659 252.874 378.192 248.374C378.444 246.25 380.374 244.717 382.499 244.979C384.623 245.232 386.145 247.162 385.893 249.286C385.234 254.843 383.546 259.993 380.889 264.581C376.64 271.923 370.064 277.568 361.335 281.361C356.088 283.65 351.229 284.775 348.018 285.531C344.178 286.423 339.425 287.131 333.945 287.131H333.955Z" fill="black"/>
<path d="M394.722 206.929C394.557 206.929 394.382 206.92 394.207 206.9C392.083 206.619 390.59 204.669 390.871 202.545C391.317 199.151 391.298 195.785 390.803 192.565C389.028 180.897 381.376 170.742 368.059 162.362C364.538 160.151 353.811 153.42 339.214 153.953C337.769 154.001 336.294 154.137 334.839 154.331C326.052 155.563 318.894 159.501 308.982 164.952C301.232 169.219 293.939 174.282 287.295 180.014C285.675 181.411 283.221 181.227 281.824 179.607C280.428 177.987 280.602 175.533 282.232 174.137C289.283 168.055 297.023 162.682 305.238 158.153C315.48 152.518 323.569 148.075 333.763 146.64C335.48 146.397 337.216 146.252 338.932 146.184C350.213 145.777 361.395 149.016 372.181 155.776C387.505 165.417 396.351 177.396 398.475 191.391C399.076 195.339 399.105 199.432 398.562 203.554C398.3 205.504 396.642 206.929 394.722 206.929Z" fill="black"/>
<path d="M174.87 220.062C173.968 220.062 173.066 219.752 172.328 219.121C170.709 217.715 170.534 215.271 171.931 213.651C174.142 211.1 176.324 208.714 178.604 206.357C193.443 190.955 211.93 171.79 237.797 169.181C244.034 168.56 253.694 168.628 264.353 172.498C286.283 180.509 292.209 193.031 294.158 197.153C296.098 201.256 297.369 205.678 297.931 210.285C298.193 212.41 296.68 214.349 294.556 214.611C292.432 214.883 290.492 213.36 290.23 211.236C289.765 207.444 288.727 203.826 287.136 200.47C280.628 186.707 266.894 181.693 261.725 179.801C252.423 176.426 243.995 176.358 238.563 176.901C215.528 179.219 198.875 196.503 184.171 211.75C181.989 214.01 179.894 216.289 177.789 218.733C177.023 219.616 175.936 220.072 174.85 220.072L174.87 220.062Z" fill="black"/>
<path d="M334.305 154.361C334.228 154.361 334.15 154.361 334.063 154.361C331.919 154.234 330.3 152.392 330.426 150.248C330.891 142.586 329.592 135.263 326.565 128.483C320.038 113.867 307.778 107.495 303.753 105.4C293.133 99.8712 281.523 98.009 270.175 100.036C268.07 100.405 266.053 99.008 265.675 96.8936C265.296 94.7792 266.703 92.7715 268.817 92.3932C281.872 90.0752 295.189 92.1896 307.342 98.5133C311.959 100.919 326.022 108.222 333.655 125.322C337.147 133.139 338.709 141.917 338.175 150.714C338.049 152.77 336.342 154.361 334.305 154.361Z" fill="black"/>
<path d="M247.089 127.921C246.022 127.921 244.956 127.484 244.189 126.621C242.764 125.021 242.909 122.567 244.509 121.141C246.789 119.114 258.486 108.309 265.537 94.236C268.233 88.853 269.96 83.5864 270.668 78.5623C275.158 46.6427 251.144 25.1786 248.389 22.8315C242.405 17.7686 226.062 6.15878 203.793 7.94341C187.343 9.26248 176.286 16.4204 169.904 22.1913C158.091 32.87 154.017 45.857 152.64 52.6464C152.213 54.7511 150.167 56.109 148.062 55.6725C145.957 55.2457 144.609 53.1992 145.036 51.0945C146.607 43.3741 151.243 28.6024 164.706 16.4301C171.98 9.85413 184.55 1.69722 203.172 0.20356C228.312 -1.80415 246.682 11.212 253.403 16.9053C256.497 19.5338 283.422 43.5972 278.349 79.6292C277.525 85.4777 275.546 91.559 272.482 97.6888C264.984 112.645 253.132 123.847 249.669 126.922C248.932 127.581 248.011 127.901 247.089 127.901V127.921Z" fill="black"/>
<path d="M-13.6101 184.292C-15.1232 184.292 -16.5586 183.4 -17.1794 181.925C-25.6467 161.974 -29.8367 143.478 -29.6524 126.941C-29.5069 114.769 -29.0801 77.7865 -0.739467 48.7572C23.1396 24.2865 53.0418 20.0577 64.3024 18.4573L65.5051 18.2827C77.2701 16.5951 95.0485 14.0443 115.31 21.755C139.635 30.9982 147.423 42.7244 152.079 49.7174C153.262 51.502 152.777 53.9074 150.993 55.1004C149.208 56.2934 146.803 55.7987 145.61 54.0141C141.206 47.3896 134.543 37.3705 112.546 29.0002C94.1562 22.0072 78.2303 24.2865 66.6011 25.9547L65.3887 26.1293C26.8447 31.5899 10.8315 47.991 4.8084 54.1596C-21.3597 80.9678 -21.767 115.603 -21.8931 126.99C-22.0677 142.46 -18.0814 159.908 -10.0409 178.87C-9.20675 180.839 -10.1282 183.118 -12.0971 183.962C-12.5917 184.176 -13.1058 184.273 -13.6101 184.273V184.292Z" fill="black"/>
<path d="M-78.1876 379.854C-92.872 379.854 -105.646 375.713 -116.179 367.536C-137.012 351.358 -141.047 325.539 -138.176 308.343C-136.605 298.896 -132.648 291.02 -121.892 275.909C-110.282 259.576 -92.7362 234.892 -59.5363 207.744C-45.7734 196.503 -30.9823 186.183 -15.5802 177.066C-11.3611 174.564 -6.8607 172.032 -2.19545 169.52C-0.304132 168.502 2.04304 169.21 3.06144 171.101C4.07984 172.993 3.37181 175.34 1.48049 176.358C-3.08777 178.822 -7.50083 181.305 -11.6326 183.749C-26.6953 192.662 -41.1663 202.759 -54.6286 213.758C-87.0235 240.246 -104.201 264.416 -115.568 280.41C-126.693 296.054 -129.331 302.524 -130.514 309.623C-133.036 324.715 -129.554 347.333 -111.417 361.406C-102.28 368.497 -91.0971 372.095 -78.1682 372.095C-77.9936 372.095 -77.8288 372.095 -77.6542 372.095C-48.6152 371.911 -24.5324 342.241 -19.9932 336.286C-18.6936 334.579 -16.2591 334.249 -14.5521 335.549C-12.845 336.848 -12.5152 339.283 -13.8149 340.99C-18.7323 347.44 -44.9295 379.641 -77.596 379.854C-77.79 379.854 -77.9839 379.854 -78.1682 379.854H-78.1876Z" fill="black"/>
<path d="M179.546 568.734C144.523 568.734 118.238 556.823 96.7938 547.105C77.677 538.434 42.1299 522.324 12.8096 485.399C-15.6474 449.581 -29.5171 412.104 -28.4114 374.025C-28.2174 367.177 -25.4823 355.665 -20.7976 338.129V334.754H-19.8859C-17.9655 327.596 -15.7153 319.4 -13.3391 310.777C5.06976 243.631 15.4284 228.209 26.1264 216.173C34.0603 207.25 50.5584 188.686 73.6227 187.658C77.1338 187.502 79.4422 187.813 81.3044 188.065C83.4479 188.356 84.5245 188.501 86.6777 187.832C93.3506 185.737 95.8142 180.189 100.315 168.832C103.564 160.636 107.599 150.442 115.377 139.279C121.148 130.996 130.799 117.145 148.538 108.998C164.231 101.801 179.362 102.189 191.515 102.509C199.342 102.703 211.185 103.004 225.2 107.999C233.783 111.064 241.921 115.4 249.389 120.909C253.405 123.867 257.265 127.213 260.883 130.86C262.396 132.383 262.386 134.836 260.863 136.349C259.34 137.853 256.887 137.853 255.373 136.33C252.037 132.964 248.468 129.88 244.772 127.155C237.915 122.102 230.457 118.115 222.581 115.312C209.73 110.734 199.08 110.463 191.301 110.269C179.352 109.958 165.812 109.609 151.758 116.059C135.939 123.324 127.385 135.593 121.73 143.711C114.466 154.138 110.615 163.866 107.511 171.693C103.03 183.012 99.4805 191.954 88.9764 195.242C85.1743 196.425 82.7787 196.105 80.2472 195.756C78.5402 195.523 76.7652 195.281 73.9525 195.407C54.1567 196.28 39.1329 213.195 31.9071 221.323C21.8685 232.613 12.1016 247.287 -5.87079 312.824C-8.55743 322.601 -11.0986 331.844 -13.1645 339.613L-13.9404 342.493C-17.9849 357.769 -20.497 368.448 -20.6619 374.229C-21.719 410.435 -8.41193 446.205 18.8715 480.56C47.0279 516.019 80.1599 531.033 99.9557 540.005C122.37 550.16 150.226 562.788 187.684 560.732C227.304 558.569 257.556 541.344 275.955 527.29C277.652 525.99 280.096 526.31 281.396 528.017C282.696 529.714 282.376 532.159 280.669 533.458C261.406 548.181 229.71 566.212 188.111 568.491C185.201 568.646 182.34 568.724 179.537 568.724L179.546 568.734Z" fill="black"/>
<path d="M167.026 346.334C165.338 346.334 163.777 345.218 163.292 343.511C162.71 341.455 163.903 339.302 165.959 338.72C167.327 338.332 200.488 328.856 207.578 326.829C215.871 324.462 221.254 322.92 226.103 321.378C232.679 319.293 237.635 317.411 243.202 314.88C252.087 310.835 268.09 300.855 276.936 290.836V290.613L278.158 289.439C279.71 287.965 282.164 288.023 283.648 289.575C284.462 290.428 284.811 291.554 284.695 292.64V293.687L283.803 294.764C273.881 306.694 255.608 317.77 246.423 321.95C240.545 324.618 235.346 326.596 228.45 328.779C223.494 330.35 218.063 331.911 209.712 334.288C202.622 336.315 169.451 345.791 168.083 346.179C167.724 346.276 167.375 346.324 167.026 346.324V346.334Z" fill="black"/>
<path d="M328.108 502.605C319.602 502.605 311.406 502.179 303.521 501.771C280.961 500.607 264.647 496.728 244.075 490.423C239.584 489.056 234.871 487.562 230.031 486.03C224.532 484.293 219.081 482.373 213.009 478.144C191.894 463.431 187.462 437.466 186.007 428.931C179.926 393.219 195.968 364.617 203.688 350.873L204.067 350.204C209.673 340.194 216.54 330.845 224.464 322.426C225.928 320.864 228.392 320.787 229.944 322.261C231.505 323.725 231.583 326.179 230.109 327.741C222.621 335.704 216.132 344.54 210.836 354.006L210.458 354.685C203.184 367.653 188.044 394.635 193.659 427.641C194.979 435.381 198.994 458.94 217.442 471.791C222.621 475.409 227.267 477.039 232.368 478.649C237.189 480.181 241.883 481.665 246.335 483.023C266.335 489.153 282.154 492.916 303.88 494.041C330.921 495.438 358.844 496.873 390.541 482.499C393.712 481.054 399.018 478.639 404.915 475.254C420.084 466.573 432.77 455.245 442.644 441.579C457.833 420.542 468.114 376.469 469.675 365.868C469.986 363.744 471.955 362.289 474.079 362.59C476.203 362.9 477.667 364.869 477.357 366.993C475.475 379.786 464.836 424.111 448.948 446.118C438.435 460.686 424.924 472.752 408.785 481.985C402.577 485.545 397.058 488.057 393.761 489.56C370.241 500.229 348.321 502.615 328.118 502.615L328.108 502.605Z" fill="black"/>
<path d="M311.88 645.153C311.395 645.153 310.901 645.133 310.396 645.085C296.614 643.814 289.601 625.793 288.331 622.195C286.507 616.87 285.916 611.778 287.196 595.6C288.079 584.369 289.01 578.239 289.698 573.768C290.174 570.635 290.523 568.375 290.62 565.747C291.105 553.623 285.799 543.652 276.488 530.51C274.083 527.105 271.416 523.497 268.584 519.676C267.255 517.891 265.897 516.039 264.491 514.128C258.012 505.302 250.64 497.038 242.58 489.57C241.009 488.115 240.912 485.661 242.367 484.09C243.822 482.519 246.276 482.422 247.847 483.877C256.266 491.685 263.977 500.317 270.746 509.54C272.143 511.442 273.501 513.275 274.82 515.059C277.672 518.919 280.368 522.557 282.822 526.029C293.093 540.529 298.942 551.731 298.369 566.057C298.253 569.112 297.855 571.692 297.361 574.941C296.701 579.296 295.789 585.271 294.926 596.211C293.762 611.022 294.208 615.415 295.663 619.654C295.896 620.314 301.686 636.492 311.104 637.355C315.925 637.791 320.425 633.747 329.329 625.279C331.007 623.689 332.539 622.108 334.023 620.44C335.74 618.529 337.156 616.764 338.533 615.047C341.938 610.828 345.148 606.832 351.307 602.428C355.41 599.49 359.881 597.026 364.604 595.115C366.593 594.31 368.852 595.271 369.658 597.249C370.463 599.237 369.512 601.497 367.524 602.302C363.363 603.99 359.425 606.153 355.817 608.743C350.521 612.535 347.893 615.794 344.566 619.916C343.131 621.701 341.647 623.543 339.804 625.6C338.184 627.423 336.496 629.159 334.663 630.905C325.75 639.382 319.688 645.143 311.88 645.143V645.153Z" fill="black"/>
<path d="M408.114 691C392.935 691 378.871 683.667 372.169 679.545C360.792 672.533 353.586 663.086 351.646 660.351C349.851 657.829 348.106 655.006 344.488 648.023C340.579 640.467 336.835 632.582 333.353 624.58C332.5 622.612 333.402 620.332 335.361 619.479C337.32 618.625 339.609 619.527 340.463 621.486C343.867 629.323 347.543 637.053 351.364 644.454C355.128 651.718 356.689 654.066 357.96 655.86C359.192 657.596 365.835 666.539 376.213 672.93C401.431 688.449 417.958 682.62 423.894 679.39C436.319 672.63 440.712 658.944 442.361 653.794C449.218 632.437 440.77 612.495 437.172 603.98C431.644 590.954 425.475 584.164 419.5 577.598C412.595 570.004 406.077 562.836 401.994 547.861C398.609 535.398 398.929 524.942 399.365 510.471C399.685 499.54 400.927 488.57 403.031 477.863C403.448 475.758 405.485 474.4 407.59 474.808C409.695 475.225 411.062 477.261 410.645 479.366C408.618 489.657 407.425 500.2 407.115 510.704C406.698 524.505 406.387 534.476 409.472 545.824C413.06 558.995 418.695 565.193 425.233 572.37C431.343 579.092 438.268 586.706 444.311 600.944C447.919 609.46 457.482 632.058 449.752 656.151C447.841 662.106 442.759 677.945 427.599 686.189C421.217 689.661 414.554 690.99 408.104 690.99L408.114 691Z" fill="black"/>
<path d="M511.72 334.889C489.868 309.613 464.999 298.11 455.64 293.775C430.597 282.185 408.095 278.984 391.645 276.646C385.292 275.744 378.872 275.056 372.441 274.58C375.603 271.942 378.532 268.674 380.889 264.59C383.217 260.575 384.788 256.143 385.593 251.4C391.956 248.15 398.017 243.349 401.587 235.639C406.077 225.93 405.563 213.971 400.248 204.437C399.763 203.564 399.249 202.739 398.706 201.954C399.055 198.394 398.987 194.844 398.464 191.382C396.34 177.386 387.494 165.408 372.169 155.777C361.404 149.007 350.221 145.767 338.931 146.184C338.698 146.184 338.475 146.213 338.242 146.223C338.116 138.92 336.584 131.907 333.645 125.312C326.012 108.232 311.948 100.909 307.331 98.5036C297.244 93.2564 286.362 90.919 275.499 91.5979C276.75 87.9026 277.749 83.9259 278.35 79.639C283.423 43.5487 256.498 19.5436 253.404 16.9248C246.683 11.2315 228.342 -1.81378 203.173 0.213325C184.551 1.70698 171.971 9.86389 164.707 16.4399C155.056 25.1593 149.954 35.2075 147.258 43.0541C141.904 36.4878 132.962 28.4861 115.309 21.7646C95.0479 14.0539 77.2792 16.6047 65.5239 18.2827L64.3018 18.4573C53.0412 20.0576 23.1293 24.3058 -0.740082 48.7668C-29.0807 77.8058 -29.5075 114.788 -29.6433 126.941C-29.847 144.477 -26.3941 161.742 -19.3817 178.269C-19.2556 178.569 -19.0907 178.831 -18.8967 179.083C-33.164 187.735 -46.7815 197.327 -59.5261 207.754C-92.7163 234.892 -110.272 259.576 -121.881 275.909C-132.628 291.02 -136.585 298.906 -138.166 308.343C-141.047 325.539 -137.012 351.358 -116.169 367.536C-105.635 375.713 -92.8327 379.864 -78.1192 379.864C-77.9446 379.864 -77.77 379.864 -77.5955 379.864C-52.2518 379.699 -33.9885 364.568 -25.172 355.306C-27.2088 363.86 -28.2854 369.835 -28.4018 374.035C-29.5075 412.103 -15.6378 449.571 12.8192 485.409C42.1395 522.343 77.6865 538.453 96.7743 547.105C118.219 556.823 144.533 568.753 179.566 568.753C182.369 568.753 185.22 568.675 188.13 568.52C228.711 566.299 259.883 549.064 279.282 534.554C286.682 545.533 291.047 554.806 290.62 565.766C290.513 568.394 290.174 570.654 289.698 573.787C289.019 578.258 288.079 584.388 287.196 595.61C285.916 611.778 286.517 616.87 288.331 622.175C289.087 624.387 296.139 643.785 310.396 645.094C310.901 645.143 311.405 645.162 311.89 645.162C319.698 645.162 325.759 639.391 334.673 630.914C335.041 630.565 335.371 630.235 335.72 629.896C338.523 636.084 341.462 642.165 344.498 648.014C348.155 655.055 349.891 657.878 351.656 660.351C353.605 663.086 360.851 672.562 372.16 679.526C378.852 683.648 392.916 691 408.105 691C414.564 691 421.227 689.671 427.619 686.199C442.779 677.964 447.861 662.126 449.772 656.161C457.511 632.049 447.939 609.46 444.34 600.954C438.298 586.706 431.373 579.092 425.262 572.371C418.735 565.193 413.09 558.996 409.511 545.824C406.427 534.496 406.718 525.039 407.144 510.704C407.445 500.811 408.531 490.86 410.355 481.103C422.013 474.236 436.494 463.382 448.957 446.108C463.292 426.254 473.369 388.186 476.58 371.561C482.118 373.55 487.753 375.945 493.495 378.855C509.731 387.08 520.148 397.642 527.044 404.625C531.826 409.475 535.57 413.277 539.236 413.277C540.293 413.277 541.331 412.967 542.398 412.268C544.144 411.124 545.22 409.174 545.598 406.497C546.462 400.28 543.494 388.797 537.665 375.771C531.137 361.193 521.933 346.674 511.749 334.899L511.72 334.889ZM394.555 232.389C389.812 242.661 379.046 246.346 369.91 249.101C365.332 246.366 359.745 241.72 356.506 234.281C350.773 221.1 355.671 206.755 363.072 198.385C364.75 196.484 366.66 194.786 368.755 193.293C377.145 195.3 387.95 198.307 393.488 208.229C397.552 215.523 397.979 225.009 394.555 232.389ZM249.195 254.222C250.873 258.092 253.094 261.652 255.82 264.872C247.876 265.463 242.561 264.668 229.564 262.728C227.052 262.35 224.259 261.933 221.126 261.477C211.572 260.09 203.59 259.033 197.179 258.179C189.061 257.103 182.136 256.191 178.13 255.337C179.178 254.823 180.361 254.261 181.534 253.708C183.484 252.787 185.705 251.739 188.304 250.439C199.09 245.066 203.745 241.749 208.255 238.548C212.29 235.687 216.092 232.971 224.424 228.772C233.88 224 242.406 220.692 249.952 218.85C248.235 222.176 246.984 225.687 246.256 229.373C244.627 237.608 245.616 245.978 249.214 254.241L249.195 254.222ZM265.625 263.805C261.552 260.206 258.409 255.949 256.304 251.118C253.356 244.329 252.522 237.511 253.841 230.857C254.821 225.911 256.945 221.323 260.145 217.191C261.687 217.094 263.171 217.065 264.597 217.133C272.201 217.482 276.411 219.276 278.913 220.595C287.118 224.931 292.055 230.925 292.812 237.472C293.258 241.274 292.521 247.219 286.536 254.009C280.94 260.352 273.142 262.67 265.616 263.805H265.625ZM300.532 236.579C299.776 230.11 296.362 224.174 290.726 219.276C292.618 217.327 294.577 215.465 296.594 213.709C296.623 213.68 296.653 213.661 296.682 213.631C304.014 207.269 312.161 202.187 321.046 198.482C327.554 195.766 341.588 189.927 358.853 191.556C358.309 192.1 357.776 192.652 357.262 193.234C348.892 202.701 341.811 219.946 349.386 237.365C351.995 243.369 355.797 247.879 359.677 251.235C353.479 251.904 343.567 252.137 327.748 250.604C318.417 249.702 308.98 248.335 299.621 246.589C300.775 242.7 300.852 239.266 300.542 236.56L300.532 236.579ZM-26.0546 344.443C-29.5366 349.03 -48.411 371.901 -77.6536 372.095C-90.7862 372.153 -102.163 368.584 -111.416 361.406C-129.553 347.323 -133.045 324.715 -130.523 309.623C-129.33 302.523 -126.692 296.054 -115.567 280.41C-104.19 264.416 -87.0035 240.236 -54.6184 213.758C-37.354 199.645 -18.4797 187.066 1.481 176.358C3.37231 175.349 4.08035 172.992 3.07164 171.101C2.06294 169.21 -0.29393 168.502 -2.18525 169.51C-5.57992 171.334 -8.93579 173.225 -12.2626 175.146C-18.8288 159.637 -22.0683 143.449 -21.8743 127.019C-21.7482 115.632 -21.3506 80.9871 4.82717 54.1789C26.844 31.6189 53.8656 27.7781 65.4075 26.1389L66.6296 25.9643C78.2588 24.2961 94.175 22.0168 112.564 29.0098C134.562 37.3704 141.215 47.3799 145.619 54.0043C145.628 54.0237 145.648 54.0334 145.658 54.0528C145.793 54.2468 145.939 54.4311 146.104 54.596C146.181 54.6736 146.278 54.7415 146.356 54.8093C146.463 54.8966 146.569 54.9936 146.686 55.0809C146.802 55.1585 146.918 55.2167 147.045 55.2749C147.151 55.3331 147.248 55.3913 147.355 55.4398C147.568 55.5271 147.782 55.595 148.005 55.6435C148.034 55.6435 148.053 55.6629 148.082 55.6726C148.335 55.7211 148.587 55.7502 148.849 55.7502C148.936 55.7502 149.033 55.7308 149.12 55.7211C149.285 55.7114 149.44 55.7017 149.605 55.6726C149.721 55.6532 149.828 55.6047 149.945 55.5756C150.071 55.5368 150.206 55.5077 150.333 55.4592C150.565 55.3622 150.788 55.2458 151.002 55.1003C151.041 55.0809 151.06 55.0518 151.099 55.0227C151.273 54.8966 151.438 54.7706 151.593 54.6154C151.681 54.5281 151.749 54.4311 151.816 54.3438C151.904 54.2371 151.991 54.1401 152.069 54.0334C152.146 53.917 152.204 53.8006 152.263 53.6746C152.321 53.5679 152.379 53.4709 152.428 53.3642C152.515 53.1605 152.573 52.9568 152.622 52.7434C152.622 52.7047 152.651 52.6756 152.651 52.6368C154.028 45.8474 158.111 32.8604 169.925 22.1817C176.307 16.4108 187.364 9.25285 203.813 7.93378C226.111 6.13945 242.425 17.7589 248.409 22.8315C249.505 23.7627 275.266 46.022 270.688 78.5527C269.854 84.5079 268.166 89.8133 266.052 94.4882C266.013 94.5658 265.974 94.6337 265.945 94.721C261.309 104.818 254.675 111.879 250.252 115.807C248.652 117.233 248.506 119.686 249.922 121.287C249.932 121.296 249.952 121.306 249.961 121.326C242.377 115.632 234.103 111.171 225.219 108.009C211.223 103.023 199.371 102.723 191.534 102.519C179.381 102.209 164.241 101.821 148.558 109.017C130.808 117.165 121.158 131.015 115.387 139.298C107.618 150.452 103.573 160.655 100.324 168.851C95.8238 180.209 93.3602 185.766 86.6873 187.851C84.5341 188.53 83.4575 188.375 81.3043 188.084C79.4518 187.832 77.1337 187.522 73.6226 187.677C50.5583 188.695 34.0602 207.269 26.1263 216.192C15.4283 228.229 5.07935 243.65 -13.3392 310.797C-16.889 323.726 -19.789 334.317 -22.078 343.036C-23.5232 342.697 -25.0944 343.201 -26.0449 344.462L-26.0546 344.443ZM187.693 560.761C150.226 562.807 122.36 550.179 99.9653 540.034C80.1695 531.062 47.0375 516.048 18.8811 480.589C-8.40234 446.215 -21.7094 410.445 -20.662 374.258C-20.4195 365.858 -15.5603 348.148 -5.87089 312.843C12.1015 247.316 21.8781 232.632 31.9167 221.342C39.1425 213.214 54.176 196.299 73.9621 195.426C76.7748 195.3 78.5401 195.543 80.2568 195.776C82.7979 196.115 85.1936 196.445 88.9957 195.252C99.4997 191.964 103.05 183.021 107.531 171.702C110.634 163.885 114.485 154.147 121.749 143.73C127.404 135.612 135.959 123.333 151.787 116.069C165.832 109.619 179.381 109.968 191.33 110.278C199.119 110.482 209.778 110.754 222.61 115.322C234.879 119.686 245.907 126.767 255.393 136.34C256.896 137.862 259.36 137.872 260.882 136.369C262.405 134.865 262.415 132.402 260.912 130.879C257.769 127.708 254.471 124.798 251.028 122.131C251.591 122.422 252.202 122.586 252.823 122.586C253.734 122.586 254.656 122.266 255.393 121.607C260.087 117.446 267.003 110.133 272.143 99.7257C280.048 98.6297 291.405 98.9498 303.772 105.39C307.797 107.485 320.056 113.867 326.584 128.474C329.212 134.361 330.531 140.646 330.531 147.212C321.744 149.075 314.218 153.206 305.246 158.143C297.05 162.653 289.31 168.027 282.23 174.127C280.61 175.524 280.426 177.978 281.823 179.597C283.219 181.217 285.673 181.402 287.293 180.005C293.966 174.263 301.26 169.19 308.98 164.942C320.609 158.551 328.281 154.322 339.222 153.934C353.838 153.42 364.546 160.131 368.057 162.343C381.384 170.713 389.036 180.878 390.811 192.546C390.889 193.04 390.927 193.545 390.986 194.049C384.177 189.122 376.214 187.075 370.055 185.611C369.405 185.242 368.668 185.077 367.921 185.126C344.905 180.131 325.469 188.23 318.068 191.314C310.406 194.515 303.238 198.646 296.624 203.671C295.983 201.42 295.169 199.228 294.179 197.124C286.294 180.451 269.796 174.447 264.374 172.478C253.715 168.599 244.055 168.531 237.828 169.161C211.96 171.77 193.474 190.936 178.625 206.338C176.336 208.704 174.095 211.158 171.961 213.631C170.565 215.251 170.739 217.705 172.359 219.102C173.096 219.732 173.998 220.043 174.891 220.043C175.977 220.043 177.063 219.587 177.829 218.694C179.876 216.328 182.019 213.981 184.202 211.711C198.905 196.464 215.559 179.19 238.604 176.872C244.025 176.329 252.435 176.387 261.726 179.762C266.896 181.644 280.649 186.639 287.167 200.431C288.476 203.186 289.388 206.144 289.941 209.228C288.02 210.974 286.158 212.797 284.344 214.708C283.763 214.369 283.171 214.039 282.56 213.719C277.536 211.071 271.949 209.684 264.985 209.364C262.774 209.267 260.465 209.325 258.041 209.558C257.885 209.558 257.721 209.587 257.565 209.616C247.168 210.693 234.889 214.766 220.932 221.818C212.077 226.289 207.858 229.295 203.765 232.195C199.497 235.222 195.084 238.364 184.842 243.466C182.31 244.727 180.138 245.755 178.217 246.667C171.156 250.013 167.267 251.846 167.665 256.307C168.092 261.06 173.659 262.263 176.656 262.912C180.826 263.814 186.927 264.619 196.17 265.842C202.562 266.685 210.515 267.743 220.02 269.12C223.143 269.576 225.927 269.993 228.429 270.371C238.778 271.923 244.646 272.796 250.912 272.796C253.133 272.796 255.402 272.689 257.934 272.456C268.341 271.516 282.599 270.216 292.385 259.12C293.956 257.335 295.246 255.58 296.303 253.863C306.507 255.822 316.817 257.326 327.011 258.305C335.847 259.159 342.966 259.498 348.756 259.498C359.852 259.498 366.069 258.267 370.113 257.103C370.433 257.054 370.744 256.957 371.035 256.831C372.8 256.298 374.72 255.725 376.718 255.046C376.059 257.015 375.215 258.897 374.197 260.672C370.356 267.316 364.575 271.322 358.988 273.872C358.882 273.872 358.775 273.872 358.668 273.863C357.446 273.824 356.35 274.386 355.613 275.269C352.005 276.598 348.669 277.393 346.273 277.946C338.077 279.857 325.09 280.759 309.737 274.154C307.836 273.339 304.014 270.381 301.492 268.422C299.863 267.161 298.689 266.249 297.846 265.725C297.846 265.725 297.826 265.715 297.816 265.706C297.816 265.706 297.807 265.706 297.797 265.696C297.671 265.618 297.535 265.57 297.399 265.502C297.302 265.454 297.215 265.395 297.118 265.357C296.895 265.269 296.662 265.211 296.43 265.172C296.41 265.172 296.391 265.163 296.362 265.153C296.177 265.124 295.993 265.124 295.809 265.124C295.508 265.124 295.217 265.143 294.926 265.201C294.907 265.201 294.887 265.201 294.868 265.201C294.703 265.24 294.538 265.308 294.383 265.366C294.305 265.395 294.228 265.415 294.16 265.444C294.024 265.502 293.908 265.589 293.772 265.667C293.685 265.715 293.588 265.764 293.51 265.822C293.306 265.968 293.112 266.133 292.938 266.317C292.928 266.327 292.918 266.346 292.899 266.365C292.734 266.54 292.589 266.724 292.463 266.938C292.395 267.044 292.356 267.161 292.298 267.267C292.24 267.384 292.172 267.49 292.123 267.617C292.123 267.617 292.123 267.636 292.113 267.646C289.107 275.628 282.987 286.927 270.96 295.492C253.802 307.703 235.335 306.364 228.391 305.86C205.142 304.182 188.935 291.68 181.35 284.386C179.808 282.902 177.354 282.951 175.86 284.493C174.377 286.035 174.425 288.489 175.967 289.983C184.308 298.004 202.145 311.747 227.828 313.609C229.758 313.745 232.503 313.949 235.82 313.949C238.943 313.949 242.6 313.774 246.576 313.212C245.383 313.833 244.249 314.385 243.22 314.851C232.804 319.584 224.918 321.844 207.586 326.79C200.506 328.818 167.335 338.294 165.967 338.682C163.911 339.273 162.718 341.417 163.3 343.473C163.785 345.18 165.337 346.286 167.025 346.286C167.374 346.286 167.733 346.237 168.092 346.14C169.459 345.752 202.63 336.276 209.768 334.23C211.912 333.619 213.91 333.046 215.791 332.503C211.437 338.1 207.508 344.006 204.065 350.156L203.687 350.825C195.976 364.568 179.934 393.171 186.015 428.873C187.47 437.408 191.893 463.382 213.018 478.096C219.089 482.325 224.53 484.235 230.03 485.981C234.608 487.436 238.972 488.813 243.201 490.113C251.018 497.416 258.176 505.476 264.491 514.079C265.945 516.058 267.361 517.969 268.729 519.831C270.882 522.741 272.919 525.495 274.82 528.133C256.304 542.022 226.48 558.588 187.693 560.712V560.761ZM402.004 547.861C406.077 562.837 412.605 570.004 419.501 577.599C425.476 584.165 431.644 590.954 437.173 603.99C440.781 612.496 449.229 632.427 442.362 653.794C440.703 658.945 436.309 672.63 423.885 679.39C417.939 682.62 401.402 688.459 376.204 672.931C365.875 666.568 359.192 657.587 357.951 655.851C356.651 654.017 355.157 651.767 351.365 644.444C347.912 637.781 344.585 630.808 341.443 623.718C342.578 622.389 343.586 621.128 344.547 619.935C347.873 615.803 350.502 612.544 355.797 608.752C359.396 606.172 363.334 604.009 367.504 602.312C369.492 601.507 370.443 599.237 369.638 597.258C368.833 595.27 366.563 594.32 364.585 595.125C359.852 597.045 355.38 599.509 351.287 602.438C345.129 606.841 341.918 610.837 338.514 615.056C336.011 618.15 333.431 621.361 329.309 625.289C320.406 633.756 315.915 637.791 311.094 637.354C301.531 636.472 295.712 619.819 295.654 619.644C294.199 615.396 293.743 611.002 294.916 596.201C295.78 585.261 296.691 579.296 297.351 574.941C297.846 571.682 298.243 569.112 298.36 566.047C299.077 547.842 288.961 534.176 274.956 515.253C273.588 513.41 272.182 511.499 270.737 509.531C266.925 504.342 262.813 499.347 258.458 494.575C272.453 498.309 286.207 500.869 303.481 501.762C311.385 502.169 319.591 502.596 328.116 502.596C348.319 502.596 370.239 500.21 393.75 489.541C395.864 488.581 398.551 487.358 401.655 485.807C400.394 493.973 399.628 502.237 399.375 510.452C398.939 524.933 398.628 535.398 402.013 547.842L402.004 547.861ZM538.043 404.48C536.569 403.248 534.474 401.114 532.553 399.175C525.308 391.832 514.358 380.727 496.987 371.93C464.582 355.519 436.329 354.598 406.417 353.618C378.872 352.716 341.152 351.484 298.961 370.223C282.123 377.701 266.314 387.565 251.95 399.533C250.301 400.911 250.078 403.355 251.455 404.994C252.832 406.643 255.276 406.856 256.916 405.489C270.717 393.976 285.925 384.5 302.103 377.313C342.665 359.292 379.366 360.504 406.155 361.377C427.338 362.066 447.667 362.745 469.102 369.127C466.376 383.549 456.571 422.268 442.633 441.569C430.5 458.378 416.252 468.756 405.03 475.196C404.894 475.264 404.758 475.332 404.632 475.419C398.861 478.707 393.924 480.947 390.53 482.49C358.824 496.864 330.89 495.418 303.869 494.022C276.43 492.606 258.894 487.048 232.358 478.639C227.256 477.019 222.62 475.39 217.431 471.782C198.983 458.931 194.968 435.371 193.649 427.622C188.023 394.626 203.163 367.643 210.438 354.675L210.816 353.996C215.956 344.831 222.222 336.247 229.428 328.468C235.539 326.509 240.563 324.608 246.421 321.951C255.577 317.79 273.753 306.772 283.704 294.861C290.251 288.324 294.577 281.234 297.39 275.114C300.435 277.471 304.034 280.196 306.643 281.321C316.817 285.696 326.118 287.141 333.945 287.141C339.416 287.141 344.168 286.433 348.009 285.54C350.948 284.852 355.497 283.785 360.453 281.719C370.472 282.039 380.588 282.912 390.539 284.328C406.504 286.598 428.356 289.711 452.361 300.816C461.304 304.958 485.067 315.957 505.832 339.962C528.46 366.13 538.373 396.168 538.023 404.48H538.043Z" fill="#262626"/>
</g>
<defs>
<clipPath id="clip0_165_5165">
<rect width="684.715" height="691" fill="white" transform="translate(-139)"/>
</clipPath>
</defs>
</svg>
