<svg width="944" height="740" viewBox="0 0 944 740" fill="none" xmlns="http://www.w3.org/2000/svg">
<g clip-path="url(#clip0_165_5135)">
<path d="M807.968 689.871C804.754 711.766 785.178 794.928 755.777 835.65C732.202 868.301 704.536 888.48 682.458 901.117C671.429 907.435 661.787 911.872 654.774 915.068C593.453 942.88 539.199 940.068 488.214 937.438C445.428 935.228 414.804 927.632 378.117 916.383C369.717 913.826 361.007 911.069 351.748 908.129C342.161 905.097 332.464 901.774 321.672 894.25C284.419 868.301 276.512 821.9 273.864 806.359C262.652 740.546 293.495 687.077 307.027 662.936C318.732 642.045 331.971 625.245 344.371 612.06C356.478 608.225 366.138 604.628 377.387 599.515C396.488 590.822 428.646 570.169 445.173 550.301C445.173 550.283 445.191 550.264 445.209 550.246C461.936 533.61 469.898 515.513 473.276 506.529C477.057 508.885 490.04 520.097 496.706 522.964C505.672 526.817 534.725 538.742 570.043 530.487C575.923 529.118 584.652 527.073 593.873 523.055C608.72 523.493 629.008 524.717 652.802 528.095C682.824 532.368 725.08 538.376 771.244 559.742C790.108 568.471 835.067 589.836 874.384 635.307C921.954 690.346 945.401 762.35 933.605 770.092C924.383 776.137 903.967 734.684 848.854 706.781C834.866 699.696 821.28 694.181 807.968 689.871Z" fill="#FF9D46"/>
<path d="M663.667 388.488C672.25 403.882 673.583 424.061 665.932 440.606C659.431 454.667 647.89 462.957 635.764 468.509C627.711 472.198 619.402 474.681 612.116 476.854C612.079 476.854 612.043 476.854 612.006 476.891C601.598 471.23 588.413 461.15 580.962 444.002C569.056 416.665 578.424 386.9 594.549 368.657C599.242 363.361 604.3 359.252 609.249 356.075C609.45 356.111 609.651 356.148 609.852 356.203C625.027 359.782 646.356 364.84 659.613 382.298C661.074 384.197 662.426 386.26 663.667 388.488Z" fill="#262626"/>
<path d="M612.006 476.891C612.006 476.891 612.079 476.873 612.115 476.854C619.402 474.681 627.71 472.198 635.764 468.509C634.851 476.179 632.568 485.364 627.272 494.513C618.726 509.286 605.87 517.851 593.873 523.055C584.651 527.073 575.922 529.118 570.042 530.487C534.724 538.741 505.671 526.817 496.705 522.964C490.039 520.097 477.056 508.884 473.276 506.529C469.897 515.513 461.935 533.61 445.208 550.246C445.19 550.264 445.172 550.283 445.172 550.301C428.645 570.169 396.487 590.822 377.386 599.515C366.137 604.628 356.477 608.225 344.37 612.06C331.97 625.245 318.731 642.045 307.026 662.936C293.494 687.077 262.651 740.546 273.863 806.359C276.511 821.899 284.418 868.301 321.671 894.25C332.464 901.774 342.16 905.097 351.747 908.129C361.006 911.069 369.716 913.826 378.117 916.383C391.776 929.056 406.348 944.669 420.3 963.679C428.627 975.019 436.278 985.154 442.962 994.614L440.46 998.613C414.438 1018.5 354.34 1058.47 270.229 1063.07C197.897 1067.04 144.483 1042.82 101.642 1023.41C61.924 1005.41 -0.693583 976.152 -53.7241 909.37C-70.8713 887.786 -132.813 809.756 -129.745 704.425C-129.417 692.592 -124.687 672.304 -115.41 637.589C-115.41 637.571 -115.392 637.571 -115.392 637.571C-111.594 623.309 -107.01 606.618 -101.641 587.079C-68.4426 466.007 -49.7249 435.274 -28.9254 411.881C-13.6225 394.661 15.8328 362.393 55.3683 360.64C69.2285 360.019 71.9859 363.708 81.8105 360.64C110.627 351.619 106.664 313.8 139.662 266.431C150.399 251.018 167.547 226.402 199.157 211.884C227.151 199.047 254.251 199.741 276.84 200.325C292.709 200.727 313.235 201.421 337.997 210.241C355.674 216.541 370.191 225.087 381.659 233.542C387.795 228.082 409.453 207.593 422.93 180.694L423.843 181.151C433.904 179.361 460.894 175.91 491.719 191.962C500.886 196.728 524.918 209.693 537.975 238.929C545.535 255.857 546.558 271.872 545.864 283.322C548.749 282.92 551.744 282.647 554.848 282.537C584.048 281.514 605.669 294.699 613.302 299.483C622.068 304.998 653.934 325.031 659.467 361.444C660.672 369.351 660.38 376.473 659.613 382.298C646.355 364.84 625.026 359.782 609.851 356.203C609.65 356.148 609.449 356.111 609.248 356.075C568.27 346.579 533.647 360.476 518.07 366.958C498.257 375.231 482.424 386.133 470.153 396.797C463.396 402.659 457.717 408.466 453.042 413.707C449.445 411.224 446.432 409.635 445.007 408.886C438.488 405.435 429.449 402.184 414.986 401.527C412.247 401.399 408.156 401.308 402.532 401.874C389.329 403.152 367.726 407.991 335.678 424.171C302.022 441.172 305.82 445.956 267.691 464.966C248.188 474.699 238.985 477.548 239.368 481.967C240.007 488.998 264.13 489.674 331.715 499.516C370.374 505.159 380.892 507.606 401.381 505.743C405.307 505.378 409.361 505.013 413.488 504.483C430.471 502.347 448.404 497.836 461.424 483.1C463.013 481.292 467.176 476.58 470.518 469.842C495.299 474.827 516.463 477.548 532.807 479.119C584.651 484.159 603.788 479.338 612.006 476.891Z" fill="#A6C2FA"/>
<path d="M580.963 444.002C588.413 461.15 601.598 471.23 612.007 476.891C603.789 479.338 584.651 484.159 532.808 479.119C516.464 477.548 495.299 474.827 470.519 469.842C473.66 463.524 476.107 455.416 475.029 446.267C473.149 430.179 461.48 419.514 453.043 413.707C457.718 408.466 463.397 402.659 470.154 396.797C482.425 386.133 498.258 375.231 518.071 366.958C533.648 360.476 568.271 346.579 609.249 356.075C604.3 359.252 599.242 363.361 594.549 368.657C578.424 386.9 569.056 416.665 580.963 444.002Z" fill="white"/>
<path d="M470.518 469.842C467.177 476.58 463.013 481.292 461.424 483.099C448.404 497.836 430.472 502.347 413.489 504.483L413.379 503.643C405.892 497.38 397.802 488.322 392.324 475.722C389.932 470.244 383.12 453.955 387.229 433.246C389.914 419.697 396.268 409.288 402.532 401.874C408.157 401.308 412.247 401.399 414.986 401.527C429.449 402.184 438.488 405.435 445.008 408.886C446.432 409.635 449.445 411.223 453.043 413.707C461.479 419.514 473.148 430.179 475.029 446.267C476.106 455.416 473.659 463.524 470.518 469.842Z" fill="#262626"/>
<path d="M-109.183 339.676C-117.31 320.52 -132.558 280.729 -132.083 239.094C-131.827 217.29 -131.06 149.504 -79.7281 96.912C-36.5404 52.6652 17.2571 45.0137 38.5314 42.0006C60.9744 38.8049 93.2966 33.4909 130.933 47.8077C173.92 64.1514 187.725 84.2205 196.673 97.679C198.664 87.8727 205.731 59.6227 231.443 36.3762C259.053 11.3949 290.225 8.43655 299.557 7.68785C347.164 3.87126 380.764 30.6056 388.836 37.4353C392.871 40.8684 442.378 84.33 433.283 148.938C431.713 160.096 427.878 170.815 422.929 180.694C409.453 207.593 387.795 228.082 381.659 233.542C370.191 225.087 355.673 216.541 337.997 210.241C313.234 201.421 292.709 200.727 276.84 200.325C254.251 199.741 227.151 199.047 199.157 211.884C167.547 226.402 150.399 251.018 139.662 266.431C106.664 313.8 110.627 351.619 81.8104 360.64C71.9859 363.708 69.2284 360.019 55.3682 360.64C15.8327 362.393 -13.6226 394.661 -28.9255 411.881C-49.725 435.274 -68.4427 466.007 -101.642 587.079C-107.01 606.618 -111.594 623.309 -115.392 637.571C-115.392 637.571 -115.41 637.571 -115.41 637.589C-120.798 644.656 -169.555 707.493 -229.726 707.877C-239.678 707.95 -270.229 707.639 -297.821 686.219C-332.664 659.174 -341.995 614.617 -336.499 581.747C-333.942 566.425 -328.08 553.204 -307.098 523.712C-283.45 490.441 -251.529 446.267 -191.03 396.797C-170.998 380.435 -143.752 360.129 -109.183 339.676Z" fill="#3A80FE"/>
<path d="M413.38 503.644L413.489 504.484C409.362 505.013 405.308 505.378 401.382 505.744C380.893 507.606 370.375 505.159 331.716 499.517C264.131 489.674 240.008 488.998 239.369 481.968C238.985 477.548 248.189 474.7 267.692 464.966C305.821 445.957 302.023 441.172 335.678 424.171C367.727 407.992 389.33 403.152 402.533 401.874C396.269 409.288 389.914 419.697 387.23 433.247C383.121 453.955 389.932 470.244 392.325 475.722C397.803 488.322 405.893 497.38 413.38 503.644Z" fill="white"/>
<path d="M445.208 557.55C443.327 557.55 441.464 556.838 440.022 555.396C437.173 552.529 437.191 547.908 440.058 545.06C451.471 533.701 460.602 519.494 466.446 503.954C467.87 500.174 472.088 498.275 475.85 499.681C479.63 501.105 481.529 505.305 480.123 509.085C473.549 526.579 463.25 542.594 450.376 555.414C448.951 556.838 447.089 557.532 445.226 557.532L445.208 557.55Z" fill="black"/>
<path d="M360.477 591.188C354.195 591.188 349.027 590.804 345.375 590.549C297.056 587.061 263.455 561.185 247.733 546.064C244.829 543.27 244.738 538.65 247.532 535.729C250.326 532.825 254.946 532.734 257.867 535.528C272.166 549.278 302.699 572.799 346.453 575.958C359.528 576.908 394.26 579.446 426.601 556.437C431.367 553.04 435.896 549.224 440.041 545.097C442.908 542.248 447.528 542.266 450.377 545.115C453.226 547.964 453.207 552.602 450.359 555.451C445.647 560.126 440.516 564.472 435.092 568.325C407.682 587.828 379.195 591.151 360.514 591.151L360.477 591.188Z" fill="black"/>
<path d="M931.667 778.091C924.783 778.091 917.716 770.933 908.713 761.802C895.729 748.654 876.135 728.768 845.547 713.282C832.363 706.598 819.324 701.211 805.72 696.81C763.226 683.06 723.362 681.763 681.16 680.375C630.723 678.714 561.659 676.449 485.236 710.379C454.776 723.91 426.161 741.77 400.175 763.446C397.071 766.02 392.469 765.619 389.894 762.514C387.301 759.41 387.721 754.808 390.826 752.233C417.852 729.699 447.618 711.127 479.319 697.048C558.792 661.767 629.791 664.105 681.653 665.803C724.914 667.209 765.764 668.56 810.23 682.932C824.584 687.57 838.298 693.25 852.176 700.28C884.882 716.843 905.499 737.734 919.14 751.576C922.756 755.246 926.7 759.245 929.494 761.583C930.152 745.933 911.489 689.396 868.885 640.109C829.788 594.895 785.048 574.187 768.211 566.389C723.051 545.48 681.909 539.636 651.851 535.345C632.604 532.606 613.046 530.944 593.689 530.36L591.388 530.305C587.352 530.195 584.175 526.854 584.266 522.818C584.376 518.782 587.718 515.641 591.753 515.696L594.073 515.751C614.032 516.335 634.119 518.052 653.86 520.864C684.849 525.283 727.233 531.309 774.347 553.113C791.969 561.276 838.791 582.934 879.952 630.522C899.126 652.691 916.437 680.028 928.745 707.475C939.739 732 945.308 753.621 943.683 765.326C942.971 770.385 940.944 774.037 937.657 776.192C935.666 777.507 933.694 778.091 931.704 778.091H931.667Z" fill="black"/>
<path d="M388.781 513.651C376.93 513.651 365.827 511.989 346.233 509.049C341.576 508.355 336.426 507.57 330.637 506.73C312.723 504.118 297.731 502.146 285.678 500.539C268.312 498.238 256.826 496.722 248.973 495.024C243.349 493.801 232.867 491.536 232.064 482.607C231.333 474.188 238.656 470.719 251.95 464.418C255.566 462.702 259.656 460.766 264.404 458.392C283.706 448.769 292.015 442.87 300.05 437.155C307.738 431.676 315.7 426.033 332.372 417.615C358.924 404.211 382.28 396.469 401.801 394.569C407.919 393.949 412.448 394.058 415.315 394.186C428.463 394.789 438.981 397.382 448.404 402.385C449.828 403.134 453.188 404.905 457.169 407.644C467.432 414.712 480.105 426.983 482.26 445.372C483.338 454.576 481.584 463.889 477.037 473.056C473.294 480.58 468.674 485.857 466.939 487.829C451.746 505.031 430.873 509.615 414.383 511.678C410.439 512.19 406.586 512.537 402.879 512.884L402.057 512.957C397.273 513.395 392.981 513.596 388.781 513.596V513.651ZM251.822 480.726C259.346 482.333 272.366 484.049 287.632 486.076C299.721 487.683 314.768 489.655 332.774 492.285C338.581 493.125 343.749 493.91 348.424 494.604C374.446 498.512 384.198 499.973 400.724 498.457L401.546 498.384C405.143 498.056 408.85 497.709 412.575 497.234C427.404 495.371 444.131 491.664 455.964 478.26C457.516 476.489 461.095 472.417 463.981 466.592C467.249 460.018 468.528 453.462 467.779 447.107C466.263 434.16 456.676 425.066 448.915 419.715C445.646 417.469 442.926 416.026 441.629 415.351C436.918 412.849 429.01 409.471 414.675 408.831C412.046 408.704 408.394 408.631 403.28 409.142H403.244C385.768 410.84 363.544 418.291 338.983 430.69C323.296 438.615 316.138 443.71 308.541 449.097C300.05 455.124 291.285 461.369 270.96 471.504C266.066 473.933 261.902 475.923 258.232 477.658C256.022 478.699 253.776 479.758 251.822 480.744V480.726Z" fill="black"/>
<path d="M573.091 488.633C562.171 488.633 548.749 487.994 532.095 486.387C511.35 484.396 490.185 481.237 469.203 477.037C465.788 476.416 463.195 473.44 463.195 469.842C463.195 465.807 466.464 462.538 470.5 462.538H471.23L471.961 462.684C492.504 466.811 513.213 469.897 533.501 471.851C584.541 476.8 602.912 471.961 609.339 470.061L609.504 469.988L610.088 469.842C617.137 467.742 625.117 465.35 632.714 461.88C645.99 455.799 654.426 448.075 659.302 437.556C665.73 423.641 664.945 405.782 657.293 392.068C656.234 390.169 655.065 388.379 653.824 386.772C642.1 371.341 622.488 366.703 608.171 363.343L607.605 363.215C568.106 354.066 535.016 367.835 520.882 373.734C504.265 380.673 488.816 390.297 474.955 402.349C469.24 407.316 463.706 412.776 458.502 418.601C455.818 421.614 451.198 421.87 448.184 419.186C445.171 416.501 444.916 411.881 447.6 408.868C453.206 402.568 459.196 396.67 465.368 391.301C480.397 378.226 497.198 367.781 515.258 360.239C529.355 354.377 566.736 338.8 610.727 348.935C611.02 348.99 611.312 349.045 611.604 349.118C627.144 352.788 650.591 358.339 665.438 377.879C667.081 380.015 668.652 382.408 670.058 384.928C680.065 402.878 681.033 425.376 672.578 443.674C666.26 457.352 655.212 467.651 638.813 475.156C630.486 478.973 622.177 481.493 614.781 483.684L614.617 483.757L614.033 483.903C606.472 486.149 594.712 488.633 573.109 488.633H573.091Z" fill="black"/>
<path d="M413.379 510.948C411.717 510.948 410.056 510.382 408.704 509.25C398.533 500.74 390.772 490.441 385.64 478.644C378.866 463.14 377.003 447.381 380.089 431.84C382.609 419.112 388.288 407.462 396.981 397.181L397.273 396.852C400.049 393.93 404.687 393.821 407.609 396.596C410.457 399.317 410.64 403.773 408.047 406.695C401.016 415.04 396.433 424.445 394.406 434.671C391.904 447.235 393.475 460.072 399.026 472.8C403.244 482.515 409.654 491.007 418.072 498.037C421.159 500.63 421.579 505.232 418.985 508.318C417.543 510.053 415.461 510.93 413.379 510.93V510.948Z" fill="black"/>
<path d="M612.08 484.232C610.856 484.232 609.614 483.922 608.519 483.301C597.507 477.311 582.624 466.135 574.261 446.906C559.981 414.109 573.311 381.641 589.071 363.818C593.764 358.522 599.151 353.902 605.086 350.067C605.378 349.848 605.67 349.665 605.98 349.483C609.487 347.474 613.942 348.679 615.951 352.185C617.887 355.564 616.828 359.819 613.632 361.919L613.194 362.229C608.3 365.37 603.862 369.168 600.009 373.514C586.076 389.274 576.854 416.282 587.646 441.099C594.22 456.238 606.035 465.259 614.983 470.207L615.988 470.554L617.229 471.778C620.078 474.627 620.078 479.247 617.229 482.114C615.805 483.538 613.942 484.25 612.061 484.25L612.08 484.232Z" fill="black"/>
<path d="M545.206 540.604C530.469 540.604 512.975 537.901 493.819 529.666C488.523 527.383 481.054 521.612 475.065 516.956C472.746 515.166 470.353 513.304 469.404 512.719C465.971 510.583 464.93 506.072 467.066 502.657C469.203 499.242 473.695 498.183 477.128 500.32C478.699 501.306 480.927 503.022 484.013 505.415C488.779 509.122 495.992 514.691 499.59 516.244C528.479 528.661 552.949 526.981 568.379 523.365C573.913 522.069 582.276 520.133 590.95 516.353C604.464 510.491 614.544 501.909 620.935 490.842C624.953 483.921 627.491 476.105 628.495 467.632C628.97 463.633 632.604 460.748 636.603 461.241C640.602 461.716 643.469 465.35 642.995 469.349C641.753 479.813 638.576 489.509 633.572 498.147C625.574 511.971 613.192 522.598 596.757 529.739C586.878 534.048 577.729 536.167 571.685 537.591C564.453 539.271 555.505 540.604 545.188 540.604H545.206Z" fill="black"/>
<path d="M659.612 389.603C659.302 389.603 658.973 389.584 658.644 389.548C654.645 389.018 651.833 385.348 652.363 381.349C653.203 374.957 653.166 368.62 652.235 362.558C648.893 340.59 634.485 321.47 609.412 305.692C602.783 301.529 582.587 288.856 555.104 289.86C552.383 289.951 549.607 290.207 546.868 290.572C530.323 292.891 516.846 300.305 498.183 310.568C483.593 318.603 469.86 328.135 457.351 338.928C454.302 341.557 449.682 341.21 447.052 338.161C444.423 335.111 444.751 330.491 447.819 327.861C461.095 316.412 475.667 306.295 491.135 297.767C510.418 287.157 525.648 278.794 544.841 276.091C548.073 275.635 551.342 275.361 554.574 275.233C575.812 274.466 596.867 280.565 617.173 293.293C646.026 311.445 662.68 333.997 666.679 360.348C667.812 367.78 667.866 375.487 666.844 383.248C666.351 386.918 663.228 389.603 659.612 389.603Z" fill="black"/>
<path d="M245.687 414.328C243.988 414.328 242.29 413.743 240.902 412.556C237.852 409.909 237.524 405.307 240.153 402.257C244.317 397.454 248.426 392.962 252.717 388.525C280.657 359.526 315.463 323.442 364.165 318.53C375.907 317.361 394.095 317.489 414.164 324.775C455.453 339.859 466.61 363.434 470.281 371.195C473.933 378.919 476.325 387.246 477.384 395.921C477.878 399.92 475.029 403.572 471.03 404.065C467.03 404.576 463.378 401.709 462.885 397.71C462.009 390.57 460.055 383.759 457.06 377.44C444.807 351.528 418.949 342.087 409.215 338.526C391.703 332.171 375.834 332.043 365.608 333.066C322.237 337.43 290.883 369.971 263.199 398.678C259.09 402.933 255.146 407.224 251.183 411.826C249.741 413.488 247.695 414.346 245.65 414.346L245.687 414.328Z" fill="black"/>
<path d="M545.863 290.627C545.717 290.627 545.571 290.627 545.407 290.627C541.371 290.39 538.321 286.92 538.559 282.884C539.435 268.458 536.988 254.671 531.291 241.906C519.001 214.387 495.919 202.389 488.34 198.445C468.344 188.036 446.486 184.529 425.12 188.346C421.157 189.04 417.359 186.41 416.647 182.429C415.935 178.449 418.583 174.668 422.564 173.956C447.143 169.592 472.216 173.573 495.097 185.479C503.789 190.008 530.268 203.759 544.64 235.953C551.214 250.672 554.154 267.198 553.149 283.761C552.912 287.632 549.698 290.627 545.863 290.627Z" fill="black"/>
<path d="M381.66 240.847C379.651 240.847 377.642 240.025 376.2 238.4C373.515 235.387 373.789 230.767 376.802 228.082C381.094 224.266 403.117 203.923 416.393 177.426C421.469 167.291 424.72 157.375 426.053 147.916C434.508 87.8182 389.293 47.4062 384.107 42.987C372.84 33.4547 342.07 11.596 300.142 14.9561C269.171 17.4396 248.353 30.9164 236.337 41.7818C214.095 61.8873 206.425 86.3391 203.832 99.1219C203.029 103.085 199.176 105.641 195.213 104.819C191.25 104.016 188.712 100.163 189.516 96.2001C192.474 81.6642 201.203 53.8524 226.549 30.9346C240.245 18.5535 263.912 3.19589 298.973 0.383663C346.306 -3.3964 380.893 21.1101 393.548 31.8294C399.373 36.7782 450.066 82.0842 440.516 149.925C438.963 160.936 435.238 172.386 429.468 183.927C415.352 212.086 393.037 233.177 386.517 238.966C385.129 240.208 383.395 240.81 381.66 240.81V240.847Z" fill="black"/>
<path d="M-109.183 346.981C-112.032 346.981 -114.735 345.301 -115.904 342.525C-131.846 304.962 -139.734 270.138 -139.387 239.002C-139.114 216.085 -138.31 146.455 -84.9509 91.7989C-39.9918 45.7259 16.3074 37.764 37.5087 34.7509L39.7731 34.4222C61.9239 31.2448 95.3967 26.4421 133.544 40.9597C179.343 58.3627 194.007 80.4404 202.772 93.6067C205 96.9668 204.087 101.496 200.727 103.742C197.367 105.988 192.838 105.057 190.592 101.696C182.302 89.2241 169.756 70.3603 128.34 54.6008C93.7166 41.4345 63.7317 45.7259 41.8366 48.8668L39.5539 49.1955C-33.0161 59.4766 -63.1653 90.3563 -74.5055 101.97C-123.774 152.444 -124.541 217.655 -124.779 239.094C-125.107 268.22 -117.602 301.072 -102.463 336.773C-100.893 340.48 -102.628 344.771 -106.335 346.36C-107.266 346.762 -108.234 346.944 -109.183 346.944V346.981Z" fill="black"/>
<path d="M254.489 1070.8C188.548 1070.8 139.06 1048.37 98.6849 1030.08C62.6921 1013.75 -4.23511 983.42 -59.4387 913.899C-113.017 846.461 -139.131 775.9 -137.049 704.206C-136.684 691.314 -131.534 669.638 -122.714 636.621V630.267H-120.997C-117.381 616.79 -113.145 601.359 -108.671 585.125C-74.0111 458.703 -54.5082 429.667 -34.3661 407.005C-19.4284 390.205 11.6339 355.253 55.059 353.317C61.6695 353.025 66.0157 353.61 69.5218 354.084C73.5575 354.632 75.5845 354.906 79.6385 353.646C92.2022 349.702 96.8406 339.256 105.314 317.873C111.431 302.442 119.028 283.249 133.673 262.231C144.539 246.636 162.709 220.559 196.108 205.219C225.655 191.669 254.142 192.4 277.024 193.003C291.76 193.368 314.057 193.934 340.445 203.338C356.606 209.109 371.927 217.272 385.988 227.644C393.548 233.214 400.816 239.514 407.628 246.38C410.476 249.247 410.458 253.867 407.591 256.716C404.724 259.546 400.104 259.546 397.255 256.679C390.973 250.343 384.253 244.536 377.296 239.404C364.385 229.89 350.342 222.385 335.514 217.107C311.318 208.488 291.267 207.977 276.622 207.611C254.124 207.027 228.632 206.37 202.171 218.513C172.387 232.191 156.281 255.291 145.634 270.576C131.957 290.207 124.707 308.523 118.864 323.26C110.427 344.57 103.743 361.407 83.9664 367.598C76.808 369.826 72.2975 369.223 67.5314 368.566C64.3174 368.127 60.9756 367.671 55.6798 367.908C18.4088 369.552 -9.87781 401.399 -23.4824 416.702C-42.3827 437.958 -60.7718 465.587 -94.6097 588.978C-99.6681 607.385 -104.453 624.788 -108.342 639.415L-109.803 644.839C-117.418 673.6 -122.148 693.706 -122.458 704.59C-124.449 772.759 -99.3942 840.106 -48.0254 904.787C4.98679 971.55 67.367 999.818 104.638 1016.71C146.84 1035.83 199.286 1059.61 269.811 1055.73C344.407 1051.66 401.364 1019.23 436.006 992.77C439.201 990.323 443.803 990.925 446.25 994.139C448.697 997.335 448.095 1001.94 444.881 1004.38C408.614 1032.1 348.936 1066.05 270.614 1070.34C265.136 1070.64 259.749 1070.78 254.471 1070.78L254.489 1070.8Z" fill="black"/>
<path d="M230.913 652.07C227.736 652.07 224.796 649.97 223.883 646.757C222.787 642.885 225.033 638.831 228.905 637.735C231.48 637.005 293.915 619.164 307.264 615.347C322.877 610.892 333.012 607.988 342.142 605.084C354.523 601.158 363.855 597.616 374.337 592.849C391.064 585.235 421.195 566.444 437.849 547.58V547.16L440.15 544.95C443.072 542.175 447.692 542.284 450.486 545.206C452.02 546.813 452.677 548.931 452.458 550.977V552.949L450.778 554.976C432.097 577.437 397.693 598.291 380.4 606.162C369.333 611.184 359.545 614.909 346.562 619.018C337.23 621.976 327.004 624.916 311.281 629.39C297.932 633.207 235.479 651.048 232.904 651.778C232.228 651.961 231.571 652.052 230.913 652.052V652.07Z" fill="black"/>
<path d="M534.195 946.294C518.18 946.294 502.75 945.491 487.903 944.724C445.428 942.533 414.713 935.228 375.981 923.358C367.526 920.784 358.651 917.971 349.538 915.086C339.184 911.817 328.921 908.202 317.49 900.24C277.735 872.538 269.39 823.652 266.651 807.583C255.201 740.345 285.405 686.493 299.941 660.617L300.653 659.356C311.208 640.511 324.137 622.907 339.056 607.056C341.814 604.116 346.452 603.97 349.374 606.746C352.314 609.503 352.46 614.124 349.684 617.064C335.587 632.056 323.37 648.692 313.399 666.515L312.687 667.793C298.991 692.208 270.486 743.011 281.059 805.154C283.542 819.726 291.103 864.083 325.835 888.279C335.587 895.09 344.334 898.158 353.939 901.189C363.015 904.075 371.854 906.869 380.235 909.425C417.89 920.966 447.674 928.052 488.579 930.17C539.491 932.799 592.065 935.502 651.743 908.439C657.714 905.718 667.703 901.171 678.806 894.798C707.366 878.454 731.252 857.125 749.842 831.395C778.439 791.787 797.796 708.808 800.736 688.848C801.32 684.849 805.027 682.11 809.026 682.676C813.025 683.26 815.783 686.967 815.199 690.967C811.656 715.053 791.623 798.507 761.712 839.941C741.916 867.37 716.479 890.087 686.092 907.471C674.405 914.173 664.014 918.903 657.805 921.733C613.522 941.82 572.252 946.313 534.214 946.313L534.195 946.294Z" fill="black"/>
<path d="M879.898 630.522C838.756 582.934 791.934 561.276 774.312 553.113C727.162 531.291 684.796 525.265 653.825 520.864C641.863 519.166 629.775 517.869 617.667 516.974C623.621 512.007 629.136 505.853 633.573 498.165C637.956 490.605 640.914 482.26 642.43 473.33C654.409 467.213 665.822 458.173 672.542 443.656C680.997 425.376 680.029 402.86 670.022 384.909C669.109 383.266 668.141 381.714 667.119 380.234C667.776 373.533 667.648 366.849 666.662 360.33C662.663 333.979 646.009 311.426 617.156 293.293C596.886 280.547 575.831 274.447 554.575 275.233C554.137 275.233 553.717 275.287 553.279 275.306C553.041 261.555 550.156 248.352 544.623 235.935C530.251 203.777 503.772 189.989 495.08 185.461C476.089 175.581 455.599 171.18 435.147 172.459C437.503 165.501 439.384 158.014 440.516 149.943C450.066 81.9928 399.373 36.7964 393.548 31.8658C380.893 21.1465 346.361 -3.41477 298.973 0.401815C263.912 3.21404 240.227 18.5717 226.549 30.9528C208.38 47.3696 198.774 66.2882 193.698 81.0615C183.617 68.6986 166.781 53.6332 133.545 40.9782C95.3976 26.4605 61.943 31.2632 39.8105 34.4224L37.5096 34.7511C16.3083 37.7642 -40.0092 45.7626 -84.9499 91.8173C-138.309 146.491 -139.113 216.121 -139.368 239.002C-139.752 272.019 -133.251 304.524 -120.048 335.641C-119.811 336.207 -119.5 336.7 -119.135 337.175C-145.997 353.464 -171.636 371.524 -195.631 391.155C-258.121 442.249 -291.174 488.724 -313.032 519.476C-333.266 547.927 -340.716 562.773 -343.693 580.541C-349.116 612.919 -341.52 661.53 -302.276 691.989C-282.445 707.384 -258.34 715.199 -230.638 715.199C-230.309 715.199 -229.98 715.199 -229.652 715.199C-181.935 714.889 -147.549 686.402 -130.95 668.962C-134.785 685.068 -136.812 696.317 -137.031 704.224C-139.113 775.9 -112.999 846.443 -59.4208 913.918C-4.21725 983.456 62.71 1013.79 98.648 1030.08C139.023 1048.37 188.566 1070.84 254.526 1070.84C259.803 1070.84 265.172 1070.69 270.65 1070.4C347.055 1066.22 405.746 1033.77 442.269 1006.45C456.202 1027.12 464.42 1044.58 463.616 1065.21C463.415 1070.16 462.776 1074.42 461.881 1080.31C460.603 1088.73 458.832 1100.27 457.17 1121.4C454.759 1151.84 455.892 1161.43 459.306 1171.42C460.731 1175.58 474.007 1212.1 500.851 1214.57C501.8 1214.66 502.75 1214.7 503.663 1214.7C518.363 1214.7 529.776 1203.83 546.558 1187.87C547.252 1187.21 547.873 1186.59 548.531 1185.95C553.808 1197.61 559.341 1209.05 565.057 1220.07C571.941 1233.32 575.21 1238.64 578.534 1243.29C582.204 1248.44 595.845 1266.29 617.138 1279.4C629.738 1287.16 656.217 1301 684.814 1301C696.976 1301 709.521 1298.5 721.555 1291.96C750.098 1276.46 759.666 1246.64 763.264 1235.41C777.836 1190.01 759.813 1147.48 753.038 1131.46C741.661 1104.64 728.622 1090.3 717.118 1077.65C704.828 1064.13 694.2 1052.47 687.462 1027.67C681.655 1006.34 682.203 988.533 683.006 961.543C683.572 942.916 685.617 924.18 689.05 905.81C711 892.881 738.264 872.447 761.73 839.923C788.72 802.543 807.693 730.868 813.738 699.568C824.165 703.311 834.775 707.822 845.585 713.3C876.155 728.786 895.767 748.672 908.751 761.82C917.754 770.951 924.802 778.109 931.705 778.109C933.696 778.109 935.649 777.525 937.658 776.21C940.945 774.055 942.972 770.385 943.684 765.345C945.31 753.639 939.722 732.018 928.747 707.493C916.457 680.047 899.127 652.71 879.953 630.541L879.898 630.522ZM659.303 437.538C650.373 456.877 630.103 463.816 612.901 469.002C604.282 463.852 593.764 455.105 587.664 441.099C576.872 416.282 586.094 389.274 600.027 373.514C603.186 369.935 606.784 366.739 610.728 363.927C626.524 367.707 646.867 373.368 657.294 392.049C664.946 405.782 665.749 423.641 659.303 437.538ZM385.623 478.644C388.782 485.93 392.964 492.632 398.095 498.695C383.139 499.809 373.132 498.311 348.662 494.659C343.932 493.947 338.673 493.162 332.775 492.303C314.787 489.692 299.758 487.702 287.688 486.095C272.403 484.068 259.365 482.351 251.823 480.744C253.795 479.776 256.023 478.717 258.233 477.676C261.903 475.941 266.085 473.969 270.979 471.522C291.285 461.405 300.051 455.16 308.542 449.134C316.139 443.747 323.297 438.634 338.984 430.727C356.788 421.742 372.84 415.515 387.047 412.045C383.815 418.309 381.459 424.92 380.089 431.859C377.022 447.363 378.884 463.122 385.659 478.681L385.623 478.644ZM416.557 496.686C408.887 489.911 402.971 481.895 399.008 472.8C393.457 460.018 391.886 447.18 394.37 434.653C396.214 425.34 400.213 416.702 406.239 408.923C409.143 408.74 411.937 408.685 414.621 408.813C428.938 409.471 436.864 412.849 441.575 415.332C457.024 423.495 466.319 434.781 467.743 447.107C468.583 454.265 467.195 465.459 455.928 478.242C445.391 490.185 430.709 494.55 416.539 496.686H416.557ZM482.279 445.427C480.855 433.247 474.427 422.071 463.817 412.849C467.378 409.178 471.067 405.672 474.865 402.367C474.92 402.312 474.975 402.276 475.029 402.221C488.835 390.242 504.174 380.673 520.901 373.697C533.155 368.584 559.579 357.591 592.084 360.658C591.061 361.681 590.057 362.722 589.089 363.818C573.329 381.641 559.999 414.109 574.261 446.906C579.173 458.21 586.331 466.701 593.636 473.02C581.967 474.28 563.304 474.718 533.52 471.833C515.953 470.134 498.185 467.559 480.563 464.272C482.736 456.95 482.882 450.485 482.297 445.39L482.279 445.427ZM-132.612 648.51C-139.167 657.147 -174.704 700.207 -229.761 700.572C-254.487 700.682 -275.907 693.962 -293.328 680.448C-327.477 653.933 -334.051 611.366 -329.303 582.952C-327.057 569.585 -322.09 557.404 -301.144 527.949C-279.724 497.837 -247.365 452.311 -186.391 402.458C-153.886 375.888 -118.35 352.204 -80.7682 332.043C-77.2072 330.144 -75.8742 325.707 -77.7733 322.146C-79.6725 318.585 -84.1099 317.252 -87.6709 319.151C-94.0623 322.584 -100.381 326.145 -106.644 329.761C-119.007 300.561 -125.106 270.083 -124.741 239.149C-124.504 217.71 -123.755 152.481 -74.468 102.007C-33.0152 59.5315 17.8605 52.3001 39.5913 49.214L41.8922 48.8853C63.7874 45.7443 93.754 41.453 128.377 54.6193C169.794 70.3604 182.321 89.206 190.611 101.678C190.63 101.715 190.666 101.733 190.684 101.77C190.94 102.135 191.214 102.482 191.524 102.792C191.671 102.938 191.853 103.066 191.999 103.194C192.2 103.358 192.401 103.541 192.62 103.705C192.839 103.851 193.058 103.961 193.296 104.071C193.497 104.18 193.679 104.29 193.88 104.381C194.282 104.545 194.684 104.673 195.104 104.764C195.158 104.764 195.195 104.801 195.25 104.819C195.724 104.911 196.199 104.965 196.692 104.965C196.857 104.965 197.039 104.929 197.204 104.911C197.514 104.892 197.806 104.874 198.117 104.819C198.336 104.783 198.537 104.691 198.756 104.637C198.993 104.564 199.249 104.509 199.486 104.418C199.925 104.235 200.345 104.016 200.746 103.742C200.819 103.705 200.856 103.651 200.929 103.596C201.258 103.358 201.568 103.121 201.86 102.829C202.025 102.664 202.152 102.482 202.28 102.317C202.445 102.117 202.609 101.934 202.755 101.733C202.901 101.514 203.011 101.295 203.12 101.057C203.23 100.857 203.339 100.674 203.431 100.473C203.595 100.09 203.705 99.7061 203.796 99.3044C203.796 99.2314 203.851 99.1766 203.851 99.1035C206.444 86.3207 214.132 61.869 236.374 41.7634C248.39 30.898 269.208 17.4212 300.179 14.9377C342.161 11.5594 372.876 33.4363 384.143 42.9869C386.207 44.74 434.709 86.6494 426.089 147.897C424.519 159.11 421.341 169.099 417.361 177.901C417.287 178.047 417.214 178.174 417.16 178.339C408.431 197.349 395.94 210.643 387.613 218.039C384.6 220.723 384.326 225.343 386.992 228.356C387.01 228.374 387.047 228.393 387.065 228.429C372.785 217.71 357.208 209.31 340.481 203.357C314.13 193.97 291.815 193.404 277.06 193.021C254.179 192.436 225.673 191.706 196.145 205.256C162.727 220.595 144.557 246.672 133.691 262.267C119.064 283.268 111.449 302.478 105.332 317.909C96.8584 339.293 92.2201 349.757 79.6564 353.683C75.6024 354.961 73.5754 354.669 69.5214 354.121C66.0335 353.646 61.6691 353.062 55.0586 353.354C11.6335 355.271 -19.4288 390.242 -34.3665 407.042C-54.5086 429.704 -73.9932 458.739 -108.671 585.162C-115.355 609.504 -120.815 629.445 -125.125 645.862C-127.845 645.223 -130.804 646.172 -132.593 648.546L-132.612 648.51ZM269.828 1055.79C199.285 1059.64 146.821 1035.87 104.656 1016.76C67.3849 999.873 5.00465 971.605 -48.0076 904.842C-99.3763 840.124 -124.431 772.777 -122.458 704.644C-122.002 688.83 -112.853 655.485 -94.6101 589.015C-60.7722 465.642 -42.3649 437.995 -23.4645 416.739C-9.85995 401.436 18.4449 369.588 55.6977 367.945C60.9935 367.707 64.317 368.164 67.5492 368.602C72.3336 369.241 76.8442 369.862 84.0026 367.616C103.779 361.425 110.463 344.589 118.9 323.278C124.743 308.559 131.993 290.225 145.671 270.613C156.317 255.328 172.423 232.209 202.225 218.532C228.668 206.388 254.179 207.045 276.676 207.63C291.34 208.013 311.409 208.525 335.569 217.126C358.669 225.343 379.432 238.674 397.292 256.698C400.122 259.565 404.76 259.583 407.627 256.752C410.494 253.922 410.513 249.284 407.682 246.417C401.766 240.445 395.557 234.967 389.074 229.945C390.133 230.493 391.284 230.803 392.452 230.803C394.169 230.803 395.904 230.201 397.292 228.959C406.13 221.125 419.15 207.356 428.829 187.762C443.711 185.698 465.095 186.301 488.378 198.426C495.957 202.371 519.039 214.386 531.329 241.888C536.277 252.972 538.761 264.806 538.761 277.168C522.216 280.674 508.046 288.454 491.154 297.749C475.723 306.24 461.151 316.357 447.82 327.843C444.771 330.473 444.424 335.093 447.053 338.142C449.683 341.192 454.303 341.539 457.353 338.909C469.916 328.099 483.649 318.548 498.185 310.55C520.08 298.516 534.524 290.554 555.123 289.823C582.643 288.856 602.803 301.492 609.413 305.656C634.504 321.415 648.912 340.553 652.254 362.521C652.4 363.452 652.473 364.402 652.583 365.352C639.763 356.075 624.771 352.222 613.175 349.464C611.952 348.77 610.564 348.46 609.158 348.551C565.824 339.147 529.229 354.395 515.295 360.202C500.869 366.228 487.374 374.007 474.92 383.467C473.715 379.23 472.181 375.103 470.318 371.14C455.472 339.749 424.409 328.446 414.201 324.739C394.132 317.434 375.944 317.306 364.22 318.493C315.518 323.406 280.712 359.49 252.754 388.489C248.445 392.944 244.226 397.564 240.209 402.221C237.579 405.271 237.908 409.891 240.957 412.52C242.345 413.707 244.044 414.292 245.724 414.292C247.769 414.292 249.814 413.433 251.257 411.753C255.11 407.298 259.146 402.878 263.254 398.605C290.938 369.899 322.293 337.375 365.681 333.011C375.889 331.988 391.722 332.098 409.216 338.453C418.949 341.996 444.844 351.4 457.115 377.367C459.58 382.554 461.297 388.123 462.338 393.93C458.722 397.217 455.216 400.65 451.801 404.248C450.705 403.609 449.592 402.988 448.441 402.385C438.982 397.4 428.463 394.789 415.352 394.186C411.188 394.003 406.842 394.113 402.277 394.551C401.985 394.551 401.674 394.606 401.382 394.661C381.806 396.688 358.687 404.357 332.41 417.633C315.737 426.052 307.793 431.713 300.087 437.173C292.052 442.87 283.743 448.787 264.46 458.392C259.693 460.766 255.603 462.702 251.987 464.419C238.693 470.719 231.37 474.17 232.119 482.57C232.923 491.518 243.404 493.783 249.047 495.006C256.9 496.704 268.386 498.22 285.789 500.521C297.823 502.11 312.797 504.1 330.693 506.693C336.573 507.551 341.814 508.337 346.525 509.049C366.01 511.971 377.058 513.614 388.855 513.614C393.037 513.614 397.31 513.413 402.076 512.975C421.67 511.204 448.514 508.757 466.94 487.866C469.898 484.506 472.327 481.201 474.317 477.968C493.528 481.657 512.94 484.488 532.132 486.332C548.768 487.939 562.172 488.578 573.074 488.578C593.965 488.578 605.67 486.259 613.285 484.068C613.887 483.976 614.472 483.794 615.02 483.556C618.343 482.552 621.959 481.474 625.721 480.196C624.479 483.903 622.89 487.446 620.973 490.788C613.741 503.297 602.858 510.838 592.339 515.641C592.138 515.641 591.937 515.641 591.737 515.623C589.436 515.55 587.372 516.609 585.984 518.271C579.191 520.773 572.909 522.27 568.399 523.311C552.968 526.908 528.516 528.607 499.609 516.171C496.03 514.637 488.835 509.067 484.087 505.378C481.019 503.004 478.809 501.288 477.221 500.302C477.221 500.302 477.184 500.284 477.166 500.265C477.166 500.265 477.148 500.265 477.129 500.247C476.892 500.101 476.636 500.01 476.381 499.882C476.198 499.79 476.034 499.681 475.851 499.608C475.431 499.444 474.993 499.334 474.555 499.261C474.518 499.261 474.482 499.243 474.427 499.224C474.08 499.17 473.733 499.17 473.386 499.17C472.82 499.17 472.272 499.206 471.724 499.316C471.688 499.316 471.651 499.316 471.615 499.316C471.304 499.389 470.994 499.517 470.701 499.626C470.555 499.681 470.409 499.717 470.281 499.772C470.026 499.882 469.807 500.046 469.551 500.192C469.387 500.284 469.204 500.375 469.058 500.484C468.674 500.758 468.309 501.069 467.981 501.416C467.962 501.434 467.944 501.471 467.907 501.507C467.597 501.836 467.323 502.183 467.086 502.584C466.958 502.785 466.885 503.004 466.775 503.205C466.666 503.424 466.538 503.625 466.447 503.863C466.447 503.863 466.447 503.899 466.428 503.918C460.767 518.946 449.245 540.221 426.601 556.345C394.297 579.336 359.527 576.816 346.452 575.867C302.68 572.707 272.166 549.169 257.886 535.436C254.982 532.642 250.362 532.734 247.55 535.637C244.756 538.541 244.847 543.161 247.751 545.973C263.455 561.075 297.038 586.951 345.393 590.457C349.027 590.713 354.195 591.096 360.44 591.096C366.321 591.096 373.205 590.768 380.692 589.709C378.446 590.877 376.309 591.918 374.374 592.795C354.761 601.706 339.915 605.961 307.282 615.274C293.951 619.091 231.498 636.932 228.923 637.662C225.052 638.776 222.806 642.812 223.902 646.683C224.815 649.897 227.736 651.979 230.914 651.979C231.571 651.979 232.247 651.888 232.923 651.705C235.497 650.975 297.951 633.134 311.391 629.281C315.427 628.13 319.188 627.053 322.731 626.03C314.532 636.567 307.136 647.688 300.653 659.265L299.941 660.525C285.423 686.402 255.219 740.254 266.669 807.473C269.408 823.543 277.736 872.446 317.508 900.149C328.94 908.111 339.184 911.708 349.539 914.995C358.158 917.734 366.375 920.327 374.337 922.774C389.056 936.525 402.532 951.7 414.421 967.898C417.16 971.623 419.826 975.22 422.401 978.727C426.455 984.205 430.289 989.391 433.869 994.358C399.008 1020.51 342.855 1051.7 269.828 1055.7V1055.79ZM673.328 1031.5C680.997 1059.7 693.287 1073.19 706.271 1087.49C717.52 1099.85 729.134 1112.64 739.543 1137.18C746.336 1153.19 762.241 1190.72 749.312 1230.95C746.19 1240.65 737.917 1266.41 714.525 1279.14C703.331 1285.22 672.195 1296.22 624.753 1266.98C605.305 1255 592.723 1238.09 590.385 1234.82C587.938 1231.37 585.126 1227.13 577.986 1213.35C571.485 1200.8 565.221 1187.67 559.305 1174.32C561.441 1171.82 563.34 1169.45 565.148 1167.2C571.412 1159.42 576.361 1153.29 586.331 1146.15C593.106 1141.29 600.52 1137.22 608.372 1134.02C612.116 1132.5 613.906 1128.23 612.39 1124.51C610.874 1120.76 606.601 1118.97 602.876 1120.49C593.964 1124.1 585.546 1128.74 577.84 1134.26C566.244 1142.55 560.2 1150.07 553.79 1158.01C549.078 1163.84 544.221 1169.88 536.46 1177.28C519.696 1193.22 511.241 1200.82 502.165 1200C484.16 1198.34 473.203 1166.98 473.094 1166.65C470.355 1158.65 469.496 1150.38 471.706 1122.52C473.331 1101.92 475.048 1090.69 476.289 1082.49C477.221 1076.35 477.969 1071.51 478.189 1065.74C479.54 1031.46 460.493 1005.73 434.124 970.107C431.549 966.638 428.902 963.04 426.181 959.333C419.004 949.563 411.261 940.159 403.062 931.175C429.413 938.205 455.307 943.026 487.83 944.706C502.713 945.473 518.162 946.276 534.214 946.276C572.252 946.276 613.522 941.784 657.787 921.697C661.768 919.889 666.827 917.588 672.67 914.666C670.296 930.042 668.854 945.601 668.379 961.068C667.557 988.332 666.973 1008.04 673.346 1031.46L673.328 1031.5ZM929.459 761.546C926.683 759.227 922.739 755.21 919.123 751.557C905.482 737.734 884.865 716.825 852.159 700.262C791.149 669.364 737.954 667.629 681.636 665.785C629.775 664.086 558.757 661.767 479.321 697.048C447.619 711.127 417.854 729.699 390.809 752.233C387.704 754.826 387.284 759.428 389.877 762.514C392.471 765.619 397.072 766.02 400.159 763.445C426.144 741.769 454.778 723.928 485.237 710.397C561.606 676.467 630.706 678.75 681.143 680.394C721.026 681.69 759.301 682.968 799.658 694.984C794.527 722.139 776.065 795.037 749.824 831.377C726.979 863.024 700.153 882.563 679.025 894.689C678.769 894.816 678.514 894.944 678.276 895.109C667.411 901.299 658.116 905.517 651.725 908.421C592.029 935.484 539.437 932.763 488.561 930.134C436.9 927.467 403.884 917.004 353.921 901.171C344.316 898.122 335.587 895.054 325.817 888.261C291.084 864.065 283.524 819.708 281.041 805.118C270.449 742.993 298.955 692.19 312.651 667.775L313.363 666.497C323.042 649.24 334.838 633.079 348.406 618.433C359.911 614.745 369.37 611.165 380.4 606.162C397.638 598.328 431.86 577.583 450.596 555.158C462.922 542.85 471.067 529.501 476.362 517.979C482.096 522.416 488.871 527.547 493.784 529.666C512.94 537.902 530.452 540.622 545.189 540.622C555.488 540.622 564.436 539.289 571.668 537.609C577.201 536.313 585.765 534.304 595.097 530.414C613.96 531.017 633.007 532.661 651.743 535.327C681.801 539.6 722.943 545.462 768.14 566.371C784.976 574.168 829.716 594.876 868.814 640.073C911.417 689.342 930.08 745.896 929.422 761.546H929.459Z" fill="#262626"/>
</g>
<defs>
<clipPath id="clip0_165_5135">
<rect width="1289.17" height="1301" fill="white" transform="translate(-345.264)"/>
</clipPath>
</defs>
</svg>
