<svg width="105" height="28" viewBox="0 0 105 28" fill="none" xmlns="http://www.w3.org/2000/svg">
<g clip-path="url(#clip0_168_5195)">
<path d="M31.8398 25.5464V3.12682H39.173C41.6048 3.12682 43.436 3.63082 44.6624 4.63882C45.8888 5.64262 46.502 7.13362 46.502 9.11182C46.502 10.1576 46.208 11.09 45.6074 11.8922C45.0152 12.7028 44.2046 13.3286 43.1756 13.7696C44.3894 14.1056 45.347 14.7524 46.0526 15.6974C46.7582 16.6508 47.1026 17.7806 47.1026 19.0868C47.1026 21.0986 46.4516 22.6778 45.1454 23.8244C43.8434 24.9752 42.0038 25.5464 39.6224 25.5464H31.8398ZM34.8008 15.1094V23.1188H39.677C41.0546 23.1188 42.1424 22.766 42.9362 22.0562C43.73 21.3464 44.129 20.3678 44.129 19.1288C44.129 16.4492 42.6632 15.1094 39.7232 15.1094H34.8008ZM34.8008 12.6818H39.2612C40.5548 12.6818 41.588 12.3542 42.3692 11.7074C43.142 11.0606 43.5326 10.187 43.5326 9.07822C43.5326 7.84342 43.1714 6.94882 42.4532 6.39022C41.735 5.82742 40.6388 5.55022 39.173 5.55022H34.8008V12.6818ZM63.848 19.6832H54.4484L52.34 25.5506H49.2908L57.8546 3.12682H60.4418L69.0182 25.5506H65.9858L63.848 19.6832ZM55.3472 17.2556H62.9744L59.1524 6.77662L55.3472 17.2556ZM78.6446 15.5546C76.112 14.8238 74.2682 13.925 73.109 12.8624C71.954 11.7998 71.3744 10.4852 71.3744 8.92702C71.3744 7.16302 72.0842 5.70142 73.4912 4.54222C74.9066 3.38722 76.7378 2.80762 78.9932 2.80762C80.5346 2.80762 81.9122 3.10582 83.1134 3.70222C84.323 4.29442 85.2512 5.11762 85.9148 6.16762C86.5784 7.21342 86.9102 8.36002 86.9102 9.59902H83.9408C83.9408 8.24242 83.5082 7.17562 82.6472 6.39862C81.7862 5.62582 80.564 5.23522 78.9932 5.23522C77.5358 5.23522 76.4018 5.55442 75.587 6.19702C74.768 6.84382 74.3606 7.73002 74.3606 8.87242C74.3606 9.78802 74.7428 10.565 75.524 11.195C76.2968 11.825 77.6156 12.4046 79.4804 12.9296C81.341 13.4546 82.8026 14.0342 83.8526 14.6642C84.9026 15.2942 85.6838 16.0292 86.192 16.8776C86.7002 17.7176 86.9522 18.713 86.9522 19.8512C86.9522 21.6698 86.2424 23.1272 84.827 24.2192C83.4074 25.3112 81.5174 25.8572 79.1444 25.8572C77.603 25.8572 76.1624 25.5632 74.831 24.9752C73.4996 24.383 72.4706 23.5724 71.744 22.5476C71.0174 21.5228 70.6604 20.3552 70.6604 19.0532H73.6298C73.6298 20.4056 74.1296 21.4724 75.1334 22.2536C76.133 23.0348 77.4686 23.4296 79.1444 23.4296C80.7068 23.4296 81.8996 23.1104 82.7312 22.472C83.567 21.8378 83.9828 20.9684 83.9828 19.8764C83.9828 18.7844 83.5922 17.9276 82.8278 17.327C82.0676 16.7348 80.669 16.1384 78.6446 15.5546ZM103.429 15.2018H93.7142V23.1188H105V25.5464H90.7574V3.12682H104.848V5.55442H93.7142V12.7742H103.429V15.2018Z" fill="#2151F6"/>
<path d="M13.3686 27.7555C20.7774 27.7555 26.7876 21.7495 26.7876 14.3365C26.7876 6.92348 20.7816 0.91748 13.3686 0.91748C6.342 0.91748 0.5712 6.32708 0 13.2067H17.7324V15.4621H0C0.5712 22.3459 6.342 27.7555 13.3686 27.7555Z" fill="#2151F6"/>
</g>
<defs>
<clipPath id="clip0_168_5195">
<rect width="105" height="26.838" fill="white" transform="translate(0 0.91748)"/>
</clipPath>
</defs>
</svg>
