<svg width="654" height="254" viewBox="0 0 654 254" fill="none" xmlns="http://www.w3.org/2000/svg">
<path d="M109.411 128.905C108.124 150.895 52.4883 152.176 29.4937 154.147C25.301 154.935 17.5662 155.883 13.4336 157.09C10.9632 157.812 -3.47606 160.741 6.43523 160.741H22.4314C43.7002 160.741 69.1529 164.806 86.4163 173.884C93.4653 177.591 104.357 183.419 105.412 189.656C106.725 197.423 114.531 203.549 118.409 210.685C122.886 218.926 130.189 231.251 143.403 235.365C155.643 239.177 170.238 240.161 183.504 242.886C219.274 250.234 259.795 247.81 297.144 250.042C332.491 252.154 369.392 250.115 404.896 250.115C429.302 250.115 453.484 246.172 477.324 246.172C504.399 246.172 532.085 244.672 558.304 240.842C574.695 238.448 595.148 237.523 609.737 231.13C624.631 224.603 643.282 215.621 647.394 203.457C654.199 183.328 649.283 163.19 649.283 142.633C649.283 128.232 645.546 114.347 643.395 100.209C641.115 85.2166 637.286 68.9191 637.286 53.9888C637.286 43.4943 635.26 29.0091 618.29 24.0514C600.203 18.7674 583.456 11.2867 563.303 10.9082C522.664 10.145 481.318 6.96524 440.888 6.96524C409.241 6.96524 377.528 3.02227 346.021 3.02227C304.42 3.02227 262.778 2.6074 221.384 5.35885C190.875 7.38682 149.64 10.5567 132.405 30.6961C122.397 42.3918 118.714 54.0236 113.854 66.4018C109.921 76.4205 111.41 88.4888 111.41 98.9678C111.41 109.089 110.001 118.819 109.411 128.905Z" fill="white" stroke="#343230" stroke-width="5" stroke-linecap="round"/>
</svg>
