<svg width="259" height="95" viewBox="0 0 259 95" fill="none" xmlns="http://www.w3.org/2000/svg">
<g clip-path="url(#clip0_58_968)">
<path d="M70.1772 70.6128C69.8594 71.6316 69.7633 72.5253 69.3309 73.2167C67.9377 75.4417 66.441 77.5969 64.9444 79.7557C64.6968 80.1088 64.2829 80.3662 63.9059 80.6089C60.5541 82.7935 53.6398 82.7053 50.3508 80.4361C47.9856 78.8032 47.0618 76.4347 46.9952 73.6837C46.9472 71.6867 46.9842 69.686 46.8437 67.6044C45.9938 68.9689 44.8814 70.1421 44.1201 71.5286C41.0418 77.1592 36.0528 80.1823 30.0587 81.8336C29.0757 82.1021 28.5842 82.3301 28.3994 83.5548C28.0262 86.0704 27.3277 88.5786 24.8628 90.0461C24.4785 90.2741 24.46 90.7411 24.3011 91.1089C23.6876 92.5175 22.9485 93.8268 21.511 94.5734C19.8295 95.445 17.9263 94.9522 16.7438 93.334C15.7719 92.0026 15.3691 90.4543 15.3321 88.8471C15.2914 86.9715 15.3395 85.0884 15.4504 83.2128C15.4947 82.4772 15.2877 82.2235 14.5893 82.0727C11.9285 81.4953 9.37493 80.5869 7.02089 79.204C3.20712 76.9643 0.671996 73.7941 0.0991918 69.3293C-0.314706 66.1113 0.524176 63.1764 2.49758 60.5799C2.74518 60.2563 3.06669 59.9584 3.21081 59.5906C4.5412 56.2438 6.74742 53.8423 10.4281 53.0111C10.1732 52.4153 9.67426 52.2645 9.29363 51.9997C2.25368 47.0531 -0.0744974 40.1978 2.53823 32.0369C3.12212 30.209 3.28842 28.2782 4.00904 26.4798C6.67351 19.8084 11.9064 16.16 18.5805 14.2292C21.0306 13.5194 21.0121 13.5599 21.0491 11.0222C21.086 8.4625 21.4075 5.95059 22.5236 3.59683C22.8931 2.81715 23.3698 2.11102 23.9944 1.50419C26.4371 -0.856925 29.7852 -0.397206 31.3817 2.57809C32.2132 4.12275 32.6123 5.81819 32.6751 7.57248C32.738 9.28264 32.786 11.0001 32.7269 12.7103C32.701 13.4973 32.9708 13.7768 33.6914 13.9276C36.6404 14.5455 39.4749 15.5127 42.0322 17.1273C46.1896 19.7532 48.758 23.4126 48.6139 28.44C48.5178 31.7647 47.5163 34.9644 45.9198 37.8955C44.5488 40.4111 42.3537 42.0183 39.2051 42.7612C42.8895 44.9274 45.7683 47.546 47.4202 51.3855C47.5607 48.9398 47.6678 46.4941 47.8526 44.0521C48.2591 38.6826 48.2813 33.2763 49.3271 27.9619C49.6117 26.5203 49.911 25.0823 50.166 23.6332C51.0714 18.4549 54.0093 15.0015 59.1276 13.6702C66.4189 11.7762 73.7508 11.4709 80.9237 14.1888C88.3628 17.0096 93.0081 22.3938 95.011 30.0435C95.1034 30.4003 95.1884 30.757 95.2771 31.1138C95.2882 31.1505 95.3141 31.1873 95.3621 31.2719C95.8314 31.0439 95.8167 30.5548 95.9571 30.1759C97.3651 26.3474 99.2313 22.78 101.914 19.6723C110.392 9.85637 124.963 9.84165 133.463 19.6355C134.642 20.9963 135.639 22.4894 136.623 24.0157C137.129 23.8208 137.269 23.3647 137.521 23.0264C145.85 11.6916 160.691 10.8163 170.281 21.1066C170.669 21.5259 170.902 21.8936 171.479 21.228C175.861 16.1674 181.645 13.9276 188.145 13.284C191.97 12.9052 195.78 13.2031 199.498 14.2439C203.707 15.4208 207.624 17.1162 210.481 20.7278C210.655 20.474 210.784 20.3196 210.869 20.1467C212.369 17.1493 214.886 15.487 218.075 14.711C221.398 13.9019 224.786 13.5415 228.194 13.3723C235.459 13.0119 242.728 12.8721 249.927 14.2071C258.116 15.7261 261.468 23.4971 257.004 30.5364C256.679 31.0512 256.42 31.6139 256.161 32.1656C254.809 35.071 252.676 36.9688 249.38 37.3733C248.441 37.4873 247.506 37.708 246.571 37.7043C245.415 37.6969 245.071 38.1015 245.056 39.2747C244.949 47.6894 245.045 56.1004 245.296 64.5114C245.356 66.4717 245.389 68.4319 245.104 70.3811C244.857 72.0986 244.384 73.7352 243.345 75.1622C243.027 75.5998 242.82 76.078 242.673 76.5928C241.649 80.1492 239.247 82.1757 235.622 82.7568C233.164 83.154 230.703 83.062 228.297 82.3706C225.123 81.4585 223.083 79.4026 222.133 76.2582C221.401 73.8382 221.353 71.3447 221.305 68.8549C221.128 59.7451 221.449 50.6426 221.545 41.5365C221.575 38.587 221.412 38.37 218.434 38.0794C215.847 37.8293 213.256 37.6638 211.209 35.7477C210.585 35.163 210.481 35.8617 210.322 36.2222C209.258 38.6274 207.654 40.5251 205.215 41.6321C204.594 41.9153 203.925 42.0992 203.105 42.3898C203.607 42.7244 203.981 43.0113 204.383 43.243C214.291 48.9104 214.675 61.5214 210.662 68.2995C210.038 69.3513 209.483 70.4473 208.944 71.547C207.052 75.3718 204.066 78.1301 200.263 79.9212C190.987 84.2941 181.686 84.0697 172.447 79.7336C171.368 79.2261 170.363 78.5715 169.483 77.766C168.925 77.2548 168.548 77.1702 167.979 77.7881C161.442 84.9009 148.182 85.5224 140.366 81.1753C137.576 79.6233 135.451 77.3762 133.703 74.7613C133.2 74.0074 132.92 73.7683 132.243 74.6289C124.557 84.3933 109.257 83.621 102.262 78.9319C100.296 77.6153 98.6585 75.9603 97.2764 74.0662C96.796 73.4079 96.6112 73.4373 96.079 74.0809C95.0443 75.3351 94.1167 76.5965 93.4294 78.1044C92.6533 79.8035 91.0605 80.7855 89.2941 81.3813C86.3894 82.3632 83.4145 82.5251 80.4249 81.8741C77.3908 81.2121 75.2401 79.3107 73.6621 76.7436C72.6975 75.1769 71.8476 73.544 70.9422 71.9405C70.7241 71.558 70.5024 71.1792 70.1735 70.6091L70.1772 70.6128ZM51.6775 55.523C51.6848 60.0945 51.7957 64.6659 52.0433 69.23C52.2318 72.6797 53.9502 74.6253 57.3649 75.2872C59.4417 75.6881 61.5334 75.6256 63.6029 75.2063C65.8904 74.7429 67.3095 73.4079 67.7197 71.0725C67.9821 69.5794 68.0671 68.0752 68.1447 66.5673C68.2112 65.1845 68.2112 63.7832 68.5992 62.4409C69.1535 60.5247 70.6724 60.1239 72.1321 61.5104C72.9082 62.2459 73.4958 63.1396 74.0501 64.048C75.3879 66.2473 76.7663 68.4246 78.0302 70.6643C81.3709 76.5818 88.2335 76.2471 92.4131 74.4524C94.3015 73.6396 95.133 72.0471 94.9741 69.9876C94.8521 68.4098 94.2609 66.9792 93.5218 65.6037C92.2653 63.261 90.7612 61.0654 89.3199 58.8367C88.3 57.2589 87.2542 55.6959 86.4966 53.9673C85.8831 52.5698 86.0014 51.2458 86.9548 50.0542C87.6459 49.1936 88.3961 48.3808 89.1389 47.5644C90.9349 45.5968 92.2653 43.3754 92.9563 40.7973C95.3288 31.967 91.0864 21.8348 82.9858 17.5355C75.0774 13.3392 66.7847 13.7033 58.4883 16.2078C55.2621 17.1788 53.3848 19.6318 52.594 22.8866C52.1394 24.7623 51.9066 26.6674 51.8992 28.5872C51.8733 35.1961 51.6775 53.1545 51.6812 55.5193L51.6775 55.523ZM20.1141 79.204C19.97 81.2857 20.3913 83.507 20.8754 85.71C21.1525 86.9567 21.7549 88.2513 23.1555 88.4095C24.5191 88.5639 25.0882 87.2767 25.6906 86.2653C25.7719 86.1256 25.8606 85.9785 25.8976 85.824C26.3706 83.9667 27.1282 82.1536 26.9471 80.186C26.8399 78.9944 27.2575 77.8543 27.1984 76.6774C27.1725 76.1515 27.531 76.2324 27.8525 76.2177C30.9272 76.0743 33.8392 75.2725 36.6146 73.9963C41.9657 71.5396 45.4394 67.5824 46.3153 61.6465C47.0913 56.3873 45.8422 49.1384 39.0795 45.1885C37.276 44.1367 35.4357 43.1474 33.5953 42.1617C31.245 40.9076 28.8725 39.6976 26.7438 38.0758C25.9567 37.4763 25.2028 36.8474 24.7667 35.9353C23.865 34.0413 24.9109 32.3201 27.0062 32.2428C28.2036 32.1987 29.242 32.6547 30.2398 33.2653C32.3351 34.5525 34.4453 35.8139 36.8769 36.4061C40.8976 37.3843 44.279 35.6631 45.8201 31.8493C47.6937 27.208 45.8201 22.0481 41.1157 19.0618C38.2369 17.2339 35.0403 16.2152 31.681 15.7261C30.6869 15.5826 30.3728 15.259 30.3839 14.2145C30.4061 11.7945 30.8606 9.38929 30.4578 6.95094C30.2509 5.70418 30.0218 4.4942 29.3713 3.4203C28.5066 1.99701 26.9951 1.80209 25.7424 2.90174C24.46 4.02713 23.8613 5.5203 23.5768 7.14586C23.1259 9.70925 22.9707 12.3168 22.3905 14.8655C22.2353 15.5569 21.9803 15.6599 21.4001 15.7665C17.4238 16.5094 13.8095 18.0357 10.6684 20.6432C3.76514 26.3695 2.08368 38.8665 11.4222 45.4938C12.8931 46.5383 14.423 47.4871 15.9899 48.3771C18.9094 50.0395 21.9101 51.5621 24.5783 53.629C25.2952 54.1806 26.001 54.7433 26.4408 55.5561C26.9397 56.4755 27.0727 57.4244 26.5258 58.3585C25.9567 59.3332 24.9848 59.517 23.9611 59.4692C22.9116 59.4214 21.984 59.0058 21.0934 58.4615C18.998 57.178 16.8953 55.9092 14.4636 55.3097C10.3062 54.2873 6.80655 56.1372 5.35421 60.1459C3.69123 64.7394 5.57964 69.686 10.1399 72.6172C12.372 74.0515 14.8332 74.9342 17.4053 75.541C18.3144 75.7543 19.5819 75.7028 20.0217 76.2802C20.4762 76.8724 20.1215 78.0787 20.1215 79.2114L20.1141 79.204ZM190.817 15.259C185.215 15.3803 179.705 16.7521 175.041 20.6506C167.997 26.5423 166.959 38.3589 174.723 44.6552C176.449 46.0528 178.323 47.2223 180.248 48.3183C183.201 50.0027 186.242 51.5437 188.944 53.629C189.66 54.1806 190.366 54.7433 190.806 55.5561C191.305 56.4755 191.438 57.4244 190.891 58.3585C190.318 59.3332 189.35 59.517 188.326 59.4692C187.277 59.4177 186.349 59.0058 185.459 58.4615C183.467 57.2479 181.479 56.0158 179.184 55.409C173.98 54.0262 169.657 57.0419 169.21 62.4114C168.796 67.4169 171.194 71.0063 175.473 73.1468C184.25 77.5343 193.256 77.7734 202.122 73.4079C207.89 70.5687 210.795 65.6699 210.873 59.2817C210.947 53.0773 208.578 48.0792 202.983 44.9017C201.061 43.8094 199.106 42.7722 197.155 41.7314C194.875 40.5215 192.591 39.3078 190.592 37.6565C188.899 36.2626 188.374 34.5672 189.206 33.2984C189.993 32.0957 191.926 31.8714 193.807 32.8313C194.827 33.3535 195.784 33.9934 196.785 34.5525C198.655 35.6006 200.596 36.4539 202.776 36.6451C207.754 37.0791 211.656 32.4267 210.326 27.6604C210.108 26.877 209.831 26.0495 209.886 25.2661C210.001 23.6774 209.239 22.5373 208.286 21.445C206.863 19.8084 205.086 18.6499 203.112 17.7819C199.306 16.1012 195.307 15.3252 190.817 15.2627V15.259ZM154.649 77.2291C160.54 77.2438 165.388 75.4601 168.851 72.1023C169.516 71.455 169.653 71.0505 169.088 70.2156C167.247 67.4978 166.601 64.493 167.203 61.2309C167.99 56.961 171.176 53.6032 175.089 52.989C176.272 52.8027 176.895 52.1125 176.959 50.9185C176.97 50.7162 176.941 50.5029 176.989 50.3079C177.247 49.2819 176.804 48.7008 175.932 48.1454C172.805 46.1521 170.152 43.677 168.674 40.2015C166.427 34.9166 166.741 29.6942 169.258 24.5784C169.505 24.0782 169.708 23.7178 169.25 23.1809C164.616 17.7341 158.792 15.2774 151.652 16.3807C145.946 17.2634 141.582 20.4115 138.677 25.2514C131.234 37.6491 130.292 50.764 135.414 64.1584C138.832 73.1027 145.307 77.2034 154.653 77.2291H154.649ZM117.724 75.5998C118.463 75.5631 119.202 75.552 119.937 75.4895C125.122 75.0408 129.631 73.2461 133.097 69.1822C134.098 68.0053 134.653 67.0013 133.629 65.589C133.278 65.1072 133.115 64.482 132.916 63.9046C128.64 51.4554 129.335 39.271 134.923 27.3661C135.277 26.6122 135.314 26.0605 134.878 25.3654C134.095 24.1187 133.33 22.8609 132.387 21.7245C127.727 16.1049 121.796 13.5856 114.512 14.7772C108.374 15.7812 103.917 19.3965 101.013 24.6814C94.2202 37.0497 93.3924 49.9586 98.6252 63.0366C101.992 71.4513 108.507 75.6992 117.727 75.6035L117.724 75.5998ZM225.644 51.7754H225.514C225.514 53.8974 225.455 56.0232 225.529 58.1416C225.655 61.8524 225.426 65.5743 225.925 69.2668C226.475 73.3638 228.356 75.4638 232.118 76.1478C233.903 76.4715 235.71 76.5119 237.51 76.203C240.259 75.7322 242.011 74.1986 242.687 71.4734C243.157 69.5904 243.186 67.6743 243.153 65.7545C243.057 60.4916 242.917 55.2288 242.861 49.9622C242.813 45.4313 242.765 40.9003 243.027 36.373C243.175 33.861 244.265 32.6952 246.782 32.3348C247.595 32.2171 248.415 32.1693 249.228 32.0553C250.806 31.8383 252.458 31.8346 253.778 30.7681C256.364 28.6754 257.089 25.8656 256.612 22.7395C256.172 19.8488 254.509 17.8371 251.671 16.8735C250.308 16.4101 248.896 16.16 247.473 15.9688C240.814 15.0788 234.129 15.1008 227.443 15.5716C224.051 15.8106 220.636 16.0644 217.388 17.1824C211.989 19.0397 210.252 25.8987 214.062 30.1612C215.026 31.2388 216.198 31.9266 217.647 32.1141C219.151 32.309 220.67 32.4267 222.159 32.6952C224.598 33.1365 225.633 34.3833 225.644 36.829C225.662 41.8087 225.651 46.7883 225.651 51.768L225.644 51.7754ZM91.4005 57.8069C91.1677 55.2325 91.249 52.6801 91.3044 49.8997C90.4027 50.992 89.6858 51.871 88.9541 52.7353C88.6917 53.0442 88.5698 53.3311 88.7693 53.7246C89.5047 55.1626 90.3658 56.516 91.4005 57.8032V57.8069Z" fill="#343230"/>
<path d="M51.8965 28.5908C51.9039 26.671 52.1367 24.7659 52.5913 22.8903C53.3821 19.6318 55.2594 17.1824 58.4856 16.2115C66.7821 13.7106 75.0785 13.3428 82.9832 17.5391C91.0874 21.8384 95.3299 31.9706 92.9537 40.8009C92.2626 43.379 90.9322 45.6004 89.1362 47.568C88.3934 48.3844 87.6395 49.1972 86.9522 50.0578C85.995 51.2494 85.8768 52.5734 86.4939 53.9709C87.2552 55.6995 88.2973 57.2625 89.3173 58.8403C90.7585 61.069 92.2589 63.2646 93.5191 65.6073C94.2582 66.9828 94.8458 68.4135 94.9714 69.9912C95.134 72.0508 94.3025 73.6432 92.4104 74.456C88.2345 76.2507 81.3719 76.5854 78.0275 70.6679C76.7636 68.4282 75.3852 66.2509 74.0474 64.0516C73.4931 63.1432 72.9055 62.2495 72.1295 61.514C70.6734 60.1275 69.1509 60.5284 68.5966 62.4445C68.2085 63.7868 68.2122 65.1881 68.142 66.5709C68.0681 68.0788 67.9831 69.583 67.717 71.0761C67.3068 73.4115 65.8877 74.7465 63.6002 75.2099C61.5307 75.6292 59.4391 75.6917 57.3622 75.2909C53.9475 74.6289 52.2254 72.6833 52.0407 69.2336C51.7931 64.6695 51.6785 60.0981 51.6748 55.5266C51.6748 53.1581 51.6748 50.7934 51.6748 48.4249C51.745 48.4249 51.867 35.2034 51.8928 28.5944L51.8965 28.5908ZM68.3416 35.5675C68.4044 36.6156 68.3859 37.7263 68.5596 38.8076C68.7961 40.2713 69.8124 40.9554 71.2943 40.8377C72.4805 40.7421 73.3785 40.1499 74.0696 39.2195C75.5848 37.1783 75.5035 33.4785 73.9107 31.5035C73.4377 30.9151 72.8538 30.4775 72.1406 30.2274C70.2669 29.5654 68.8515 30.3745 68.5596 32.3421C68.4044 33.3866 68.4118 34.4531 68.3416 35.5675Z" fill="#FDFDFD"/>
<path d="M20.1112 79.2041C20.1112 78.0714 20.4659 76.8651 20.0114 76.2729C19.5716 75.6992 18.3004 75.7507 17.395 75.5337C14.8229 74.9269 12.3617 74.0442 10.1296 72.6099C5.56932 69.6824 3.68091 64.7321 5.34389 60.1386C6.79623 56.1299 10.2959 54.28 14.4533 55.3024C16.885 55.8982 18.9877 57.1707 21.0831 58.4542C21.9737 58.9985 22.9013 59.4104 23.9508 59.4619C24.9745 59.5097 25.9464 59.3259 26.5155 58.3512C27.0624 57.4171 26.9294 56.4682 26.4305 55.5488C25.9907 54.736 25.2812 54.177 24.5679 53.6217C21.8998 51.5584 18.899 50.0322 15.9796 48.3698C14.4127 47.4761 12.8827 46.531 11.4119 45.4865C2.07706 38.8555 3.75482 26.3622 10.658 20.6359C13.7955 18.0321 17.4097 16.5021 21.3898 15.7592C21.97 15.6526 22.2213 15.5496 22.3802 14.8582C22.9604 12.3058 23.1156 9.70195 23.5665 7.13856C23.851 5.51299 24.4497 4.01983 25.732 2.89443C26.9848 1.79479 28.5 1.98971 29.361 3.413C30.0114 4.4869 30.2406 5.69688 30.4475 6.94364C30.854 9.38199 30.3958 11.7872 30.3736 14.2072C30.3662 15.2517 30.6766 15.5753 31.6707 15.7188C35.0299 16.2079 38.2266 17.2266 41.1054 19.0545C45.8098 22.0408 47.6834 27.2044 45.8097 31.842C44.2687 35.6558 40.8873 37.3807 36.8666 36.3988C34.435 35.8066 32.3285 34.5415 30.2295 33.2579C29.2354 32.6474 28.1969 32.1914 26.9959 32.2355C24.9005 32.3128 23.8547 34.0303 24.7564 35.928C25.1925 36.8438 25.9464 37.469 26.7335 38.0685C28.8621 39.6903 31.2346 40.8966 33.585 42.1544C35.4254 43.1401 37.2657 44.1294 39.0691 45.1812C45.8356 49.1311 47.081 56.3837 46.305 61.6392C45.4291 67.5787 41.9516 71.5323 36.6042 73.989C33.8289 75.2652 30.9168 76.067 27.8422 76.2104C27.5244 76.2251 27.1622 76.1442 27.1881 76.6701C27.2472 77.847 26.8296 78.9871 26.9368 80.1787C27.1142 82.1463 26.3603 83.9594 25.8872 85.8167C25.8466 85.9712 25.7616 86.1183 25.6803 86.258C25.0779 87.2694 24.5051 88.5566 23.1452 88.4022C21.7446 88.244 21.1422 86.9494 20.865 85.7027C20.3772 83.5034 19.9596 81.282 20.1038 79.1967L20.1112 79.2041Z" fill="#FDFDFD"/>
<path d="M190.818 15.259C195.308 15.3216 199.31 16.0939 203.113 17.7783C205.086 18.6499 206.863 19.8047 208.286 21.4413C209.24 22.5373 209.997 23.6737 209.886 25.2625C209.831 26.0459 210.108 26.8734 210.326 27.6567C211.657 32.4231 207.754 37.0755 202.776 36.6415C200.6 36.4503 198.659 35.597 196.786 34.5489C195.784 33.9898 194.827 33.3499 193.807 32.8277C191.926 31.8678 189.993 32.0921 189.206 33.2947C188.379 34.5636 188.903 36.259 190.592 37.6529C192.595 39.3042 194.875 40.5178 197.155 41.7278C199.11 42.765 201.062 43.8058 202.983 44.8981C208.578 48.0756 210.947 53.0737 210.873 59.2781C210.796 65.6663 207.891 70.5651 202.122 73.4043C193.253 77.7698 184.251 77.5307 175.474 73.1432C171.191 71.0027 168.792 67.4169 169.21 62.4078C169.657 57.042 173.981 54.0262 179.184 55.4054C181.479 56.0159 183.467 57.2443 185.459 58.4579C186.35 59.0022 187.281 59.4141 188.327 59.4656C189.35 59.5134 190.322 59.3295 190.891 58.3549C191.438 57.4208 191.305 56.4719 190.806 55.5525C190.367 54.7397 189.657 54.1807 188.944 53.6254C186.239 51.5364 183.201 49.9954 180.248 48.3147C178.323 47.2187 176.449 46.0492 174.724 44.6516C166.959 38.3553 167.998 26.535 175.041 20.647C179.701 16.7485 185.215 15.3731 190.818 15.2554V15.259Z" fill="#FDFDFD"/>
<path d="M154.646 77.2291C145.3 77.207 138.825 73.1063 135.407 64.1584C130.289 50.764 131.228 37.6491 138.67 25.2514C141.575 20.4152 145.939 17.2633 151.645 16.3807C158.785 15.2774 164.613 17.7341 169.243 23.1808C169.702 23.7215 169.495 24.0782 169.251 24.5784C166.734 29.6978 166.42 34.9202 168.667 40.2015C170.145 43.677 172.798 46.1558 175.925 48.1454C176.797 48.7008 177.24 49.2819 176.982 50.3079C176.934 50.5029 176.959 50.7162 176.952 50.9185C176.891 52.1125 176.267 52.8027 175.082 52.989C171.169 53.6032 167.983 56.961 167.196 61.2309C166.597 64.4894 167.24 67.4978 169.081 70.2156C169.646 71.0468 169.509 71.455 168.844 72.1023C165.381 75.4601 160.533 77.2438 154.642 77.2291H154.646ZM160.101 46.4868C160.101 45.7108 160.149 44.9347 160.093 44.1661C159.883 41.3416 159.513 38.5465 157.743 36.1891C155.999 33.8684 153.467 33.8868 151.656 36.1596C151.035 36.9356 150.574 37.8073 150.304 38.7488C148.663 44.4346 148.781 50.1093 150.736 55.6885C151.383 57.5274 152.451 59.3148 154.742 59.2927C156.963 59.2706 157.913 57.5016 158.648 55.7253C159.868 52.772 160.119 49.646 160.101 46.4904V46.4868Z" fill="#FDFDFD"/>
<path d="M117.72 75.5998C108.5 75.6954 101.985 71.4513 98.618 63.0329C93.3852 49.9548 94.213 37.0459 101.005 24.6776C103.91 19.3927 108.367 15.7775 114.505 14.7734C121.789 13.5818 127.724 16.1011 132.38 21.7207C133.323 22.8571 134.088 24.1149 134.871 25.3617C135.307 26.0531 135.27 26.6084 134.915 27.3624C129.328 39.2673 128.629 51.4553 132.909 63.9008C133.108 64.4783 133.271 65.1035 133.622 65.5853C134.646 66.9975 134.091 68.0015 133.09 69.1784C129.627 73.2423 125.119 75.0408 119.93 75.4858C119.195 75.5483 118.456 75.563 117.716 75.5961L117.72 75.5998ZM123.16 44.2175C123.193 43.1988 123.101 41.61 122.831 40.0359C122.473 37.969 121.952 35.9536 120.555 34.2949C118.925 32.3568 116.619 32.3347 114.926 34.214C114.091 35.1445 113.559 36.2478 113.212 37.4321C111.844 42.0918 111.988 46.7883 112.942 51.4884C113.311 53.3016 113.899 55.0485 115.189 56.4534C116.741 58.1378 118.81 58.09 120.318 56.3651C121.002 55.5854 121.475 54.6807 121.822 53.7135C122.857 50.8301 123.145 47.8328 123.16 44.2175Z" fill="#FDFDFD"/>
<path d="M225.641 51.7755C225.641 46.7958 225.656 41.8161 225.633 36.8365C225.622 34.3908 224.588 33.144 222.148 32.7027C220.659 32.4342 219.14 32.3165 217.636 32.1216C216.188 31.934 215.012 31.2463 214.052 30.1687C210.242 25.9062 211.978 19.0508 217.378 17.1899C220.626 16.0719 224.041 15.8181 227.433 15.5791C234.118 15.1083 240.803 15.0826 247.463 15.9762C248.886 16.1675 250.297 16.4176 251.661 16.881C254.499 17.8409 256.162 19.8563 256.602 22.747C257.078 25.8731 256.354 28.6829 253.767 30.7755C252.448 31.8457 250.792 31.8457 249.218 32.0627C248.405 32.1767 247.585 32.2246 246.772 32.3422C244.255 32.7027 243.165 33.8648 243.017 36.3804C242.751 40.9077 242.803 45.4387 242.851 49.9697C242.906 55.2326 243.05 60.4954 243.143 65.762C243.176 67.6818 243.143 69.5942 242.677 71.4809C242.001 74.2061 240.249 75.7397 237.5 76.2105C235.7 76.5194 233.893 76.4789 232.108 76.1553C228.346 75.4712 226.469 73.3712 225.914 69.2742C225.415 65.5781 225.644 61.8562 225.519 58.149C225.449 56.0306 225.504 53.9049 225.504 51.7828H225.633L225.641 51.7755Z" fill="#FDFDFD"/>
<path d="M68.3408 35.5675C68.411 34.4531 68.4073 33.3866 68.5589 32.3421C68.8471 30.3745 70.2662 29.5617 72.1398 30.2274C72.853 30.4812 73.4332 30.9151 73.91 31.5036C75.5027 33.4785 75.584 37.1784 74.0689 39.2195C73.3778 40.15 72.4835 40.7421 71.2935 40.8377C69.8116 40.9554 68.7954 40.2713 68.5589 38.8076C68.3852 37.7263 68.4036 36.6157 68.3408 35.5675ZM70.5212 36.5678C70.6616 37.4432 70.2884 38.1677 70.9831 38.6715C71.0533 38.723 71.3674 38.6053 71.3859 38.5281C71.5522 37.7999 71.3046 37.2041 70.5212 36.5678Z" fill="#343230"/>
<path d="M160.1 46.4867C160.115 49.6423 159.867 52.7647 158.648 55.7216C157.913 57.4979 156.963 59.2669 154.742 59.289C152.451 59.3111 151.383 57.5237 150.736 55.6848C148.777 50.1057 148.663 44.4309 150.304 38.7451C150.573 37.8073 151.039 36.9356 151.656 36.1559C153.467 33.8831 155.998 33.8684 157.743 36.1854C159.513 38.5391 159.882 41.3379 160.093 44.1624C160.152 44.9311 160.1 45.7107 160.1 46.4831V46.4867ZM151.427 46.4242C151.397 48.0167 151.497 49.6018 151.756 51.1722C152.07 53.0662 152.451 54.9493 153.678 56.516C153.929 56.8359 154.224 57.1633 154.69 57.1081C155.17 57.0493 155.185 56.6006 155.252 56.2622C156.017 52.3969 156.32 48.5132 155.559 44.6148C155.315 43.3717 154.96 42.1507 154.154 41.1283C153.799 40.6759 153.393 40.2346 152.72 40.3854C152.044 40.5398 151.874 41.1025 151.771 41.6762C151.497 43.2466 151.39 44.8281 151.427 46.4206V46.4242Z" fill="#343230"/>
<path d="M123.16 44.2176C123.145 47.8328 122.861 50.8302 121.822 53.7136C121.475 54.6808 121.002 55.5855 120.318 56.3652C118.811 58.0901 116.741 58.1379 115.189 56.4535C113.896 55.0523 113.308 53.3017 112.942 51.4885C111.989 46.7884 111.845 42.0919 113.212 37.4322C113.559 36.2479 114.091 35.1446 114.927 34.2141C116.615 32.3348 118.921 32.3569 120.555 34.295C121.948 35.95 122.473 37.9654 122.831 40.036C123.105 41.6101 123.193 43.1989 123.16 44.2176ZM114.431 44.7067C114.42 46.7884 114.561 48.8626 115.019 50.8964C115.34 52.3307 115.743 53.7467 116.712 54.9125C116.974 55.2288 117.284 55.5598 117.735 55.4826C118.238 55.398 118.26 54.9088 118.345 54.5227C119.029 51.437 119.258 48.3146 119.01 45.1701C118.859 43.2577 118.552 41.3563 117.417 39.716C117.066 39.2085 116.619 38.723 115.902 38.8959C115.182 39.0688 114.867 39.6167 114.742 40.3192C114.483 41.7719 114.439 43.232 114.431 44.6994V44.7067Z" fill="#343230"/>
</g>
<defs>
<clipPath id="clip0_58_968">
<rect width="259" height="95" fill="white"/>
</clipPath>
</defs>
</svg>
