<svg width="286" height="305" viewBox="0 0 286 305" fill="none" xmlns="http://www.w3.org/2000/svg">
<path d="M140.834 253.572C117.273 254.135 114.62 277.112 112.516 288.699C112.275 290.031 111.847 291.315 111.359 292.577C110.629 294.468 109.785 296.755 108.785 298.154C107.964 299.301 104.633 306.008 104.633 301.404L104.633 293.974C104.633 284.094 100.011 272.272 89.6881 264.253C85.4731 260.978 78.8464 255.919 71.7539 255.429C62.9219 254.819 55.956 251.193 47.8417 249.392C38.4712 247.312 24.4564 243.92 19.7781 237.782C15.4444 232.096 14.3249 225.317 11.2262 219.155C2.87146 202.54 5.62723 183.717 3.08939 166.368C0.687659 149.95 3.00639 132.809 3.00639 116.317C3.00639 104.98 7.48991 93.7472 7.48991 82.6738C7.48991 70.097 9.19599 57.2369 13.551 45.0577C16.2734 37.4442 17.3247 27.9433 24.5938 21.167C32.0157 14.2483 42.2288 5.58516 56.0616 3.67479C78.9492 0.513938 101.849 2.79763 125.224 2.79763C141.599 2.79763 157.388 4.53335 173.464 5.5324C190.512 6.59188 209.044 8.37039 226.021 8.37039C237.954 8.37039 254.425 9.31116 260.062 17.1939C266.071 25.5956 274.577 33.3744 275.008 42.7357C275.875 61.6129 279.491 80.8183 279.491 99.5984C279.491 114.298 283.975 129.029 283.975 143.664C283.975 162.989 284.446 182.332 281.318 201.559C279.012 215.731 275.407 234.885 252.507 242.89C239.208 247.539 225.981 249.25 211.906 251.508C200.514 253.335 186.791 252.643 174.875 252.643C163.366 252.643 152.302 253.297 140.834 253.572Z" fill="white" stroke="#343230" stroke-width="3.01672" stroke-linecap="round"/>
</svg>
