<svg width="1440" height="173" viewBox="0 0 1440 173" fill="none" xmlns="http://www.w3.org/2000/svg">
<g clip-path="url(#clip0_159_101)">
<path d="M1803.9 171.08C1801.07 172.361 1801.15 171.95 1797.15 171.95C1793.15 171.95 1793.15 170.352 1789.15 170.352C1785.15 170.352 1785.15 171.918 1781.15 171.918C1777.15 171.918 1777.15 172.524 1773.15 172.524C1769.15 172.524 1769.15 171.366 1765.15 171.366C1761.15 171.366 1761.15 170.75 1757.15 170.75C1753.15 170.75 1753.15 170.329 1749.15 170.329C1745.15 170.329 1745.15 172.493 1741.15 172.493C1737.15 172.493 1737.15 172.158 1733.15 172.158C1729.15 172.158 1729.15 172.651 1725.15 172.651C1721.15 172.651 1721.15 171.298 1717.15 171.298C1713.15 171.298 1713.15 172.66 1709.15 172.66C1705.15 172.66 1705.15 171.289 1701.15 171.289C1697.15 171.289 1697.15 172.09 1693.15 172.09C1689.15 172.09 1689.15 171.945 1685.15 171.945C1681.15 171.945 1681.15 171.121 1677.15 171.121C1673.15 171.121 1673.15 171.044 1669.15 171.044C1665.15 171.044 1665.15 172.692 1661.15 172.692C1657.15 172.692 1657.15 171.986 1653.14 171.986C1649.13 171.986 1649.14 171.266 1645.13 171.266C1641.12 171.266 1641.13 171.904 1637.12 171.904C1633.11 171.904 1633.12 172.991 1629.11 172.991C1625.1 172.991 1625.11 172.9 1621.1 172.9C1617.09 172.9 1617.1 172.841 1613.09 172.841C1609.08 172.841 1609.09 171.891 1605.08 171.891C1601.07 171.891 1601.08 172.633 1597.07 172.633C1593.06 172.633 1593.07 172.81 1589.06 172.81C1585.05 172.81 1585.06 172.932 1581.05 172.932C1577.04 172.932 1577.05 171.479 1573.04 171.479C1569.03 171.479 1569.04 171.714 1565.04 171.714C1561.04 171.714 1561.04 170.315 1557.04 170.315C1553.04 170.315 1553.04 170.8 1549.04 170.8C1545.04 170.8 1545.04 170.877 1541.04 170.877C1537.04 170.877 1537.04 171.456 1533.04 171.456C1529.04 171.456 1529.04 172.982 1525.04 172.982C1521.04 172.982 1521.04 171.909 1517.04 171.909C1513.04 171.909 1513.04 172.343 1509.04 172.343C1505.04 172.343 1505.04 172.275 1501.04 172.275C1497.04 172.275 1497.04 172.203 1493.04 172.203C1489.04 172.203 1489.04 171.542 1485.04 171.542C1481.04 171.542 1481.04 171.673 1477.04 171.673C1473.04 171.673 1473.04 172.026 1469.04 172.026C1465.04 172.026 1465.04 172.484 1461.03 172.484C1457.02 172.484 1457.03 170.424 1453.02 170.424C1449.01 170.424 1449.02 170.501 1445.01 170.501C1441.01 170.501 1441.02 171.28 1437.01 171.28C1433 171.28 1433.01 171.56 1429 171.56C1424.99 171.56 1425 172.742 1420.99 172.742C1416.98 172.742 1416.99 171.809 1412.98 171.809C1408.97 171.809 1408.98 172.176 1404.97 172.176C1400.96 172.176 1400.97 171.443 1396.96 171.443C1392.95 171.443 1392.96 172.932 1388.95 172.932C1384.94 172.932 1384.95 171.361 1380.94 171.361C1376.93 171.361 1376.94 172.275 1372.93 172.275C1368.92 172.275 1368.93 171.003 1364.93 171.003C1360.93 171.003 1360.93 171.216 1356.93 171.216C1352.93 171.216 1352.93 172.506 1348.93 172.506C1344.93 172.506 1344.93 172.475 1340.93 172.475C1336.93 172.475 1336.93 171.234 1332.93 171.234C1328.93 171.234 1328.93 172.574 1324.93 172.574C1320.93 172.574 1320.93 171.95 1316.93 171.95C1312.93 171.95 1312.93 170.614 1308.92 170.614C1304.91 170.614 1304.92 171.162 1300.91 171.162C1296.9 171.162 1296.91 171.261 1292.9 171.261C1288.89 171.261 1288.9 171.171 1284.89 171.171C1280.88 171.171 1280.89 170.696 1276.88 170.696C1272.87 170.696 1272.88 171.787 1268.87 171.787C1264.86 171.787 1264.87 170.497 1260.86 170.497C1256.85 170.497 1256.86 171.832 1252.85 171.832C1248.84 171.832 1248.85 171.144 1244.84 171.144C1240.83 171.144 1240.84 171.529 1236.83 171.529C1232.82 171.529 1232.83 171.56 1228.82 171.56C1224.81 171.56 1224.82 171.868 1220.81 171.868C1216.8 171.868 1216.81 172.936 1212.8 172.936C1208.79 172.936 1208.8 170.601 1204.79 170.601C1200.78 170.601 1200.79 171.112 1196.78 171.112C1192.77 171.112 1192.78 172.262 1188.77 172.262C1184.76 172.262 1184.77 171.017 1180.76 171.017C1176.75 171.017 1176.76 170.37 1172.75 170.37C1168.74 170.37 1168.75 171.501 1164.74 171.501C1160.73 171.501 1160.74 170.379 1156.73 170.379C1152.72 170.379 1152.73 172.529 1148.72 172.529C1144.71 172.529 1144.72 171.678 1140.71 171.678C1136.7 171.678 1136.71 172.307 1132.7 172.307C1128.69 172.307 1128.7 171.601 1124.69 171.601C1120.68 171.601 1120.69 172.701 1116.68 172.701C1112.67 172.701 1112.68 171.737 1108.67 171.737C1104.66 171.737 1104.67 172.375 1100.66 172.375C1096.65 172.375 1096.66 170.795 1092.65 170.795C1088.64 170.795 1088.65 172.687 1084.64 172.687C1080.63 172.687 1080.64 171.633 1076.63 171.633C1072.62 171.633 1072.63 172.212 1068.62 172.212C1064.61 172.212 1064.62 170.51 1060.61 170.51C1056.6 170.51 1056.61 172.85 1052.6 172.85C1048.59 172.85 1048.6 172.447 1044.59 172.447C1040.58 172.447 1040.59 170.764 1036.58 170.764C1032.57 170.764 1032.58 171.23 1028.57 171.23C1024.56 171.23 1024.57 171.506 1020.56 171.506C1016.55 171.506 1016.56 171.95 1012.55 171.95C1008.54 171.95 1008.55 170.899 1004.54 170.899C1000.53 170.899 1000.54 170.727 996.531 170.727C992.521 170.727 992.531 170.546 988.521 170.546C984.511 170.546 984.521 172.484 980.511 172.484C976.501 172.484 976.511 171.271 972.501 171.271C968.492 171.271 968.502 172.945 964.492 172.945C960.482 172.945 960.492 171.728 956.482 171.728C952.472 171.728 952.482 171.257 948.472 171.257C944.462 171.257 944.472 172.461 940.462 172.461C936.452 172.461 936.462 172.864 932.452 172.864C928.442 172.864 928.452 170.474 924.442 170.474C920.432 170.474 920.442 170.818 916.432 170.818C912.422 170.818 912.432 172.447 908.422 172.447C904.412 172.447 904.422 172.171 900.413 172.171C896.403 172.171 896.413 171.827 892.403 171.827C888.393 171.827 888.403 172.819 884.393 172.819C880.383 172.819 880.393 171.062 876.383 171.062C872.373 171.062 872.383 170.379 868.373 170.379C864.363 170.379 864.373 172.787 860.363 172.787C856.353 172.787 856.363 171.04 852.353 171.04C848.343 171.04 848.353 172.067 844.343 172.067C840.333 172.067 840.343 172.638 836.333 172.638C832.323 172.638 832.333 171.049 828.323 171.049C824.313 171.049 824.323 172.04 820.314 172.04C816.304 172.04 816.314 172.705 812.304 172.705C808.294 172.705 808.304 172.506 804.294 172.506C800.284 172.506 800.294 171.551 796.284 171.551C792.274 171.551 792.284 172.438 788.274 172.438C784.264 172.438 784.274 172.742 780.264 172.742C776.254 172.742 776.264 172.651 772.254 172.651C768.244 172.651 768.254 172.054 764.244 172.054C760.234 172.054 760.244 172.837 756.234 172.837C752.225 172.837 752.234 171.148 748.225 171.148C744.215 171.148 744.225 171.805 740.215 171.805C736.205 171.805 736.215 172.484 732.205 172.484C728.195 172.484 728.205 170.913 724.195 170.913C720.185 170.913 720.195 171.583 716.185 171.583C712.175 171.583 712.185 172.868 708.175 172.868C704.165 172.868 704.175 170.297 700.165 170.297C696.155 170.297 696.165 170.338 692.155 170.338C688.145 170.338 688.155 173.004 684.145 173.004C680.136 173.004 680.146 170.392 676.136 170.392C672.126 170.392 672.136 172.995 668.126 172.995C664.116 172.995 664.126 172.398 660.116 172.398C656.106 172.398 656.116 171.909 652.106 171.909C648.096 171.909 648.106 172.18 644.096 172.18C640.086 172.18 640.096 170.954 636.086 170.954C632.076 170.954 632.086 170.655 628.076 170.655C624.066 170.655 624.076 171.628 620.066 171.628C616.056 171.628 616.066 172.66 612.056 172.66C608.047 172.66 608.057 172.493 604.047 172.493C600.037 172.493 600.047 172.742 596.037 172.742C592.027 172.742 592.037 170.868 588.027 170.868C584.017 170.868 584.027 170.741 580.017 170.741C576.007 170.741 576.017 170.831 572.007 170.831C567.997 170.831 568.007 171.578 563.997 171.578C559.987 171.578 559.997 172.941 555.987 172.941C551.977 172.941 551.987 171.47 547.977 171.47C543.967 171.47 543.977 172.126 539.967 172.126C535.957 172.126 535.967 171.845 531.958 171.845C527.948 171.845 527.958 171.845 523.948 171.845C519.938 171.845 519.948 171.977 515.938 171.977C511.928 171.977 511.938 170.524 507.928 170.524C503.918 170.524 503.928 172.126 499.918 172.126C495.908 172.126 495.908 172.674 491.908 172.674C487.908 172.674 487.908 171.384 483.898 171.384C479.888 171.384 479.898 172.176 475.888 172.176C471.878 172.176 471.888 170.501 467.878 170.501C463.869 170.501 463.879 172.769 459.869 172.769C455.859 172.769 455.869 172.701 451.859 172.701C447.849 172.701 447.859 170.605 443.849 170.605C439.839 170.605 439.839 172.941 435.839 172.941C431.839 172.941 431.839 171.999 427.829 171.999C423.819 171.999 423.829 172.841 419.819 172.841C415.809 172.841 415.819 172.484 411.809 172.484C407.799 172.484 407.809 171.606 403.799 171.606C399.789 171.606 399.799 171.026 395.789 171.026C391.779 171.026 391.779 171.243 387.78 171.243C383.78 171.243 383.78 170.877 379.77 170.877C375.76 170.877 375.77 172.959 371.76 172.959C367.75 172.959 367.76 171.778 363.76 171.778C359.76 171.778 359.76 171.615 355.75 171.615C351.74 171.615 351.75 170.492 347.74 170.492C343.73 170.492 343.73 172.257 339.73 172.257C335.73 172.257 335.73 171.465 331.72 171.465C327.71 171.465 327.72 171.823 323.71 171.823C319.7 171.823 319.711 172.678 315.701 172.678C311.691 172.678 311.701 170.483 307.701 170.483C303.701 170.483 303.701 172.574 299.701 172.574C295.701 172.574 295.701 170.854 291.701 170.854C287.701 170.854 287.701 170.555 283.691 170.555C279.681 170.555 279.691 171.112 275.681 171.112C271.671 171.112 271.681 172.991 267.671 172.991C263.661 172.991 263.661 171.61 259.661 171.61C255.661 171.61 255.661 170.641 251.651 170.641C247.641 170.641 247.652 171.352 243.642 171.352C239.632 171.352 239.642 172.275 235.632 172.275C231.622 172.275 231.632 170.329 227.622 170.329C223.612 170.329 223.622 171.755 219.612 171.755C215.602 171.755 215.612 171.977 211.602 171.977C207.592 171.977 207.602 171.791 203.592 171.791C199.582 171.791 199.582 171.221 195.582 171.221C191.582 171.221 191.582 171.972 187.572 171.972C183.562 171.972 183.572 171.701 179.562 171.701C175.552 171.701 175.562 172.203 171.553 172.203C167.543 172.203 167.553 170.981 163.543 170.981C159.533 170.981 159.543 172.438 155.533 172.438C151.523 172.438 151.533 172.846 147.523 172.846C143.513 172.846 143.513 170.365 139.513 170.365C135.513 170.365 135.503 170.632 131.503 170.632C127.503 170.632 127.503 172.651 123.493 172.651C119.483 172.651 119.493 172.307 115.483 172.307C111.473 172.307 111.483 172.76 107.473 172.76C103.463 172.76 103.473 170.356 99.4635 170.356C95.4536 170.356 95.4536 172.366 91.4536 172.366C87.4537 172.366 87.4437 172.923 83.4438 172.923C79.4438 172.923 79.4438 170.555 75.4339 170.555C71.4239 170.555 71.4339 172.171 67.424 172.171C63.414 172.171 63.424 171.904 59.4141 171.904C55.4042 171.904 55.4041 172.805 51.4042 172.805C47.4043 172.805 47.3942 172.031 43.3943 172.031C39.3944 172.031 39.3944 170.483 35.3844 170.483C31.3745 170.483 31.3845 172.429 27.3745 172.429C23.3646 172.429 23.3746 170.447 19.3646 170.447C15.3547 170.447 15.3547 172.38 11.3547 172.38C7.35479 172.38 7.34482 171.682 3.34487 171.682C-0.655074 171.682 -0.655083 170.791 -4.66503 170.791C-8.67497 170.791 -8.67498 170.424 -12.6749 170.424C-16.6749 170.424 -16.6849 172.936 -20.6848 172.936C-24.6847 172.936 -24.6947 171.271 -28.6947 171.271C-32.6946 171.271 -32.7046 172.067 -36.7046 172.067C-40.7045 172.067 -40.7145 170.388 -44.7145 170.388C-48.7144 170.388 -48.7244 170.474 -52.7244 170.474C-56.7243 170.474 -56.7343 170.37 -60.7343 170.37C-64.7342 170.37 -64.7442 171.126 -68.7441 171.126C-72.7441 171.126 -72.7541 171.239 -76.754 171.239C-80.754 171.239 -80.764 171.714 -84.7639 171.714C-88.7639 171.714 -88.7739 170.967 -92.7738 170.967C-96.7737 170.967 -96.7837 172.389 -100.784 172.389C-104.784 172.389 -104.794 172.131 -108.794 172.131C-112.794 172.131 -112.804 172.61 -116.803 172.61C-120.803 172.61 -120.813 172.045 -124.813 172.045C-128.813 172.045 -128.823 171.99 -132.823 171.99C-136.823 171.99 -136.833 170.524 -140.833 170.524C-144.833 170.524 -144.843 171.162 -148.843 171.162C-152.843 171.162 -152.853 171.049 -156.853 171.049C-160.853 171.049 -160.863 171.529 -164.863 171.529C-168.863 171.529 -168.863 172.37 -172.873 172.37C-176.883 172.37 -176.873 172.366 -180.883 172.366C-184.893 172.366 -184.893 171.216 -188.892 171.216C-192.892 171.216 -192.892 172.045 -196.902 172.045C-200.912 172.045 -200.912 172.85 -204.912 172.85C-208.912 172.85 -208.922 172.502 -212.922 172.502C-216.922 172.502 -216.932 171.959 -220.932 171.959C-224.932 171.959 -224.942 171.207 -228.942 171.207C-232.942 171.207 -232.952 172.52 -236.952 172.52C-240.952 172.52 -240.962 171.049 -244.962 171.049C-248.962 171.049 -248.972 172.755 -252.972 172.755C-256.972 172.755 -256.982 172.167 -260.991 172.167C-265.001 172.167 -265.001 170.383 -269.001 170.383C-273.001 170.383 -273.011 173 -277.011 173C-281.011 173 -281.021 170.501 -285.031 170.501C-289.041 170.501 -289.041 172.71 -293.051 172.71C-297.061 172.71 -297.061 171.411 -301.071 171.411C-305.081 171.411 -305.081 172.764 -309.081 172.764C-313.081 172.764 -313.091 172.502 -317.091 172.502C-321.091 172.502 -321.101 172.995 -325.101 172.995C-329.101 172.995 -329.111 171.827 -333.12 171.827C-337.13 171.827 -337.13 172.108 -341.14 172.108C-345.15 172.108 -345.15 172.574 -349.16 172.574C-353.17 172.574 -353.17 170.583 -357.18 170.583C-361.19 170.583 -360.79 172.217 -363.63 170.936C-366.47 169.655 -365.35 169.836 -365.35 168.025C-365.35 166.215 -366.36 166.215 -366.36 164.404C-366.36 162.593 -367.83 162.593 -367.83 160.783C-367.83 158.972 -362.78 158.972 -362.78 157.162C-362.78 155.351 -367.06 155.351 -367.06 153.541C-367.06 151.73 -366.5 151.73 -366.5 149.919C-366.5 148.109 -363.83 148.109 -363.83 146.298C-363.83 144.488 -363.15 144.488 -363.15 142.677C-363.15 140.867 -366.88 140.867 -366.88 139.056C-366.88 137.245 -364.95 137.245 -364.95 135.435C-364.95 133.624 -364.45 133.624 -364.45 131.814C-364.45 130.003 -364.77 130.003 -364.77 128.193C-364.77 126.382 -362.71 126.382 -362.71 124.571C-362.71 122.761 -362.72 122.761 -362.72 120.95C-362.72 119.14 -367.42 119.14 -367.42 117.329C-367.42 115.519 -365.12 115.519 -365.12 113.708C-365.12 111.897 -366.32 111.897 -366.32 110.087C-366.32 108.276 -362.39 108.276 -362.39 106.461C-362.39 104.646 -362.91 104.651 -362.91 102.84C-362.91 101.029 -362.98 101.029 -362.98 99.2144C-362.98 97.3993 -365 97.4038 -365 95.5932C-365 93.7827 -364.9 93.7827 -364.9 91.9721C-364.9 90.1615 -365.98 90.1615 -365.98 88.3509C-365.98 86.5404 -366.64 86.5404 -366.64 84.7298C-366.64 82.9192 -364.08 82.9192 -364.08 81.1087C-364.08 79.2981 -366.53 79.2981 -366.53 77.4875C-366.53 75.677 -365.44 75.677 -365.44 73.8664C-365.44 72.0558 -366.31 72.0558 -366.31 70.2452C-366.31 68.4347 -368 68.403 -368 66.5924C-368 64.7818 -365.62 64.7818 -365.62 62.9713C-365.62 61.1607 -366.09 61.1607 -366.09 59.3456C-366.09 57.5305 -365.83 57.535 -365.83 55.7245C-365.83 53.9139 -365.53 53.9139 -365.53 52.0988C-365.53 50.2837 -363.22 50.2882 -363.22 48.4731C-363.22 46.658 -363.72 46.6626 -363.72 44.8475C-363.72 43.0324 -363.54 43.0369 -363.54 41.2218C-363.54 39.4067 -366.07 39.4112 -366.07 37.5961C-366.07 35.781 -364.65 35.7856 -364.65 33.9705C-364.65 32.1554 -367.06 32.1599 -367.06 30.3448C-367.06 28.5297 -362.47 28.5342 -362.47 26.7191C-362.47 24.904 -363.53 24.9086 -363.53 23.0935C-363.53 21.2784 -362.81 21.2829 -362.81 19.4678C-362.81 17.6527 -362.81 17.6572 -362.81 15.8421C-362.81 14.027 -362.53 14.027 -362.53 12.2165C-362.53 10.4059 -364.66 10.4059 -364.66 8.5908C-364.66 6.7757 -364.29 6.7757 -364.29 4.96513C-364.29 3.15456 -365.81 3.53026 -362.98 2.24475C-360.15 0.959246 -361 0.429654 -357 0.429654C-353 0.429654 -353 0.189753 -349 0.189753C-345 0.189753 -345 1.64726 -341 1.64726C-337 1.64726 -336.99 0.108278 -332.98 0.108278C-328.971 0.108278 -328.981 1.30325 -324.981 1.30325C-320.981 1.30325 -320.981 1.8419 -316.981 1.8419C-312.981 1.8419 -312.981 1.58842 -308.981 1.58842C-304.981 1.58842 -304.981 0.615238 -300.981 0.615238C-296.981 0.615238 -296.981 0.239544 -292.981 0.239544C-288.981 0.239544 -288.981 1.94148 -284.981 1.94148C-280.981 1.94148 -280.981 0.185227 -276.981 0.185227C-272.981 0.185227 -272.981 0.493024 -268.981 0.493024C-264.981 0.493024 -264.981 1.04072 -260.981 1.04072C-256.982 1.04072 -256.982 0.927561 -252.982 0.927561C-248.982 0.927561 -248.982 0.62429 -244.982 0.62429C-240.982 0.62429 -240.982 0.235018 -236.982 0.235018C-232.982 0.235018 -232.982 1.47978 -228.982 1.47978C-224.982 1.47978 -224.982 1.67895 -220.982 1.67895C-216.982 1.67895 -216.982 1.96411 -212.972 1.96411C-208.962 1.96411 -208.972 2.18591 -204.962 2.18591C-200.952 2.18591 -200.962 1.4481 -196.952 1.4481C-192.942 1.4481 -192.952 1.30325 -188.942 1.30325C-184.933 1.30325 -184.943 2.07727 -180.933 2.07727C-176.923 2.07727 -176.933 1.74232 -172.923 1.74232C-168.913 1.74232 -168.923 1.65632 -164.913 1.65632C-160.903 1.65632 -160.913 2.42128 -156.903 2.42128C-152.893 2.42128 -152.903 0.963772 -148.893 0.963772C-144.883 0.963772 -144.893 1.78306 -140.883 1.78306C-136.873 1.78306 -136.883 2.55707 -132.873 2.55707C-128.863 2.55707 -128.873 2.19949 -124.873 2.19949C-120.873 2.19949 -120.873 2.51634 -116.873 2.51634C-112.874 2.51634 -112.874 -0.00488281 -108.874 -0.00488281C-104.874 -0.00488281 -104.874 1.11314 -100.874 1.11314C-96.8737 1.11314 -96.8737 0.719345 -92.8738 0.719345C-88.8739 0.719345 -88.8739 0.895876 -84.8739 0.895876C-80.874 0.895876 -80.874 0.683134 -76.874 0.683134C-72.8741 0.683134 -72.8741 0.538288 -68.8741 0.538288C-64.8742 0.538288 -64.8742 0.56092 -60.8742 0.56092C-56.8743 0.56092 -56.8743 1.16746 -52.8744 1.16746C-48.8744 1.16746 -48.8744 0.642396 -44.8745 0.642396C-40.8745 0.642396 -40.8745 0.737451 -36.8746 0.737451C-32.8746 0.737451 -32.8746 1.0362 -28.8747 1.0362C-24.8747 1.0362 -24.8747 0.615238 -20.8648 0.615238C-16.8548 0.615238 -16.8649 0.710292 -12.8549 0.710292C-8.84497 0.710292 -8.85496 0.868717 -4.84502 0.868717C-0.835073 0.868717 -0.845064 2.55707 3.16488 2.55707C7.17483 2.55707 7.1648 2.12706 11.1747 2.12706C15.1847 2.12706 15.1747 0.70124 19.1846 0.70124C23.1946 0.70124 23.1846 0.746504 27.1945 0.746504C31.2045 0.746504 31.1945 2.68381 35.2044 2.68381C39.2144 2.68381 39.2044 2.30359 43.2143 2.30359C47.2243 2.30359 47.2143 2.18591 51.2242 2.18591C55.2342 2.18591 55.2241 2.68381 59.2341 2.68381C63.244 2.68381 63.234 2.19949 67.244 2.19949C71.2539 2.19949 71.2439 1.33494 75.2439 1.33494C79.2438 1.33494 79.2438 1.33494 83.2438 1.33494C87.2437 1.33494 87.2437 0.452286 91.2436 0.452286C95.2436 0.452286 95.2436 2.69287 99.2435 2.69287C103.243 2.69287 103.243 1.66537 107.243 1.66537C111.243 1.66537 111.243 1.60652 115.243 1.60652C119.243 1.60652 119.243 0.425128 123.243 0.425128C127.243 0.425128 127.243 0.357231 131.253 0.357231C135.263 0.357231 135.253 1.74232 139.263 1.74232C143.273 1.74232 143.263 1.3621 147.273 1.3621C151.283 1.3621 151.273 1.79663 155.283 1.79663C159.293 1.79663 159.283 1.07693 163.293 1.07693C167.303 1.07693 167.293 0.850612 171.303 0.850612C175.312 0.850612 175.302 2.58876 179.312 2.58876C183.322 2.58876 183.312 0.0584872 187.322 0.0584872C191.332 0.0584872 191.322 1.65632 195.332 1.65632C199.342 1.65632 199.332 2.2538 203.342 2.2538C207.352 2.2538 207.342 1.16294 211.352 1.16294C215.362 1.16294 215.352 0.262176 219.362 0.262176C223.372 0.262176 223.362 0.293861 227.372 0.293861C231.382 0.293861 231.372 0.68766 235.382 0.68766C239.392 0.68766 239.382 2.03201 243.392 2.03201C247.402 2.03201 247.391 1.05883 251.401 1.05883C255.411 1.05883 255.401 0.235018 259.411 0.235018C263.421 0.235018 263.411 1.37115 267.421 1.37115C271.431 1.37115 271.421 0.94114 275.431 0.94114C279.441 0.94114 279.431 1.32136 283.441 1.32136C287.451 1.32136 287.441 1.69705 291.451 1.69705C295.461 1.69705 295.451 2.06822 299.461 2.06822C303.471 2.06822 303.461 0.357231 307.471 0.357231C311.481 0.357231 311.471 1.08146 315.481 1.08146C319.49 1.08146 319.48 0.429654 323.49 0.429654C327.5 0.429654 327.49 1.77853 331.5 1.77853C335.51 1.77853 335.5 1.27157 339.51 1.27157C343.52 1.27157 343.51 2.52086 347.52 2.52086C351.53 2.52086 351.52 1.56579 355.53 1.56579C359.54 1.56579 359.53 0.180701 363.54 0.180701C367.55 0.180701 367.54 0.556394 371.55 0.556394C375.56 0.556394 375.55 1.67895 379.56 1.67895C383.57 1.67895 383.56 1.82832 387.57 1.82832C391.58 1.82832 391.57 2.41223 395.579 2.41223C399.589 2.41223 399.579 0.651449 403.589 0.651449C407.599 0.651449 407.589 1.10409 411.599 1.10409C415.609 1.10409 415.599 0.49755 419.609 0.49755C423.619 0.49755 423.609 1.57484 427.619 1.57484C431.629 1.57484 431.619 1.5341 435.629 1.5341C439.639 1.5341 439.629 1.50242 443.639 1.50242C447.649 1.50242 447.639 0.293861 451.649 0.293861C455.659 0.293861 455.649 2.39865 459.659 2.39865C463.668 2.39865 463.658 0.832506 467.668 0.832506C471.678 0.832506 471.668 2.60687 475.678 2.60687C479.688 2.60687 479.678 1.49336 483.688 1.49336C487.698 1.49336 487.688 1.39378 491.698 1.39378C495.708 1.39378 495.698 1.83737 499.708 1.83737C503.718 1.83737 503.708 1.2761 507.718 1.2761C511.728 1.2761 511.718 2.17685 515.728 2.17685C519.738 2.17685 519.728 0.551868 523.738 0.551868C527.748 0.551868 527.738 0.94114 531.748 0.94114C535.758 0.94114 535.748 0.588079 539.757 0.588079C543.767 0.588079 543.757 2.31717 547.767 2.31717C551.777 2.31717 551.767 2.45297 555.777 2.45297C559.787 2.45297 559.777 0.479445 563.787 0.479445C567.797 0.479445 567.787 1.76948 571.797 1.76948C575.807 1.76948 575.797 0.253123 579.807 0.253123C583.817 0.253123 583.807 1.39378 587.817 1.39378C591.827 1.39378 591.817 2.16328 595.827 2.16328C599.837 2.16328 599.827 0.868717 603.837 0.868717C607.846 0.868717 607.836 1.07693 611.846 1.07693C615.856 1.07693 615.846 2.68381 619.856 2.68381C623.866 2.68381 623.716 0.0222757 627.716 0.0222757C631.716 0.0222757 631.716 2.69287 635.726 2.69287C639.736 2.69287 639.726 0.837032 643.736 0.837032C647.746 0.837032 647.736 0.379863 651.746 0.379863C655.756 0.379863 655.746 1.17651 659.756 1.17651C663.766 1.17651 663.756 0.597132 667.766 0.597132C671.776 0.597132 671.766 1.50242 675.776 1.50242C679.786 1.50242 679.776 2.66571 683.786 2.66571C687.795 2.66571 687.785 1.22631 691.795 1.22631C695.805 1.22631 695.795 2.62497 699.805 2.62497C703.815 2.62497 703.805 1.67895 707.815 1.67895C711.825 1.67895 711.815 0.035855 715.825 0.035855C719.835 0.035855 719.825 2.24928 723.835 2.24928C727.845 2.24928 727.835 0.895876 731.845 0.895876C735.855 0.895876 735.845 1.516 739.855 1.516C743.865 1.516 743.855 0.520183 747.865 0.520183C751.875 0.520183 751.865 0.0901721 755.874 0.0901721C759.884 0.0901721 759.874 0.0268022 763.884 0.0268022C767.894 0.0268022 767.884 2.20854 771.894 2.20854C775.904 2.20854 775.894 0.0539607 779.904 0.0539607C783.914 0.0539607 783.904 1.94601 787.914 1.94601C791.924 1.94601 791.914 1.60652 795.924 1.60652C799.934 1.60652 799.924 0.579026 803.934 0.579026C807.944 0.579026 807.934 1.49789 811.944 1.49789C815.954 1.49789 815.944 0.818927 819.954 0.818927C823.963 0.818927 823.953 0.633343 827.963 0.633343C831.973 0.633343 831.963 2.45749 835.973 2.45749C839.983 2.45749 839.973 1.82832 843.983 1.82832C847.993 1.82832 847.983 0.49755 851.993 0.49755C856.003 0.49755 855.993 2.37149 860.003 2.37149C864.013 2.37149 864.003 1.15841 868.013 1.15841C872.023 1.15841 872.013 1.34852 876.023 1.34852C880.033 1.34852 880.023 1.28062 884.033 1.28062C888.043 1.28062 888.033 1.42999 892.043 1.42999C896.053 1.42999 896.042 1.69705 900.052 1.69705C904.062 1.69705 904.052 0.56092 908.062 0.56092C912.072 0.56092 912.062 2.09538 916.072 2.09538C920.082 2.09538 920.072 2.09991 924.082 2.09991C928.092 2.09991 928.082 1.78306 932.092 1.78306C936.102 1.78306 936.092 0.601658 940.102 0.601658C944.112 0.601658 944.112 2.60234 948.112 2.60234C952.112 2.60234 952.112 0.121857 956.122 0.121857C960.132 0.121857 960.122 2.15422 964.132 2.15422C968.142 2.15422 968.132 0.00869646 972.142 0.00869646C976.151 0.00869646 976.141 1.17651 980.151 1.17651C984.161 1.17651 984.151 2.12706 988.161 2.12706C992.171 2.12706 992.161 0.597132 996.171 0.597132C1000.18 0.597132 1000.18 0.900402 1004.18 0.900402C1008.18 0.900402 1008.18 2.12706 1012.19 2.12706C1016.2 2.12706 1016.19 0.185227 1020.2 0.185227C1024.21 0.185227 1024.2 1.57031 1028.21 1.57031C1032.22 1.57031 1032.21 1.20367 1036.22 1.20367C1040.23 1.20367 1040.22 1.03167 1044.23 1.03167C1048.24 1.03167 1048.24 2.25833 1052.24 2.25833C1056.24 2.25833 1056.24 1.27157 1060.25 1.27157C1064.26 1.27157 1064.25 2.27191 1068.26 2.27191C1072.27 2.27191 1072.26 2.27191 1076.26 2.27191C1080.26 2.27191 1080.26 0.592605 1084.27 0.592605C1088.28 0.592605 1088.27 1.62916 1092.28 1.62916C1096.29 1.62916 1096.29 0.235018 1100.29 0.235018C1104.29 0.235018 1104.29 2.15875 1108.3 2.15875C1112.31 2.15875 1112.3 0.556394 1116.31 0.556394C1120.32 0.556394 1120.31 2.3217 1124.32 2.3217C1128.33 2.3217 1128.32 1.49336 1132.32 1.49336C1136.32 1.49336 1136.32 0.13091 1140.32 0.13091C1144.32 0.13091 1144.32 0.212386 1148.32 0.212386C1152.32 0.212386 1152.32 2.55255 1156.33 2.55255C1160.34 2.55255 1160.33 0.692187 1164.34 0.692187C1168.35 0.692187 1168.34 1.14483 1172.35 1.14483C1176.36 1.14483 1176.36 2.28096 1180.36 2.28096C1184.36 2.28096 1184.36 2.35791 1188.37 2.35791C1192.38 2.35791 1192.37 2.31717 1196.38 2.31717C1200.39 2.31717 1200.38 1.10409 1204.39 1.10409C1208.4 1.10409 1208.39 0.452286 1212.4 0.452286C1216.41 0.452286 1216.4 0.00869646 1220.41 0.00869646C1224.42 0.00869646 1224.41 2.65213 1228.42 2.65213C1232.43 2.65213 1232.42 0.06754 1236.43 0.06754C1240.44 0.06754 1240.44 2.67929 1244.44 2.67929C1248.44 2.67929 1248.44 2.26286 1252.45 2.26286C1256.46 2.26286 1256.45 2.21759 1260.46 2.21759C1264.47 2.21759 1264.46 2.32623 1268.47 2.32623C1272.48 2.32623 1272.47 0.787242 1276.48 0.787242C1280.49 0.787242 1280.48 0.723872 1284.49 0.723872C1288.5 0.723872 1288.49 0.837032 1292.5 0.837032C1296.51 0.837032 1296.51 2.00032 1300.51 2.00032C1304.51 2.00032 1304.52 0.68766 1308.52 0.68766C1312.52 0.68766 1312.52 1.6201 1316.53 1.6201C1320.54 1.6201 1320.53 1.96411 1324.54 1.96411C1328.55 1.96411 1328.54 0.212386 1332.55 0.212386C1336.56 0.212386 1336.55 0.75103 1340.56 0.75103C1344.57 0.75103 1344.57 2.45749 1348.57 2.45749C1352.57 2.45749 1352.58 0.126384 1356.58 0.126384C1360.58 0.126384 1360.58 0.737451 1364.59 0.737451C1368.6 0.737451 1368.59 0.0856457 1372.6 0.0856457C1376.61 0.0856457 1376.6 0.25765 1380.61 0.25765C1384.62 0.25765 1384.62 2.60234 1388.62 2.60234C1392.62 2.60234 1392.63 0.416075 1396.63 0.416075C1400.63 0.416075 1400.63 0.244071 1404.64 0.244071C1408.65 0.244071 1408.64 0.769136 1412.65 0.769136C1416.66 0.769136 1416.65 2.14517 1420.66 2.14517C1424.67 2.14517 1424.67 0.0313286 1428.67 0.0313286C1432.67 0.0313286 1432.68 0.760083 1436.67 0.760083C1440.67 0.760083 1440.67 2.10896 1444.68 2.10896C1448.69 2.10896 1448.69 0.714819 1452.69 0.714819C1456.69 0.714819 1456.7 0.198806 1460.7 0.198806C1464.7 0.198806 1464.71 0.796295 1468.71 0.796295C1472.71 0.796295 1472.72 0.886823 1476.72 0.886823C1480.72 0.886823 1480.73 1.06335 1484.73 1.06335C1488.73 1.06335 1488.74 2.64308 1492.74 2.64308C1496.74 2.64308 1496.75 1.89169 1500.75 1.89169C1504.75 1.89169 1504.76 2.48918 1508.76 2.48918C1512.76 2.48918 1512.77 1.00904 1516.77 1.00904C1520.77 1.00904 1520.78 0.411548 1524.78 0.411548C1528.78 0.411548 1528.79 2.48465 1532.79 2.48465C1536.79 2.48465 1536.8 2.08633 1540.8 2.08633C1544.8 2.08633 1544.81 2.14517 1548.81 2.14517C1552.81 2.14517 1552.82 1.76948 1556.82 1.76948C1560.82 1.76948 1560.83 0.723872 1564.83 0.723872C1568.83 0.723872 1568.84 2.17685 1572.84 2.17685C1576.84 2.17685 1576.85 0.0811193 1580.85 0.0811193C1584.85 0.0811193 1584.86 0.809874 1588.86 0.809874C1592.86 0.809874 1592.87 1.8419 1596.87 1.8419C1600.87 1.8419 1600.88 0.723872 1604.88 0.723872C1608.88 0.723872 1608.88 0.515656 1612.89 0.515656C1616.9 0.515656 1616.89 1.95506 1620.9 1.95506C1624.91 1.95506 1624.91 0.429654 1628.91 0.429654C1632.91 0.429654 1632.91 2.09991 1636.92 2.09991C1640.93 2.09991 1640.93 1.00451 1644.93 1.00451C1648.93 1.00451 1648.94 0.470392 1652.94 0.470392C1656.94 0.470392 1656.95 1.63821 1660.95 1.63821C1664.95 1.63821 1664.96 1.11314 1668.96 1.11314C1672.96 1.11314 1672.97 1.79663 1676.97 1.79663C1680.97 1.79663 1680.98 1.75137 1684.98 1.75137C1688.98 1.75137 1688.99 0.139963 1692.99 0.139963C1696.99 0.139963 1697 0.520183 1701.01 0.520183C1705.02 0.520183 1705.02 1.87358 1709.02 1.87358C1713.02 1.87358 1713.03 0.583553 1717.03 0.583553C1721.03 0.583553 1720.98 -0.000356387 1724.98 -0.000356387C1728.98 -0.000356387 1728.99 1.58842 1733 1.58842C1737.01 1.58842 1737.01 0.207859 1741.02 0.207859C1745.03 0.207859 1745.03 0.366284 1749.03 0.366284C1753.03 0.366284 1753.04 2.13159 1757.04 2.13159C1761.04 2.13159 1761.05 0.601658 1765.05 0.601658C1769.05 0.601658 1769.06 1.57484 1773.07 1.57484C1777.08 1.57484 1777.08 1.49336 1781.09 1.49336C1785.1 1.49336 1785.1 2.14517 1789.11 2.14517C1793.12 2.14517 1793.12 1.90527 1797.13 1.90527C1801.14 1.90527 1802.65 -0.0863584 1805.49 1.19462C1808.33 2.4756 1805.35 3.15909 1805.35 4.97419C1805.35 6.78928 1805.86 6.78476 1805.86 8.59533C1805.86 10.4059 1805.11 10.4059 1805.11 12.2165C1805.11 14.027 1805.63 14.027 1805.63 15.8376C1805.63 17.6482 1803.71 17.6482 1803.71 19.4587C1803.71 21.2693 1806.43 21.2693 1806.43 23.0799C1806.43 24.8905 1803 24.8905 1803 26.701C1803 28.5116 1805.09 28.5116 1805.09 30.3222C1805.09 32.1327 1803.78 32.1327 1803.78 33.9433C1803.78 35.7539 1805.15 35.7539 1805.15 37.5645C1805.15 39.375 1803.64 39.375 1803.64 41.1856C1803.64 42.9962 1806.41 42.9962 1806.41 44.8067C1806.41 46.6173 1805.33 46.6173 1805.33 48.4279C1805.33 50.2384 1806.61 50.2384 1806.61 52.049C1806.61 53.8596 1803.39 53.8596 1803.39 55.6702C1803.39 57.4807 1807.73 57.4807 1807.73 59.2913C1807.73 61.1019 1802.76 61.1019 1802.76 62.9124C1802.76 64.723 1806.86 64.723 1806.86 66.5381C1806.86 68.3532 1807.25 68.3487 1807.25 70.1592C1807.25 71.9698 1806.82 71.9698 1806.82 73.7849C1806.82 75.6 1807.79 75.5955 1807.79 77.406C1807.79 79.2166 1805.6 79.2166 1805.6 81.0272C1805.6 82.8378 1806.46 82.8378 1806.46 84.6483C1806.46 86.4589 1807.16 86.4589 1807.16 88.2695C1807.16 90.08 1803.34 90.08 1803.34 91.8906C1803.34 93.7012 1807.08 93.7012 1807.08 95.5118C1807.08 97.3223 1804.03 97.3223 1804.03 99.1329C1804.03 100.943 1803.1 100.943 1803.1 102.754C1803.1 104.565 1802.91 104.565 1802.91 106.375C1802.91 108.186 1806.19 108.186 1806.19 109.996C1806.19 111.807 1805.87 111.807 1805.87 113.622C1805.87 115.437 1807.92 115.433 1807.92 117.243C1807.92 119.054 1802.37 119.054 1802.37 120.869C1802.37 122.684 1807.11 122.679 1807.11 124.494C1807.11 126.31 1806.19 126.305 1806.19 128.12C1806.19 129.935 1805.91 129.931 1805.91 131.746C1805.91 133.561 1804.63 133.556 1804.63 135.371C1804.63 137.187 1804.96 137.182 1804.96 138.997C1804.96 140.812 1804.92 140.808 1804.92 142.623C1804.92 144.438 1806.31 144.433 1806.31 146.248C1806.31 148.064 1806.26 148.059 1806.26 149.874C1806.26 151.689 1808.01 151.685 1808.01 153.5C1808.01 155.315 1807.75 155.31 1807.75 157.125C1807.75 158.941 1808 158.941 1808 160.751C1808 162.562 1806.11 162.562 1806.11 164.377C1806.11 166.192 1806.11 166.119 1806.63 167.916C1807.11 169.551 1806.74 169.781 1803.91 171.067L1803.9 171.08Z" fill="#A5EF79"/>
<path d="M82.44 86.4662C83.28 83.4217 81.84 80.2755 80.27 77.4431C76.91 71.405 72.79 65.6808 68 60.3805C77.37 63.5946 84.62 70.8962 86.77 79.2663C88.58 75.3569 88.28 70.9132 86.74 66.9274C85.2 62.9416 82.51 59.3459 79.57 55.9707C85.28 56.6915 89.89 60.5501 92.39 64.9684C94.89 69.3867 95.61 74.3477 96.31 79.207C97.03 71.2948 103.48 63.9592 112.21 61.1098C109.49 64.714 106.76 68.3521 104.93 72.3379C103.1 76.3237 102.21 80.7335 103.3 84.9143" fill="#A5EF79"/>
<path d="M82.44 86.4662C83.28 83.4217 81.84 80.2755 80.27 77.4431C76.91 71.405 72.79 65.6808 68 60.3805C77.37 63.5946 84.62 70.8962 86.77 79.2663C88.58 75.3569 88.28 70.9132 86.74 66.9274C85.2 62.9416 82.51 59.3459 79.57 55.9707C85.28 56.6915 89.89 60.5501 92.39 64.9684C94.89 69.3867 95.61 74.3477 96.31 79.207C97.03 71.2948 103.48 63.9592 112.21 61.1098C109.49 64.714 106.76 68.3521 104.93 72.3379C103.1 76.3237 102.21 80.7335 103.3 84.9143" stroke="#5E3222" stroke-miterlimit="10"/>
<path d="M1314.44 105.971C1315.28 102.927 1313.84 99.7804 1312.27 96.9479C1308.91 90.9099 1304.79 85.1856 1300 79.8854C1309.37 83.0995 1316.62 90.4011 1318.77 98.7712C1320.58 94.8618 1320.28 90.418 1318.74 86.4323C1317.2 82.4465 1314.51 78.8508 1311.57 75.4756C1317.28 76.1964 1321.89 80.055 1324.39 84.4733C1326.89 88.8916 1327.61 93.8526 1328.31 98.7119C1329.03 90.7996 1335.48 83.4641 1344.21 80.6147C1341.49 84.2189 1338.76 87.857 1336.93 91.8428C1335.1 95.8285 1334.21 100.238 1335.3 104.419" fill="#A5EF79"/>
<path d="M1314.44 105.971C1315.28 102.927 1313.84 99.7804 1312.27 96.9479C1308.91 90.9099 1304.79 85.1856 1300 79.8854C1309.37 83.0995 1316.62 90.4011 1318.77 98.7712C1320.58 94.8618 1320.28 90.418 1318.74 86.4323C1317.2 82.4465 1314.51 78.8508 1311.57 75.4756C1317.28 76.1964 1321.89 80.055 1324.39 84.4733C1326.89 88.8916 1327.61 93.8526 1328.31 98.7119C1329.03 90.7996 1335.48 83.4641 1344.21 80.6147C1341.49 84.2189 1338.76 87.857 1336.93 91.8428C1335.1 95.8285 1334.21 100.238 1335.3 104.419" stroke="#5E3222" stroke-miterlimit="10"/>
<path d="M1350.44 61.8729C1351.28 58.8285 1349.84 55.6823 1348.27 52.8498C1344.91 46.8118 1340.79 41.0875 1336 35.7873C1345.37 39.0013 1352.62 46.3029 1354.77 54.6731C1356.58 50.7636 1356.28 46.3199 1354.74 42.3341C1353.2 38.3483 1350.51 34.7526 1347.57 31.3774C1353.28 32.0983 1357.89 35.9569 1360.39 40.3752C1362.89 44.7934 1363.61 49.7544 1364.31 54.6137C1365.03 46.7015 1371.48 39.366 1380.21 36.5166C1377.49 40.1207 1374.76 43.7588 1372.93 47.7446C1371.1 51.7304 1370.21 56.1402 1371.3 60.321" fill="#A5EF79"/>
<path d="M1350.44 61.8729C1351.28 58.8285 1349.84 55.6823 1348.27 52.8498C1344.91 46.8118 1340.79 41.0875 1336 35.7873C1345.37 39.0013 1352.62 46.3029 1354.77 54.6731C1356.58 50.7636 1356.28 46.3199 1354.74 42.3341C1353.2 38.3483 1350.51 34.7526 1347.57 31.3774C1353.28 32.0983 1357.89 35.9569 1360.39 40.3752C1362.89 44.7934 1363.61 49.7544 1364.31 54.6137C1365.03 46.7015 1371.48 39.366 1380.21 36.5166C1377.49 40.1207 1374.76 43.7588 1372.93 47.7446C1371.1 51.7304 1370.21 56.1402 1371.3 60.321" stroke="#5E3222" stroke-miterlimit="10"/>
<path d="M1259.44 86.4662C1260.28 83.4217 1258.84 80.2755 1257.27 77.4431C1253.91 71.405 1249.79 65.6808 1245 60.3805C1254.37 63.5946 1261.62 70.8962 1263.77 79.2663C1265.58 75.3569 1265.28 70.9132 1263.74 66.9274C1262.2 62.9416 1259.51 59.3459 1256.57 55.9707C1262.28 56.6915 1266.89 60.5501 1269.39 64.9684C1271.89 69.3867 1272.61 74.3477 1273.31 79.207C1274.03 71.2948 1280.48 63.9592 1289.21 61.1098C1286.49 64.714 1283.76 68.3521 1281.93 72.3379C1280.1 76.3237 1279.21 80.7335 1280.3 84.9143" fill="#A5EF79"/>
<path d="M1259.44 86.4662C1260.28 83.4217 1258.84 80.2755 1257.27 77.4431C1253.91 71.405 1249.79 65.6808 1245 60.3805C1254.37 63.5946 1261.62 70.8962 1263.77 79.2663C1265.58 75.3569 1265.28 70.9132 1263.74 66.9274C1262.2 62.9416 1259.51 59.3459 1256.57 55.9707C1262.28 56.6915 1266.89 60.5501 1269.39 64.9684C1271.89 69.3867 1272.61 74.3477 1273.31 79.207C1274.03 71.2948 1280.48 63.9592 1289.21 61.1098C1286.49 64.714 1283.76 68.3521 1281.93 72.3379C1280.1 76.3237 1279.21 80.7335 1280.3 84.9143" stroke="#5E3222" stroke-miterlimit="10"/>
</g>
<defs>
<clipPath id="clip0_159_101">
<rect width="2176" height="173" fill="white" transform="translate(-368)"/>
</clipPath>
</defs>
</svg>
